<svg xmlns="http://www.w3.org/2000/svg" viewBox="0 0 11.58 15.11"><defs><style>.cls-1{fill:#181b34;}</style></defs><g id="Capa_2" data-name="Capa 2"><g id="Capa_1-2" data-name="Capa 1"><path class="cls-1" d="M6.36,12.66C6.51,9.18,5.93,8.56,2.67,9,1.26,9.24.89,8.87.92,7.56S.82,5.1.75,3.86C.69,2.84-.6,1.71.34.91,1.45,0,3.13.11,4.58,0c1.1-.07,1.29.85,1.26,1.73C5.75,4.46,7,5.93,9.78,5.82c1.24,0,1.93.47,1.78,1.73a11.4,11.4,0,0,1-1.82,5.82c-.72,1-1.59,2-2.78,1.68S6.56,13.32,6.36,12.66Z"/></g></g></svg>