<svg xmlns="http://www.w3.org/2000/svg" viewBox="0 0 18.65 20.76"><defs><style>.cls-1{fill:#181b34;}</style></defs><g id="Capa_2" data-name="Capa 2"><g id="Capa_1-2" data-name="Capa 1"><path class="cls-1" d="M0,10.09c0-3.75.1-4,3.67-4.3,1.48-.11,1.45-1,1.65-2C6.12,0,6.58-.31,10.45.17c1.72.22,3.46.25,5.15.58,2.75.53,3.71,2.37,2.59,4.87A11,11,0,0,0,17.1,12.3a3,3,0,0,1-4.28,3c-2-1-2.5-.6-2.24,1.48.47,3.61-1.16,4.8-4.67,3.45C1.9,18.68.06,15.53,0,10.09Zm11.23,1c1.69.55,2.24-.28,2.1-2A7.1,7.1,0,0,1,14,5.27c.85-1.65.07-2.06-1.42-2.07a6,6,0,0,1-1.47-.1c-1.86-.46-2.79,0-2.77,2.15C8.39,7.56,7.3,9,4.69,8.76c-.71-.07-1.57-.22-1.63.93-.12,2.36,0,4.63,2,6.36.56.49,1.17,1.15,1.92.9,1-.3.48-1.26.52-1.93C7.67,12.12,8.65,11,11.23,11.13Z"/></g></g></svg>