<svg xmlns="http://www.w3.org/2000/svg" viewBox="0 0 18 21.31"><defs><style>.cls-1{fill:#181b34;}</style></defs><g id="Capa_2" data-name="Capa 2"><g id="Capa_1-2" data-name="Capa 1"><path class="cls-1" d="M18,9.2c-.2,3.38-.44,6.75-2.76,9.54a6.41,6.41,0,0,1-4.61,2.54c-2.85.21-4-.78-3.87-3.67.11-1.9-.23-2.4-2.29-2C1.69,16,.28,14.1,1.18,11.48A7.44,7.44,0,0,0,.67,6C-.72,2.6,0,1.34,3.57.65A45.36,45.36,0,0,1,8.21,0c2.37-.21,3.66,1.37,4.56,3.17a3.22,3.22,0,0,0,2.52,2C17.58,5.6,18.15,7.16,18,9.2ZM9.78,15.61c.21.66-.66,2,.61,2.39s2-.73,2.77-1.68c1.31-1.73,1.58-3.77,1.83-5.82.15-1.26-.54-1.77-1.79-1.73-2.81.1-4-1.36-3.94-4.09C9.29,3.8,9.11,2.88,8,3c-1.45.1-3.12,0-4.23.91-.94.8.35,1.93.41,2.95.07,1.23.2,2.47.17,3.7S4.68,12.19,6.09,12C9.35,11.51,9.93,12.13,9.78,15.61Z"/></g></g></svg>