<svg xmlns="http://www.w3.org/2000/svg" viewBox="0 0 815.94 309.8"><defs><style>.cls-1{fill:#181b34;}</style></defs><g id="Capa_2" data-name="Capa 2"><g id="Capa_1-2" data-name="Capa 1"><path class="cls-1" d="M805.22,279.07c-2.2-1.29-2.87.46-3.81,1.83-1.78,2.59-3.52,5.21-5.46,7.68-1.82,2.31-4.2,5.63-6.94,4.28-1.75-.85.27-4.81,1.19-7.18,3.85-9.93,7.9-19.78,11.79-29.7,2.18-5.55.5-10-4.5-12.5-2.71-1.33-4.71-1.77-6,2.13-1.79,5.55-4.31,10.87-6.54,16.36-8.05-6.29-14.42-5.83-21.42,1.32a39,39,0,0,0-8.72,14.79c-2.4,6.88-6.8,12.16-13.88,16.19.08-6.7,3.23-11.5,5-16.69,1.14-3.27,2.67-6.31,2.64-10s-1.44-6.15-4.28-7.67c-2.23-1.18-5.14-3.26-6.77,1.3-.45,1.26-1.55-.21-2.22-.76-4.7-3.88-9.64-3.74-14.75-.92-7.36,4.06-10.65,11.17-13.3,18.51a32,32,0,0,1-7.83,11.89c-1.54,1.54-3.34,4.65-5.53,3.31s0-4.2.75-6.14c4-10.77,8.42-21.41,12.49-32.18,1.78-4.7-.49-9.31-4.9-11.47-3-1.48-4.79-1-6,2.39-2,5.59-4.34,11-6.56,16.59-7.56-6.45-13.38-6.41-20.67.27a27.91,27.91,0,0,0-8.15,12.81c-1.78,6-5.34,11-9.75,15.34-1.26,1.25-2.83,3.39-4.47,2.41s-.48-3.22.18-4.92c2.17-5.65,4.41-11.27,6.36-17a9.35,9.35,0,0,0-4.75-11.65c-2.77-1.45-4.9-1.58-6,2.15A70.87,70.87,0,0,1,639,271c-3.11,6.88-5.23,14.34-11.34,19.48-1.49,1.25-3.08,3.86-4.79,2.78-2.12-1.32-.34-3.95.37-5.8,4-10.42,8.23-20.74,12.16-31.17,2.21-5.87.06-10.74-5-12.76-2.66-1.07-4.25-.71-5.35,2.19-3.22,8.45-6.62,16.83-10,25.22-2.76,6.87-5,14.07-10.92,19.13-1.7,1.44-3.29,4.54-5.54,3.14-1.75-1.09-.07-4,.66-6,2.13-5.7,4.59-11.28,6.48-17,1.41-4.29-1.42-8.52-5.76-10.73-3.36-1.72-4.82-.3-5.7,2.75-7.58-6.41-15.07-5.83-21.59,1.32A38.45,38.45,0,0,0,565,276.75c-3.72,10.42-11.58,16.66-21.72,19.33-7.79,2.05-11.69.71-11.26-8.91a13.63,13.63,0,0,0,.18-2c-.31-2.83.94-3.46,3.7-3.65,14.67-1,25.59-7.91,32.2-21.22,4-8.09,2.72-18.55-2.83-23.45-5.3-4.68-14.35-4.65-22.2.51-9.67,6.35-14.82,16.21-19.63,26.26-.66,1.39-.45,3.72-2.18,3.94-2.17.28-3.34-1.81-4.47-3.46-.54-.81-1-1.64-1.58-2.46a3.5,3.5,0,0,1-.12-5h0a12.13,12.13,0,0,1,3.85-6.24c1.28-1,2-2.07.56-3.69-3.85-4.26-12-3.52-14.49,1.63-3.79,7.95-3.42,22.94,7.84,28,5.71,2.59,5.59,5.94,4.86,10.75-1.54,10.28,4.57,19.16,16.08,19.7s19.92-4.8,27.84-12c2.18,5.86,5.93,8.71,10.81,8.33a13.24,13.24,0,0,0,8.09-3.32c1.7-1.51,3-2.85,5.17.29,2.39,3.4,6.55,3.9,10.83,3,4.85-1,8.58-3.83,12.25-7.19.45,4,2.63,6,6,6.89,7.37,2,12.48-2.39,17.7-6.51,3.41,9.41,11.1,9.12,24.89-.63,3.65,7.14,9,9.43,15.54,6,3.86-2,7.11-4.77,10.63.33.47.69,2.15.61,3.28.78,7.58,1.15,13-2.56,17.76-8C707.67,304,717,305,722.92,300c2.75-2.3,4.39-2.61,6.42.53.9,1.4,2.51,1.94,4.27,2.23,7.93,1.29,13.67-2.52,18.78-8,4.09,10,10.68,10.76,21.9,2.67,2,2.38,3.65,4.73,7.3,5.22,9.13,1.21,24.59-9.88,26.11-19.23C808,281.49,806.93,280.08,805.22,279.07ZM548.33,250.35c1.65-1.54,3.66-3.62,6.06-2.28,2.57,1.44,1.28,4.06.67,6.24-2.58,9.23-9.8,12.86-19.27,15.82C539.74,262.36,542.79,255.54,548.33,250.35ZM590,273c-2.24,6.26-2.71,13.65-9.43,17.59-1.21.71-2.46,1.39-3.7.78s-.69-2-.88-3.67c1.69-6,3.22-12.59,9-16.89C587.68,268.82,590.93,270.3,590,273ZM685,274.71a69.94,69.94,0,0,0-3.8,9.54c-1,3.13-3.14,4.9-5.8,6.33-1,.53-1.92,1.46-3.17.68S671,289,671.12,287.4c2.1-5.69,3.25-12.19,8.78-16.41,1.4-1.06,2.8-2.1,4.38-.66A3.36,3.36,0,0,1,685,274.71Zm48-1.79c-2.71,6-2.87,13.43-9.4,17.27-2.31,1.36-4.89,2.48-4.6-3.24,1.54-5.28,3-11.7,8.51-16.22a3.57,3.57,0,0,1,4.05-.75A2.53,2.53,0,0,1,733,272.92ZM780,275.14c-1.63,3.19-2.59,6.71-4,10s-4,5.09-7.59,6.15a2.25,2.25,0,0,1-2.1-3c1.77-6.25,3.2-12.73,8.59-17.22,1.51-1.25,3.17-2.34,4.78-.82C780.92,271.49,781,273.19,780,275.14Z"/><path class="cls-1" d="M627.67,120.85c-9.37.07-18.75,0-28.12.11a7.4,7.4,0,0,0-2.28.88c1.85,9.47,1.84,19.07,2.57,28.74-.81-.1-1.05-.06-1.1-.14-3.94-6.25-7.89-12.5-11.79-18.78-7.74-12.48-7.73-12.49-22.84-11.62-4.89,1.8-10,.38-14.91.83.63,6.41,1.65,12.81,1.83,19.24.45,16.41,1.3,32.86-1.82,49.15-.33,1.71-.06,2.83,2.17,2.81q14.7-.16,29.42-.09c2.16,0,2.49-.83,2.14-2.7a96,96,0,0,1-1.49-9.81c-.53-6.76-.83-13.54-1.22-20.32a240.28,240.28,0,0,1,17.58,26.71c2.55,4.48,5.22,6.83,10.76,6.12,5.23-.67,10.63-.35,15.94-.09,3.31.16,4.6-.54,4.54-4.24-.25-14.94-.15-29.9-.17-44.85h0a6.77,6.77,0,0,1,0-6.91q1-6.52,1.94-13C630,121.94,629.28,120.83,627.67,120.85Z"/><path class="cls-1" d="M201.26,191.76c-1.72-7.57-2-15.32-2.85-23-1.22-2.37-1.68-4.7.31-6.92,4.64-.6,7.11,2.18,8.69,5.89,2.13,5,3.87,10.12,6,15.12,3.13,7.5,9.06,11,17,11.49,6.39.42,15-4,15.14-8.78.38-12.29.13-24.6.13-38-7,13.15-16.71,16.63-27.15,10.23,3.38.65,6.06-.44,8.77-1,11.85-2.47,18.39-12,15.18-22.21C240,126.63,233.36,123.09,226,122c-19.62-2.89-39.39-.32-58.93-1.28.93,7.7,1.81,14.92,2.68,22.14a90,90,0,0,1,0,27.9l-2.28,21ZM198.13,148l.13-.14v.07c3.55-2,7.16-1.45,10.8-.25,2.38.63,4.52,1.55,4.12,4.57-.37,2.84-3,3-4.93,3.28a96.81,96.81,0,0,1-9.94.23,6.38,6.38,0,0,1-.13-7.76Z"/><path class="cls-1" d="M705.49,186c12.79-7.54,17-25.66,13-41.16S704.84,122.25,686,120.05c-1.56,1.39-3.46.78-5.21.79-12,.1-24,.12-36.07.16h0q1.23,9.44,2.47,18.86a17.83,17.83,0,0,1,0,11.93v12a10.46,10.46,0,0,1,0,8.93c-.69,4.92-1.29,9.85-2.1,14.75-.52,3.16-.18,4.74,3.8,4.63,12.47-.36,25-.22,37.44-.39A38.22,38.22,0,0,0,705.49,186Zm-29.28-22.2c-2.09-4.95-1.64-9.93-.19-14.92,2.3,0,4.61-.23,6.9-.09,4.48.28,7,3,7,7.25a7.37,7.37,0,0,1-6.79,7.68C680.84,163.9,678.51,163.74,676.21,163.75Z"/><path class="cls-1" d="M534.83,181.93c.89-7.31,1.76-14.61,2.73-22.63-5.64,3.06-11,3.89-16.39,4.63a20.71,20.71,0,0,1-12.93,0c-2.16-.06-4.32-.07-6.48-.19-1-.06-2.55.53-2.53-1.4s1.48-1.48,2.55-1.46c6.48.11,13-.47,19.44.53.9.14,2.3,1.26,2.8-.67-2-2.66.27-6.17-1.8-8.8-6.81,0-13.62.06-20.43.05-1.06,0-2.45.42-2.6-1.4-.18-2.17,1.36-1.91,2.64-1.82,10.74.72,21.75-2,32.69,3.09-1.49-10.58-2.93-20.53-4.27-30.5-.29-2.21-1.83-1.49-3-1.5-4.82-.06-9.64,0-14.46,0-14,0-27.94,0-41.9.07-1.41,0-4.3-1.28-3.46,2.25,1.93,8.1,1.92,16.43,2.91,24.64a50.17,50.17,0,0,1,0,20.92c-1,8.17-1.26,16.42-3,24.77,18.72,0,37.15,0,55.57,0,3.15,0,6.79.75,9.32-.57,3.22-1.67,1.47-6,2.24-9.1A8.8,8.8,0,0,0,534.83,181.93Z"/><path class="cls-1" d="M737.12,181.3c9.49,10.74,22.31,12.8,36.21,11.72,19.36-1.5,34-15.29,33.65-36.73.1-18.47-8.18-30.85-24.48-35.93a47.68,47.68,0,0,0-22.07-1.65c-13.61,2.19-24.59,8-29.44,21.6C725.79,154.87,726.5,169.26,737.12,181.3ZM760.81,145c3.1-5.71,10.31-5.55,13.72,0a17.8,17.8,0,0,1,2.52,7.92,6.64,6.64,0,0,1,0,6.93c-.83,2.31-1.34,4.82-2.55,6.91-3.27,5.61-10.51,5.73-13.63,0A21.89,21.89,0,0,1,760.81,145Z"/><path class="cls-1" d="M53.07,121.38c-7.92-2.25-16-2.08-24-.61-33.11,6-34.67,45.13-20.7,61.25,8.68,10,20.21,12.91,33,12.8,22.84-.2,37.51-14.74,37.57-37.56C78.93,138.69,70.06,126.22,53.07,121.38ZM47,167.22c-1.59,3.07-3.95,5.07-7.36,5.09a7.91,7.91,0,0,1-7.43-5A24.89,24.89,0,0,1,32,147.56a8,8,0,0,1,7.75-5.27c3.33.06,5.71,2.08,7.34,5.12,1.74,3.25,1.56,6.71,1.65,10.17S48.61,164.15,47,167.22Z"/><path class="cls-1" d="M259.37,120.78c-2.79,0-3.32.89-2.94,3.36.81,5.23,1.46,10.48,2.17,15.72a4.92,4.92,0,0,1,0,5.93q0,11.52,0,23a4.91,4.91,0,0,1,0,5.94q-1,7.52-1.94,15c1.32,2.33,3.57,2,5.7,2q26.86,0,53.73,0c1.77,0,3.67-.58,5.27.75.27-.14.76-.26.79-.44,1.31-9.83,2.55-19.67,3.87-29.49.37-2.83-1-2.17-2.61-1.52-10.77,4.42-22.12,3.55-33.37,3.64-1.07,0-2.51.33-2.52-1.51s1.53-1.38,2.54-1.38c5.49-.05,11,0,16.47,0,6.38,0,6.28,0,6.11-6.44-.06-2.49-.5-3.2-3.33-3-6.46.49-13,.31-19.45.38-1.16,0-2.33.15-2.39-1.65s.75-2.29,2.38-2.24c2.66.07,5.32,0,8,0,8.53.16,17.27-1,25.23,3.83-1.23-9.64-2.48-19.12-3.6-28.62-.28-2.37-1-3.47-3.7-3.45Q287.57,120.9,259.37,120.78Z"/><path class="cls-1" d="M371.2,148.82c10.66-3.17,20.84-1.38,30.72,3.16,2-1.21,1.35-3.22,1.37-4.95.07-6.13,0-12.26,0-18.4,0-1.6-.52-3.35.83-4.73-6.31-4.37-13.78-3.75-20.85-4.86a15.52,15.52,0,0,1-10.93,0c-3.54.62-7.16,1-10.63,1.91-17.43,4.69-28.14,17.63-28.13,35,0,15.43,6.76,28.85,25.28,35.08,16.08,5.41,32.31,3,48.43-.44,1.56-.34,2-1.43,2-3-.05-10.06,0-20.12,0-31-11.69,8.57-24,10.89-37.21,8-4.16-.9-8.24-2.67-8.59-7.59S367,150.05,371.2,148.82Z"/><path class="cls-1" d="M119.9,192.84c1.89,0,2.37-.28,2-2.44-1-5.84-1.62-11.76-2.39-17.64a4.91,4.91,0,0,1,0-5.92c-.21-2.88.58-4.27,4-4.09,6.69.34,13.41.12,20.12.13.42-3-.89-6.16.86-9-1-2.17-2.89-.84-4.31-.85-5.81-.05-11.63.18-17.44.22-1.28,0-3.08.82-3.17-1.77s1.61-2.35,3.27-2.35c5,0,10-.32,14.95.09,6,.5,12.34-.3,18.46,4.13-1.52-10.61-3-20.38-4.28-30.17-.31-2.36-1.47-2.63-3.36-2.12-1.07,1.11-2.46.83-3.76.83q-26.17,0-52.35,0c-1.3,0-2.69.29-3.76-.82-.3.28-.91.63-.86.81,1.87,7.22,1.62,14.72,2.93,22a88.81,88.81,0,0,1,0,27.9c-.76,6.23-1.36,12.48-2.36,18.66-.35,2.18.25,2.49,2.1,2.48Q105.21,192.81,119.9,192.84Z"/><path class="cls-1" d="M109.47,270.6a12.53,12.53,0,0,1,0-9.92c.17-.8.34-1.59.62-2.94,7.26,14.37,14.43,28.21,21.2,42.25,1.54,3.21,3.44,3.52,6.48,3.74,3.26.22,4.21-1.39,5.36-3.79,6.55-13.73,13.24-27.41,20.52-42.43.73,9,1.76,16.54,1.06,24.14-.59,6.26-1.41,12.5-2.24,18.74-.34,2.55.33,3.49,3.1,3.32a99.41,99.41,0,0,1,13.48,0c3.46.27,3.82-.91,3.23-3.9-1.8-9.19-4.94-18.16-4.61-27.73s.35-19.29.74-28.92c.12-2.91-.74-4-3.58-3.56a9.7,9.7,0,0,1-3.48,0c-10.17-2.35-14.75,2.68-18.19,11.74-4.45,11.7-10.47,22.8-16.09,34.73-7-14.15-13.91-27.53-20.32-41.14-1.86-4-3.77-5.62-8.38-5.43-12.57.52-12.58.26-11.66,13.17a83.27,83.27,0,0,1,0,26.92c-1.76,7.87-3.51,15.73-5.37,24.09,6.51,0,12.62-.06,18.73,0,2.07,0,2.15-.46,1.94-2.53C111,291,108.56,280.94,109.47,270.6Z"/><path class="cls-1" d="M392.46,275.41c1.45-20.76-8.95-29.87-20.21-34.32a49.34,49.34,0,0,0-28.34-2.44c-12.17,2.47-22.27,7.93-26.9,20.09-4.69,12.34-3,24.16,5.7,34.33,6.65,7.75,15.78,11,25.7,12.33a15.55,15.55,0,0,1,10.92,0c3.05-.64,6.17-1,9.12-2C382,299.2,391.61,287.41,392.46,275.41Zm-17.71,6.52c-6.29,4.8-13.53,6.55-20.75,6.74-8-.19-14.88-2.08-21-6.38-8.63-6.05-8.61-15.44,0-21.66,10.49-7.62,30.68-7.83,41.28-.43C383,266.27,383.15,275.53,374.75,281.93Z"/><path class="cls-1" d="M197.43,303.8c14.8-.33,29.62-.09,44.43-.18,4.28,0,9.73,1.86,12.51-.68,2.59-2.37.11-7.88.76-12,.53-3.4-.58-4.53-4.21-4.47-13.31.23-26.63.13-39.94.08-5.36,0-3-4.39-3.68-6.94-.81-3,1.23-3.06,3.42-3,10.65,0,21.32-.26,31.95.16,4.7.18,4.61-2.11,4.45-5.35-.14-3.06.87-6.12-4.47-5.92-11.61.44-23.26.13-34.39.13v-8.73c.64-1.28,1.82-1.23,3-1.23,13.21,0,26.41,0,39.62,0a7.43,7.43,0,0,1,2.24.79c2.22-5.05.49-10.32.76-15.47,0-.85-1.38-1.76-2.74-1.21-1.54,1.46-3.46.84-5.22.85q-26.29.06-52.6,0l-.28.56a6.63,6.63,0,0,1,.36,7.39c.6,11.89,3,23.7,1.73,35.67-.51,4.94-1.22,9.86-2,14.77C192.63,302.52,193.35,303.89,197.43,303.8Z"/><path class="cls-1" d="M461.75,303.7c1.5,0,3.57,1,4.47-.89s-.85-3.3-2.06-4.64c-4.87-5.43-10.42-10.24-14.83-16.14,14.71-6.41,15.24-6.93,17.77-17.42a13.41,13.41,0,0,1-.13-9.89c-2.8-10.2-6.8-13.38-18.72-14.88-1.58,1.41-3.5.8-5.26.81-12,0-24,.17-35.93-.05-4-.07-6.55.48-5.81,5.26.08.54-.48,1.18-.74,1.77,1,15.15,3.73,30.27.8,45.5-.5,2.59-.7,5.24-1,7.86-.19,1.66,0,2.77,2.25,2.7,6.13-.17,12.27-.05,18.64-.05l-6.09-21.88c4.09,0,7.81.48,11.35-.11,6.69-1.11,10.2,1.57,12.41,7.77,1.73,4.89,3.47,11.22,7.27,13.53S456.43,303.74,461.75,303.7ZM441,271c-7.61.15-15.23,0-22.84.16-2.45.05-3.21-.68-2.91-3.05.46-3.77.73-7.56,1.08-11.34.75-1.14,1.93-1.13,3.08-1.06,8.94.54,17.95-1.17,26.84.87h0A46.64,46.64,0,0,1,451,258c2.34,1,4.29,2.27,4.44,5.3.16,3.22-1.74,4.9-4.18,6.08C448,271,444.45,270.89,441,271Z"/><path class="cls-1" d="M808.44,40.92A30.83,30.83,0,0,0,794.36,37a45.91,45.91,0,0,0-23.14,4.38C773,32,773,32.06,781.55,32.09c8.32,0,16.66-.33,25,.06,4.47.2,5.07-1.59,4.22-5.15a12.22,12.22,0,0,1,0-9.93l0-1c-1.64-.2-3.43.59-4.86-.82L765.68,15c-1.56,0-2.84-.12-2.86,2.21,0,3.94-.46,7.89-.71,11.83A3.69,3.69,0,0,1,762,34c-.47,3.94-1.63,7.83-1.2,11.84.17,1.61-1.05,4.14,1.63,4.53s5.2,3.4,8.58.83c8-6,17.06-6.34,26.34-4,3.42.85,6.46,2.52,6.53,7s-2.69,6.53-6.31,7.82c-8.33,3-16.52,1.86-24.81-.66-3.51-1.07-7.34-5.09-10-3.27s-3.41,6.86-5.26,10.33c-1.43,2.71-1.12,4.16,1.78,5.7a54.89,54.89,0,0,0,28.56,6.74c9.47-.39,18.44-2.73,24.13-11.41C817.26,61.32,818.34,46.72,808.44,40.92Z"/><path class="cls-1" d="M320.05,76.12c8.48,4.35,17.53,5.66,26.87,5.54a59.15,59.15,0,0,0,8.89-1c11.63-2,17.77-9.12,19.28-20.58,1.41-.86,3.57-1.69.12-2.75-1.25-.38-1.37-1.59-1.92-2.48A26.31,26.31,0,0,0,362,46c6.59-3.42,11-7.74,10.25-15-.83-7.81-5.93-12.34-13.06-14.51-12.91-3.93-25.45-2.55-37.57,3.27-3,1.43-3.65,3.19-1.91,6.18a46.89,46.89,0,0,1,3.58,8.14c.88,2.54,1.59,3.05,4.45,1.77a46.33,46.33,0,0,1,30.35-3c1.3.31,2.9.24,3.1,1.87.21,1.8-1.46,2.49-2.76,3.11A27.82,27.82,0,0,1,354.68,39c-5.36,1.67-10.89,1.08-16.34.91-4-.12-6,.76-4.76,5.14,1.38,1.51.94,3.41.74,5.07-.3,2.59,1,3.79,3,4.71,6.76.49,13.6-.17,20.3,1.22,2.33.49,5,1.41,5.32,3.76s-2.66,2.9-4.59,3.69a6.57,6.57,0,0,1-1.42.41,54,54,0,0,1-24-1.39c-3.51-1-7.47-4.49-10.29-2.61s-3.25,6.59-5.09,9.87S317,74.58,320.05,76.12Z"/><path class="cls-1" d="M665.3,56.27C676.91,60.29,688,58.81,699,52c-.46,4.55-3,6.87-5.93,8.76-7.75,5-16.15,4.95-24.84,3.14-3.19-.66-6.21-4.83-8.67-3s-2.5,6.23-4,9.32c-1.28,2.63-.8,4.19,1.68,5.64,8.39,4.92,17.44,5.6,26.69,3.83,7.28-1.39,14.16-3.8,19.3-9.82,9.38-11,9.8-23.3,5.51-36.17-6.77-20.31-36-26.8-50.64-11.17C648.12,33.19,650.54,51.15,665.3,56.27Zm2.56-22.76c8.43-5.58,22.17-2.78,28.69,1.79,2.75,1.93,4,4.33.42,7.29-5,4.21-10.57,6.54-17.12,6.44A21.28,21.28,0,0,1,668,46.3C662.16,42.9,662.21,37.26,667.86,33.51Z"/><path class="cls-1" d="M375.09,60.08c4.09,21.61,30.68,27.34,46,15.67,9.38-7.15,11.3-17.45,11.46-28.73.27-18.39-11.3-33.45-32.5-32.09-11.13.71-19.95,7.08-23.86,17.55-2.72,7.3-2.8,14.8-2.87,22.37a7.82,7.82,0,0,1,3.09,1.5C378.65,58,378.36,58.75,375.09,60.08ZM388.4,37.22c5.84-6.3,13.23-6.46,20.89-4.63,6.92,1.66,11.2,5.74,12.25,13.15,1.29,9-5.39,17.29-15.09,18.19-1.16.1-2.33,0-3.49,0-7.39,0-13.85-2-17.18-9.24C382.9,48.47,383.62,42.37,388.4,37.22Z"/><path class="cls-1" d="M420.32,123.11c.66,4.24,1.68,8.47,1.84,12.73.68,18,1.71,36.1-1.8,54-.43,2.2.33,2.91,2.56,2.88,9.46-.14,18.93-.2,28.39-.13,2.43,0,3.36-.78,2.92-3.17-.72-3.88-1.39-7.77-2.09-11.66a3.7,3.7,0,0,1-.06-4.93c-1-16.89-1-33.75,2.14-50.47.39-2-.52-2.53-2.41-2.52-9.64.08-19.27.16-28.9,0C420.13,119.79,420,121,420.32,123.11Z"/><path class="cls-1" d="M188.33,61.11C185,73.32,189.2,78.94,199.84,78c6.13-.55,12.3-.78,18.44-.74,5.76,0,5.17-3.87,5.29-7.53.13-4-1.33-6.19-5.82-6-6.75.24-13.52.06-20.37.06,1.25-4.89,3.61-7.4,9.06-6.87,5.6.54,11.31.15,17,0s5.15-4.48,5.21-8.31-1.26-5.93-5.56-5.67-8.88.06-14,.06C212.4,37.27,214.68,31,219,26.9c3-2.92,8.92-.51,13.52-.9a42.62,42.62,0,0,1,6-.1c2.92.16,6.22.44,6.73-3.25s2.13-8-2.73-10.45a31.68,31.68,0,0,1-15.92,0h0c-7.57-1.59-12,1.91-15.42,8.45-5.15,9.77-11.06,19.14-16.61,28.71C192.29,53.18,189.51,56.77,188.33,61.11Z"/><path class="cls-1" d="M90.11,74.72c3.26-6.33,0-11.78-7-11.58-6.17.18-12.34,1.17-18.69.49C67.19,57,67.19,57,73.33,57s12.32.24,18.39-.89c5.66-1.05,3.86-5.67,3.94-9.16.09-3.3-1.78-4.48-5.16-4.24-4.46.31-9,.08-14.23.08,3-5.33,5.67-10.19,8.46-15,1.18-2,3.09-2.69,5.47-2.64,5.65.11,11.31-.25,16.94.05,4.63.25,5.65-2,5.64-6,0-6.33-.69-7.37-5.8-7.49-4.48-.11-9,.3-13.44-.23C87,10.71,82.4,12.91,79.22,18.75c-4,7.37-8.46,14.51-12.55,21.85-3.76,6.75-9,12.83-11.14,20.3-3.1,10.62-.41,17.65,12.17,16.73,6-.44,12-.52,17.93-.6C87.62,77,89.11,76.65,90.11,74.72Z"/><path class="cls-1" d="M11.06,74.8C23.87,71,36.68,67.1,47.3,58.52c9.42-7.61,16.35-16.8,17-29.53,0-10.63-6.51-18.25-17.54-21-4.74-1.17-8.92-2-9.52,4.88-.08,1-1.2,1.92-1.84,2.88C25.4,30.72,16.08,46.06,7.58,61.9,5.79,65.25,5,68.56,6.46,72.29,7.37,74.55,8.77,75.47,11.06,74.8ZM42,23.24c1-1.44,1.82-2.8,3.91-1.46.78.5,1.94.38,2.86.7,9.46,3.31,10.32,6.62,4.34,14.62C45.86,46.8,35.79,52.27,24.9,56.62a6.21,6.21,0,0,1-4,.14C27.5,45.27,34.57,34.14,42,23.24Z"/><path class="cls-1" d="M710,32.15h0l37.62,1.06L709.33,80.88c6.89,0,12.8-.08,18.71,0,2.52.06,3.48-1.59,4.48-3.31,5.84-10.1,12.14-20,17.33-30.39,4.09-8.22,11.86-15.54,8.41-26.3-.21-.66.46-1.56.58-2.37.35-2.27.07-3.72-3-3.59-6.64.29-13.3.2-20,.26a8.47,8.47,0,0,1-7.92,0c-4.75,0-9.53.27-14.25-.16-4.52-.42-5.75,1.16-4.29,5.23a6.52,6.52,0,0,1-.2,4.8C710.68,27.31,709.67,29.8,710,32.15Z"/><path class="cls-1" d="M137.63,73.07c.41,2.78,2,4.72,5.17,3.84,11.94-3.32,23.75-7.09,33.79-14.64s17.36-16.71,18-26.93c.06-14.18-6.27-21.59-18.21-24.22-4-.88-7.49-1.15-8.12,4.53-.19,1.77-1.91,3.41-3,5-9.38,14-18,28.47-26.09,43.26A14.18,14.18,0,0,0,137.63,73.07Zm34.83-45.93c1.55-2.36,3.28-2.48,5.41-1.87a24.54,24.54,0,0,1,5,2.1c5.6,3.06,6,5.24,2.35,10.54-8,11.52-19.46,17.79-33.51,22.56C158.6,48.31,165.48,37.7,172.46,27.14Z"/><path class="cls-1" d="M113,61.29c.58.67,1.71,1.23.81,2.57-2.64-.34-5.62,1.13-8-1-4.93-4.38-5-4.4-7,2.13a5.3,5.3,0,0,1,.1,5.9c.95,3.78,3.45,5.47,7.22,6.42s7.27,0,10.85-.4c4.66-.52,8.89-2.47,10.27-7.24,1.49-5.18.49-10.12-3.79-14-9.92-9.08-9.91-9.12-1.5-19.9a21.87,21.87,0,0,1,3.71-4c4.08-3.12,8.12-6.47,14.2-6.72a55.76,55.76,0,0,1-10.53,15.68c-3.63,3.68-3.05,7.85-1.45,12,.72,1.86,2.25,2.77,4.19.74,8.16-8.51,14.54-18,16.43-29.9,1.49-9.33-5.12-14.84-13.91-11.4-13.54,5.3-21.62,15.79-26,29.34C106.3,48.83,108,55.46,113,61.29Z"/><path class="cls-1" d="M302.08,240.62c-4.53-.31-9.18,1.11-13.6-.81-3.32-.51-2,1.81-1.77,3.14,1.88,11,3.85,22.05,5.81,33.08,1.71,9.65-4.26,14.93-13.91,12.16a40,40,0,0,1-6.28-2.73c-2.63-1.29-5-5.35-7.13-4.37-2.25,1.05-2.84,5.3-4.59,7.84-2.89,4.19-1.59,6.85,2.16,9.67,12,9,26.49,9.83,35.38-1.12,4-4.9,5.43-10.77,6.1-16.9a3.69,3.69,0,0,1,.05-4.93c1.89-10.92,1.7-22,2.95-33C306,240.7,304.11,240.76,302.08,240.62Z"/><path class="cls-1" d="M460.84,83c16.13.26,32.28.07,48.42.07v-.2c9.32,0,18.64.11,28,0,8-.12,16-.45,23.94-.83,3.31-.16,6.6-4.09,6-7.19-.66-3.67-3.7-1.88-5.6-1.89-10.64,0-21.3,0-31.94.36-21.63.78-43.26.49-64.89.58-8.45,0-10-2.43-7.49-10.4,2-6.09,3.73-12.24,6.47-18,.81-1.71,1-3.28-.84-4.27s-3.34,0-4.38,1.34a16.08,16.08,0,0,0-2.3,4.38c-2.38,6.65-4.88,13.27-6.89,20C446.07,77.85,449.5,82.77,460.84,83Z"/><path class="cls-1" d="M500.28,20c20-.09,39.92-.43,59.88-.56,10-.07,20,.17,29.93.21,3.58,0,4.62,1.83,4,5.07A65.67,65.67,0,0,1,590.35,37c-.94,2.26-3.15,5.47.41,6.84,3.06,1.17,4.37-2.15,5.5-4.53,2.92-6.13,4.44-12.72,5.73-19.3,1.24-6.28-1.84-9.59-8.43-9.92-2.81-.14-5.64.09-8.47.15a286,286,0,0,1-48.88,0c-11.82-.66-23.6.69-35.4.82-4.19,0-5.64,3.25-5.71,6.75C495,21.91,498.47,20,500.28,20Z"/><path class="cls-1" d="M620,32.49c-.26,2.8.19,4.44,3.79,3.69,2.7-.56,5.61-.22,8.42-.21,1.09,0,2.59-.31,2.72,1.36.49,6.16,3,12.19,1.91,18.42-1.34,7.6-3.2,15.1-4.86,22.79h17.87c-2.13-12.37-6.38-24.22-4-36.8a5,5,0,0,1,0-5.93v-.45a75.79,75.79,0,0,1,1.65-15.61c.84-4,.73-4.72-2.1-5.08-5.89-.75-10.76,1.67-15.82,4-2.95,1.36-7.78-.57-9.27,2.06s-.32,6.78-.31,10.26A14.76,14.76,0,0,1,620,32.49Z"/><path class="cls-1" d="M54.21,245.82a20.48,20.48,0,0,0-4.32,4.1c-7.75,9.74-13.76,20.56-19.33,31.64v4.07c.6,2.06,1.06,4.7,3.55,4.78,2.11.06,2.86-2.43,3.8-4.16A16.69,16.69,0,0,0,39,284.57c1.79-4.61,5.82-2.86,9-3,3.68-.19,1,3,2,4.47s.76,4.3,3.28,4.48,3-2.14,3.64-4c2-5.89,4.15-11.76,6.2-17.65,2-5.64,3.53-11.35,2.83-17.44C65.06,243.91,60.36,241.6,54.21,245.82Zm1.34,20.87c-1.11,4.84-3.47,7.53-9.14,5.61A36.11,36.11,0,0,1,58.2,258C57,261.76,56.13,264.19,55.55,266.69Z"/><path class="cls-1" d="M258.4,69.11a15.48,15.48,0,0,0,11.53.82c3.81-1.12,6.51-3.86,9.33-6.74,2,4.36,4.37,7.74,9.74,7.14,4.32-.49,6.07-3.22,7.38-7.27-3.61,1.93-6,7.18-10.36,3.88s-4.11-8.18-2.34-13c-2.48-2.39-.09-5,0-7.37a29.37,29.37,0,0,1,4.86-14.84c.76-1.22,1.74-3.35,3.77-2.44s1.29,3,1,4.48a39.07,39.07,0,0,1-5,12.82c-1,1.67-2.46,3.12-2.73,5.17A29,29,0,0,0,296,35.53c.85-3.24,2-8.33-2.72-10.07s-7.14,2.43-9.26,5.72a37.41,37.41,0,0,0-5.51,24.62c.52,5.05-2,7.56-6.14,8.75a16.44,16.44,0,0,1-13.39-1.44c-4.77-2.84-6.41-10.94-2.85-15.22,2.25-2.71,4.8-4.25,7.84-.82.71.8,1.65,1.51,2.78.42-6.25-5.64-7.65-9.7-4.83-14.92,1.87-3.48,4.8-5.44,9-4.67s6,3.4,5.85,8.4c2.71-4.19.79-6.75-1.44-8.89-3.38-3.26-8.81-3.19-12.76-.18-4.88,3.72-5.71,9.2-2.45,16.33-6,1.76-9.21,5.27-9.64,10.44C249.85,61.13,252.69,66.39,258.4,69.11Z"/><path class="cls-1" d="M23.79,277.15c-3.45.55-7,.13-11.14.13l12.89-20.85c1.91-3.08,3.09-6.27,1.19-9.79-1.37-2.53-2.77-3.14-4.55-.19-3.68,6.08-7.54,12.05-11.28,18.1-2.93,4.74-6.21,9.34-7,15.09A3.81,3.81,0,0,1,4,284.55c.67,3.52,2.77,5.73,6.38,5.59,4.93-.19,9.84-1,14.77-1.29,2.24-.15,3.2-1.36,3.79-3.22q0-3,0-6C27.91,277.31,26.45,276.72,23.79,277.15Z"/><path class="cls-1" d="M57.68,299.72a18,18,0,0,1-11.93,0c-12.92.27-25.83.6-38.75.78-3.79.06-3.67,2.8-3.72,5.16s.75,4.42,4.07,4.07,7-.25,10.42-.34a10.49,10.49,0,0,1,8.93,0c10.4-.27,20.8-.75,31.21-.71,3.93,0,5.49-1.5,5.39-5.1S61.05,298.86,57.68,299.72Z"/><path class="cls-1" d="M67.66,228.91a91.86,91.86,0,0,1-26.9,0c-8.66-.63-17.24,1.21-25.87.78-3.54-.17-5.17,1-5.25,4.69-.08,4,1.89,4.49,5.27,4.49,16.45,0,32.86-1.59,49.32-1.14,1.64,0,4.41,1.1,4.73-1.21S71.32,230.82,67.66,228.91Z"/><path class="cls-1" d="M534.59,39.29c-.6,2.7-.1,5.64-1.87,8.29a92.34,92.34,0,0,1-4.1-8.93c-.88-2.54-2.83-1.89-4.45-2.07-2.06-.23-2.33,1.51-2.52,3-.68,5.59-1.26,11.19-1.94,16.78-.23,1.86.34,2.85,2.34,2.83,1.53,0,3,.18,3.17-2.07.25-2.76.77-5.5,1.3-9.15,1.88,3.91,3.44,6.79,4.67,9.81,1.11,2.71,3.37,1.3,5.1,1.74,1.27.32,1.78-.3,1.91-1.53.66-6,1.37-12.09,2-18.15.16-1.44.54-3.24-1.75-3.26C536.67,36.56,535.13,36.84,534.59,39.29Z"/><path class="cls-1" d="M567.61,36c-7.14-.1-12.46,5.74-12.52,13.75,0,6.39,4,10.17,10.71,10.12,6.31,0,11.42-6.2,11.42-13.72C577.22,40,573.55,36.12,567.61,36ZM565.24,54.3c-3.42-.19-4.28-2.3-4.14-5.38.19-4.11,2.6-7,6-6.94,3.2.06,4.17,2.06,4.31,4C571.34,50.9,568.43,54.48,565.24,54.3Z"/><path class="cls-1" d="M501.45,59.07c8.37,2.46,12.57-1.57,13.68-8.18.61-3.59,1-7.22,1.31-10.85.09-1,1.18-2.5-.34-3a6.5,6.5,0,0,0-4.33,0c-1.36.6-1.47,2.42-1.62,3.94-.33,3.29-.59,6.6-1.16,9.85-.35,2-1.28,3.68-4,3.4-3-.3-2.22-2-1.95-3.9.49-3.4.7-6.84,1.1-10.26.21-1.83.16-3-2.32-3.25s-2.78,1-3.15,2.69c-.76,3.54-1.78,7-1.54,10.78C496.52,54.17,497.19,57.82,501.45,59.07Z"/><path class="cls-1" d="M479.75,39.94c-.37,3.16,2,1.72,3.33,2.06s4-.55,3.76,1c-.57,3.35.2,7-1.59,10.1-.89,1.55-2.67,1.69-3.25.65-1.76-3.12-4.19-1.45-6.5-1.6.18,5.4,3.5,7.62,8,7.62a7.63,7.63,0,0,0,7.76-6.26c.52-2.24.78-4.55,1.13-6.83,1.57-10.33,1.56-10.17-9-10.06C480.58,36.62,480,37.73,479.75,39.94Z"/><path class="cls-1" d="M647,249a7.51,7.51,0,0,0,7.58,7.9A7.92,7.92,0,0,0,663,249c.15-3.43-3.82-7.22-7.8-7.46A7.85,7.85,0,0,0,647,249Z"/><path class="cls-1" d="M460.68,28.85c2.8,1.09,4.79-.67,6-3s1.91-1.43,2.78.09c.29-.34.57-.68.86-1a11.94,11.94,0,0,1,1.4-8c2.06-4.06,4.12-8.18,4.6-12.83.15-1.52.12-3.14-1.53-3.84-1.92-.82-3.15.53-4.1,1.91-2.57,3.72-2.66,8-2.68,12.34,0,2.08.58,4.34-1.56,5.87a6.12,6.12,0,0,1-.66,1.83c-1.28,1.63-1.63,5.32-4.29,4.17S457.78,22,458.89,19a11.94,11.94,0,0,0,.36-3.87c-2.95,1.87-1.78,4.86-2.05,7.46C456.91,25.46,458,27.8,460.68,28.85Z"/><path class="cls-1" d="M591.08,78.85h0l-.11.05.2.06-.09-.11Z"/><path class="cls-1" d="M589.16,71.22c2.08-4.63,4.52-9.12,5.16-14.24.21-1.66.13-3.44-2-4-1.78-.44-2.83.7-3.58,2A19.65,19.65,0,0,0,586,64.42c0,2.51,1,5.21-.83,7.55h0a21.59,21.59,0,0,1-1.76,3.91c-1,1.37-1.26,3.82-3.46,3.63-1.76-.15-2.35-2.07-3-3.59h0c-1.51-1.53-.54-3.51-1-5.23-1.74,4.18-1.58,8.39,2.48,10.73s5.41-2.06,7.47-4.33a1.24,1.24,0,0,1,.45-.2c1.8,3.24,1.83,3.28,4.57,2C586.11,77.45,587.85,74.15,589.16,71.22Z"/><path class="cls-1" d="M546.05,59.2c2.83.32,3.08-.83,3.34-3.15.65-5.51,1.67-11,2.56-16.47.27-1.67.21-3.17-2.08-2.76-1.43.26-3.67-1.41-3.93,2-.4,5-1.31,10-1.83,13.81,0,1.67,0,2.17,0,2.66C544.19,56.82,542.81,58.83,546.05,59.2Z"/><polygon class="cls-1" points="473.28 26.09 473.28 26.09 473.28 26.09 473.28 26.09"/><path class="cls-1" d="M485.61,27.1c-6.94,1.18-8.73.17-7.29-4.1-.71-.07-1.81.55-1.93-.7A6.91,6.91,0,0,1,477,20c.68-2.42,1.82-5.67,4.06-5.58,3.2.13,1.28,2.69.53,4.3-.35.74-.82,1.41-1.21,2.13a5.64,5.64,0,0,0-.35.92h0a23.9,23.9,0,0,0,3.54-2.63c2.06-2.21,2.41-4.78.1-7s-4.21-.64-6,1c-3.92,3.49-4.83,8-4.32,12.94C478.33,30.2,480.76,32.18,485.61,27.1Z"/><path class="cls-1" d="M473.28,26.06a.27.27,0,0,1-.08-.07.87.87,0,0,0,.08.1Z"/><polygon class="cls-1" points="473.19 25.99 473.19 25.99 473.19 25.99 473.19 25.99"/><path class="cls-1" d="M591.17,79a.28.28,0,0,0,0-.09l-.1,0Z"/><path class="cls-1" d="M598.77,67.11c1.71-.42,2.7.56,2.07,2.18a30,30,0,0,1-2.72,4.61c3.3-.47,4.69-2.68,5-5.71a3.61,3.61,0,0,0-2.89-4.07c-3-.63-4.66,1.79-6.38,3.81-2.74,3.22-2.27,7.18-2.69,10.94,1.89.3,2.61,2.24,4.21,3,3.74,1.79,6.86.82,8.53-3-2.39,1.27-4.64,2.84-7.21.84-1.36-1-1.8-2.25-.65-3.73C594.63,73.16,596.22,67.74,598.77,67.11Z"/><path class="cls-1" d="M265.18,192.24c-1.82,0-3.66-.11-5.47,0s-2.69-.86-3-2.48c-.53,1.88-.42,3.05,2.14,3,20.86-.16,41.71-.21,62.56-.29C302.64,191.87,283.91,192.42,265.18,192.24Z"/><path class="cls-1" d="M131.78,121.34c5.59,0,11.21.5,16.8-.31H88.71C103.06,121.83,117.42,121.25,131.78,121.34Z"/><path class="cls-1" d="M200.45,240.22c15.37-.05,30.75,0,46.12,0,1.63,0,3.31.33,4.9-.38l-56-.15c-.78,0-1.7-.16-1.84,1C195.83,239.69,198.17,240.23,200.45,240.22Z"/><path class="cls-1" d="M409,240.18c13.07-.16,26.15.47,39.22-.34l-40.63-.17c-7.65,0-7.65,0-7.11,8C401.3,240.19,401.3,240.27,409,240.18Z"/><path class="cls-1" d="M585.09,10.2H536.21Q560.65,11.08,585.09,10.2Z"/><path class="cls-1" d="M209.3,256.23c-.24,0-.47.41-.69.66l44.84-.41C238.74,255.75,224,256.26,209.3,256.23Z"/><path class="cls-1" d="M652.93,120.42c11-.29,22,.4,33.05-.37-13.2-.06-26.39-.14-39.58-.14-.58,0-2.14-.79-1.7,1.09C647.36,119.75,650.19,120.49,652.93,120.42Z"/><path class="cls-1" d="M597.27,121.84c.81-1.75,2.41-1.44,3.86-1.45,8.58,0,17.15,0,25.73,0,1.93,0,3.69,0,4,2.47.59-1.93.4-3-2.13-3-9.9.1-19.81.05-29.72,0C597.55,119.84,596.79,120.26,597.27,121.84Z"/><path class="cls-1" d="M167.43,191.71a1.83,1.83,0,0,0-.26.42c0,.08.06.3.1.3,11.31.46,22.62.82,33.92-.2,0,0,.05-.3.07-.47A228.75,228.75,0,0,1,167.43,191.71Z"/><path class="cls-1" d="M403.74,148c-.06,1.4,1.42,3.9-1.82,4,.59.51,1.23,1.5,1.76,1.44,1.07-.11.65-1.28.65-2,0-9.18-.1-18.35-.16-27.52C403.35,131.92,404.1,140,403.74,148Z"/><path class="cls-1" d="M169.7,142.86v27.9A203,203,0,0,0,169.7,142.86Z"/><path class="cls-1" d="M90.78,143.86v27.9A196.82,196.82,0,0,0,90.78,143.86Z"/><path class="cls-1" d="M96.75,252.67q0,13.47,0,26.92A177.88,177.88,0,0,0,96.75,252.67Z"/><path class="cls-1" d="M67.66,228.91l-26.9,0A223.54,223.54,0,0,0,67.66,228.91Z"/><path class="cls-1" d="M303.26,240.15c1.95,0,3.65.07,4,2.5.7-2.37-.18-3.14-2.63-3-5.37.2-10.76.15-16.14.2C293.38,240.68,298.33,240,303.26,240.15Z"/><path class="cls-1" d="M470.36,146.85q0,10.46,0,20.92A109.12,109.12,0,0,0,470.36,146.85Z"/><path class="cls-1" d="M242.47,12.2H226.55A70,70,0,0,0,242.47,12.2Z"/><path class="cls-1" d="M564.11,120c-5,.23-10-1.26-14.91.83C554.11,119.57,559.18,121.12,564.11,120Z"/><path class="cls-1" d="M521.17,163.93l-12.93,0A47.85,47.85,0,0,0,521.17,163.93Z"/><path class="cls-1" d="M333.84,50.85a13,13,0,0,0-.26-5.82,57.86,57.86,0,0,1-.24,6.46c-.51,3.52,1.3,3.89,4,3.32C334.91,54.62,333.53,53.69,333.84,50.85Z"/><path class="cls-1" d="M57.68,299.72l-11.93,0A40.09,40.09,0,0,0,57.68,299.72Z"/><path class="cls-1" d="M647.17,139.86c0,4,0,7.95,0,11.93A38.49,38.49,0,0,0,647.17,139.86Z"/><path class="cls-1" d="M383.32,119H372.39A36.08,36.08,0,0,0,383.32,119Z"/><path class="cls-1" d="M348.41,305.54h10.92A36.34,36.34,0,0,0,348.41,305.54Z"/><path class="cls-1" d="M109.47,270.6l0-9.92A28,28,0,0,0,109.47,270.6Z"/><path class="cls-1" d="M810.74,27V17.07A26.12,26.12,0,0,0,810.74,27Z"/><path class="cls-1" d="M467.1,264.61q-.06-4.94-.13-9.89A33.8,33.8,0,0,0,467.1,264.61Z"/><path class="cls-1" d="M30.56,281.56l-1.64-1.95c.47,2,1.31,4,0,6h1.62C29.66,284.27,29.43,282.91,30.56,281.56Z"/><path class="cls-1" d="M524,160.78c.05-2.38.08-4.76.17-7.14.06-1.46-.51-2-2-1.66C525.29,154.41,522.66,158,524,160.78Z"/><path class="cls-1" d="M143.6,162.88c2.14-2.83.66-6,.86-9C143.38,156.78,144.87,160,143.6,162.88Z"/><path class="cls-1" d="M647.21,163.83l0,8.93A22.75,22.75,0,0,0,647.21,163.83Z"/><path class="cls-1" d="M17.77,309.42H26.7A23.13,23.13,0,0,0,17.77,309.42Z"/><path class="cls-1" d="M463.93,16.86c-1.49-4.16-1.66-4.26-4.66-2.84C462.06,12.94,462.78,15.25,463.93,16.86Z"/><path class="cls-1" d="M735.92,15.22H728A19.21,19.21,0,0,0,735.92,15.22Z"/><path class="cls-1" d="M576.63,71.29c0-1,.09-2,.09-3l.2-.27-.48,0c-.15.9-.29,1.8-.44,2.7A2.42,2.42,0,0,1,576.63,71.29Z"/><path class="cls-1" d="M576.63,71.29a15.4,15.4,0,0,0,.35,4.63l.24-3.33A3.65,3.65,0,0,0,576.63,71.29Z"/><path class="cls-1" d="M628.88,142.8l0-6.91A14.81,14.81,0,0,0,628.88,142.8Z"/><path class="cls-1" d="M193.66,241.69l.06,6.94A13.6,13.6,0,0,0,193.66,241.69Z"/><path class="cls-1" d="M198.41,168.77c.1-2.31.21-4.61.31-6.92C197.43,164.1,198,166.44,198.41,168.77Z"/><path class="cls-1" d="M709.26,25.08c0,2.38-1.33,4.9.73,7.07C708.84,29.89,710,27.38,709.26,25.08Z"/><path class="cls-1" d="M258.6,139.86l0,5.93A10.07,10.07,0,0,0,258.6,139.86Z"/><path class="cls-1" d="M119.49,172.76v-5.92A10.2,10.2,0,0,0,119.49,172.76Z"/><path class="cls-1" d="M98.83,65c0,2,.06,3.93.1,5.9A12.65,12.65,0,0,0,98.83,65Z"/><path class="cls-1" d="M645.87,42l0-5.93h0A10.5,10.5,0,0,0,645.87,42Z"/><path class="cls-1" d="M258.64,168.82l0,5.94A10,10,0,0,0,258.64,168.82Z"/><path class="cls-1" d="M810.77,16c-1.33-2-3.23-.61-4.86-.82C807.42,16.1,809.29,14.94,810.77,16Z"/><path class="cls-1" d="M3.92,279.64,4,284.55A8.23,8.23,0,0,0,3.92,279.64Z"/><path class="cls-1" d="M304.25,280.58l.05-4.93A7.32,7.32,0,0,0,304.25,280.58Z"/><path class="cls-1" d="M762.11,29.05c0,1.65-.05,3.29-.07,4.93A7.26,7.26,0,0,0,762.11,29.05Z"/><path class="cls-1" d="M452.14,177.76l-.06-4.93A7.32,7.32,0,0,0,452.14,177.76Z"/><path class="cls-1" d="M577.1,67.77c.76-1,1.61-1.72,3.09-.79-2-2.43-3-1.1-3.75,1A.71.71,0,0,1,577.1,67.77Z"/><path class="cls-1" d="M577.1,67.77l-.18.25.62,0A.87.87,0,0,0,577.1,67.77Z"/><path class="cls-1" d="M515.18,261.65l-.12-5h0A6.16,6.16,0,0,0,515.18,261.65Z"/><path class="cls-1" d="M469.42,26c1.24,1.52,2.49,2.06,3.74.06L470.28,25C470.67,25.87,470.32,26.16,469.42,26Z"/><polygon class="cls-1" points="473.19 25.99 473.19 25.99 473.2 25.99 473.19 25.99"/><polygon class="cls-1" points="473.28 26.09 473.28 26.09 473.28 26.09 473.28 26.09"/><path class="cls-1" d="M473.19,26l0,.05.12.05Z"/><path class="cls-1" d="M198.26,148v0l10.8-.32C205.45,147.31,201.83,146.77,198.26,148Z"/><path class="cls-1" d="M198.65,148l-.07,0h0l0,0Z"/><path class="cls-1" d="M198.66,148a10,10,0,0,0,.09,7.76l0-7.76Z"/><path class="cls-1" d="M198.68,148l0-.09-.06.1Z"/><path class="cls-1" d="M198.67,148h0v0h0Z"/><path class="cls-1" d="M198.67,148h0v0l0,0Z"/><path class="cls-1" d="M676.21,163.75q-.11-7.45-.19-14.92A39.62,39.62,0,0,0,676.21,163.75Z"/><path class="cls-1" d="M777.05,152.85q0,3.47,0,6.93A15.3,15.3,0,0,0,777.05,152.85Z"/><path class="cls-1" d="M446.25,256.54c-10-.49-19.95-.88-29.92.19l29.92-.19Z"/></g></g></svg>