<svg xmlns="http://www.w3.org/2000/svg" viewBox="0 0 890 890"><defs><style>.cls-1{fill:#1a1e36;}.cls-2{fill:#1b9e8e;}.cls-3{fill:#191d36;}.cls-4{fill:#c1b566;}.cls-5{fill:#199d8d;}.cls-6{fill:#182239;}.cls-7{fill:#188f82;}.cls-8{fill:none;}.cls-9{fill:#1dab9f;}.cls-10{fill:#1dbeae;}.cls-11{fill:#ddd8c8;}.cls-12{fill:#1ebead;}.cls-13{fill:#47c6b9;}.cls-14{fill:#911915;}.cls-15{fill:#29b3a2;}.cls-16{fill:#911a15;}</style></defs><g id="Capa_2" data-name="Capa 2"><g id="Capa_1-2" data-name="Capa 1"><path class="cls-1" d="M174.19,646.09c-1.47,18.2-12.45,29.6-27.6,37.58-6.32,3.32-12.92,1.11-18-5.38-3-3.76-5.19-3.79-8.29-.44a81.14,81.14,0,0,1-16,13.49c-12.17,7.72-24.87,8.63-38,2.5A23.49,23.49,0,0,1,55,683c-6.48-12.8-9.71-26.12-5.93-40.45a134.39,134.39,0,0,1,8.29-24c5.29-11.06,12.79-20.19,23.45-26.5a4.48,4.48,0,0,0,3.72.37c6.58-2.52,13.46-2.61,20.37-2.11,10.71,4,18.4,10.81,20.67,22.56C125,620.61,121.16,626,114,629.08c-1.4.59-3.38,1-2.52,3.4-2,.76-4,1.64-6,2.26-5,1.51-9.35-.18-11.49-4.29s-.91-8.33,3.27-11.66c5.57.2,10.63-1.06,14-5.83,2.73-3.83,1.88-6.43-2.44-8.22-5.86-2.42-11.7-2-17.42.56-1.3.58-3,1.1-1.93,3.22-18.85,13.53-28.85,31.78-28.69,55.11.08,12.48,6.67,17.74,19.34,16.62a33.28,33.28,0,0,0,18.59-7.69c11.14-9.23,20.22-20.16,26.28-33.42,5.23-.73,3.95-5,4-8.08.13-5.59-.53-11.22,3.16-16.07,2.58-1.49,5.1-2.87,8.25-3.22,9-1,16.54,1.87,22.31,8.57,4.47,5.21,9.1,5.66,15,2.95,7.54-3.45,15.31-6.4,23-9.64,4.09-1.73,8-2.31,11.4,1.34.4,1.31.79,2.63,1.19,4-.07,1.83-.29,4,1.58,4.85s3-1,4.29-1.91a37.92,37.92,0,0,0,4.42-4c10-10.39,20.87-10.26,24.69,6-.63,5.24-1.46,10.46-1.78,15.71-.13,2.11-2,4.94,1.35,6.45a104.11,104.11,0,0,1-6.84,20.64c-2.53,5.83-5.62,8-9.42,6.68-4.57-1.57-7.38-7.38-5.88-12.7,1.4-4.92,3.1-9.75,4.66-14.62.63-.16,1.6-.12,1.85-.51a30.1,30.1,0,0,0,4.52-15c.1-3.18-2.43-3-4.51-1.25-4.55,3.94-8.07,8.75-11.4,13.71-.72,1.06-1.08,2.09.27,3q-9.43,13.13-18.88,26.25c-2.21,3.06-4.9,6.24-9,4.44s-6.89-5.34-6.58-10.58c.42-7.08,2.59-13.62,5.4-20,4.59-2.41,4.54-7.31,5.8-11.39.48-1.56-1.66-1.94-2.94-1.67a61.79,61.79,0,0,0-20.27,7.9C173.19,641.79,170.17,644.1,174.19,646.09Zm-38.11,18.64c.15,3.33,1.24,5.23,4.88,3.09,7.77-4.55,14.2-10.32,17.78-18.86,1.29-3.06.4-4.21-2.77-4.4-3.82-.21-7.61-.71-11.42-1-2.68-.23-4.4,1-5.29,3.55C137.27,652.79,137.19,658.84,136.08,664.73ZM149.87,625c-1.43.15-3.42-.27-3.55,1.73-.15,2.32,1.86,2.89,3.73,3,1.56.05,3.24-.66,3.34-2.3C153.53,625.1,151.49,625.13,149.87,625Z"/><path class="cls-2" d="M814.92,436c0,35.65.29,71.31-.27,107-.38,24.1-9.09,45.5-24.45,64.08-3.39,4.1-6.94,8-9.4,12.79L773,626c-1.1.26-2.06.68-2,2.06l.24,0-5.46,1.11c0-2.15-.15-4.3-.12-6.45,0-3.34-2.35-4.64-4.87-5.49-3-1-4.66,1-5.86,3.34-4,7.76-6.77,16.22-13.47,22.33l-5.67.25c-2.51-3.6-.13-7.06.46-10.5.8-4.62,1.26-8.94-3.36-11.94a3.19,3.19,0,0,1,2.4-2.31c10-3.46,19.18-8.09,27.24-15.11,18.64-16.21,29.84-36.4,30.22-61.11.68-45.28.23-90.57.24-135.86,2.18.79,2.72,2.61,3.14,4.63.87,4.18,1.87,8.34,2.84,12.5a13.92,13.92,0,0,0,10.3,10.88Z"/><path class="cls-3" d="M442,646.08c-1,2.07-1.93,4.24-3.17,6.19-3.68,5.81-5.64,12-4.89,18.94.27,2.54.12,5.06-2.82,6.27a6.84,6.84,0,0,1-7.43-1.29A13,13,0,0,1,419,666.11c-.1-3.6,0-7.21,0-11.73l-9.22,11c-2.14,2.54-4.16,5.21-6.45,7.62-2.64,2.78-5.76,6.23-9.77,4.27a11.66,11.66,0,0,1-6.47-10.5c-.13-5.6,2-10.72,3.54-16,.46-1.6,1.07-3.15,1.61-4.71,4.7-1.25,3.69-6,5.54-9a1.9,1.9,0,0,0-.44-2.66,2.08,2.08,0,0,0-2.63.79c-2.66,3.12-5.26,6.3-7.86,9.49-.73.9-.1,1.46.66,1.91C379.68,656,371.92,665.6,364,675c-2.81,3.31-6,6.69-11.07,4.06-4.09-2.12-6.09-7.58-4.55-12.64,2.08-6.83,4.46-13.56,6.71-20.33,1.73-.07,2.56-1.12,3.14-2.64,2.48-6.42,5.22-12.75,6.57-19.55.62-1.49,1.34-2.94,1.84-4.46,1.88-5.64,1.67-5.86-4.6-5.35-5.25-.79-6.61-4.59-7.08-9.1l2.23-4.93c5.62-4.08,11.26-3.74,16.91-.07l4.36,5.27c2.26,5.48,1.72,11.1.81,16.74-1.45,1.12-1.53,2.88-1.87,4.43-.31,1.37-1.06,3.21.42,4.1s2.65-.8,3.64-1.79c1.75-1.73,3.73-3.27,4.87-5.54,4.9-4.25,9.6-8.76,14.75-12.68,6.7-5.11,13-2.69,15.1,5.45.5,1.93.8,3.91,1.2,5.87-.44,2.2-1.62,5.3.36,6.29,2.2,1.1,3.47-2.2,5.12-3.62A9.13,9.13,0,0,0,424,623c4.07-3.87,8-7.93,12.24-11.58,6.32-5.4,10-5,15.64,1l.21,2.62c-.13,2.65-.25,5.3-.38,7.95-2.9,6.64-6.21,13.06-9.71,19.39C441.41,643.35,439.08,644.87,442,646.08Z"/><path class="cls-3" d="M348.33,646.11c-3.65,9.13-7.69,18-14.42,25.42-9.32,10.23-19.86,9-26.64-2.95a41.17,41.17,0,0,1-4.1-11.7c-.91-4.16-3-4.83-6.35-2.57-2.07,1.38-4.21,2.67-6.17,4.19a6.27,6.27,0,0,0-2.2,7.57A16,16,0,0,1,289,668c1.8,8.79-.17,15.24-5.53,18.19-6.47,3.57-19.08,2.46-24.12-2.12-8.71-7.9-9.62-18.36-1-26.13,4.66-4.22,5.09-7.33,1.59-11.82,1.79-1.19.5-2.48-.15-3.36-5.28-7.16-6.73-15.24-6-23.88L254,617c7.51-10.39,14.46-13,23.43-8.56a22.91,22.91,0,0,1,12.27,14.36c-2.52,5.49-3.44,5.59-8.52,1-5.24-4.76-8.41-5.1-13.18-1.42s-5.53,8.1-2.5,13.7a48.69,48.69,0,0,0,4.14,6.22c3.63,4.7,5.44,5,10.47,2.06,6.87-4,13.75-8.1,20.58-12.24,3.55-2.15,7.08-4.39,9.26-8.13,1.57-1.42,3.24-2.75,4.7-4.29,4.78-5.07,6.85-5,11.05.75.58.79,1.09,1.63,1.64,2.44.09,4.67-1.8,8.38-4.62,12.11-2.56,3.39-6.46,7-3.61,12.17-.29,2.76-.72,5.52-.8,8.29,0,1.19,0,2.84,1.51,3.34s2.38-.83,3.16-1.84a30.28,30.28,0,0,0,5-8.93c1.3-.68,2.84-1,3.54-2.55q4.86-10.65,9.74-21.27c.86-1.21,1.79-2.38,2.57-3.63,4.79-7.61,6.73-7.8,13-1.17a.66.66,0,0,0,.17.62c0,1.34,0,2.67.07,4q-4.72,9.85-9.45,19.71C347.15,644.68,347.05,645.6,348.33,646.11Zm-80.16,25.5a6.89,6.89,0,0,0,6,.45c2-.59,2.31-2.39,1.71-4-.81-2.16-2.28-1.07-3.49-.21C270.91,668.9,269.21,669.62,268.17,671.61Z"/><path class="cls-3" d="M741.45,642.9c6.7-6.11,9.51-14.57,13.47-22.33,1.2-2.36,2.9-4.34,5.86-3.34,2.52.85,4.91,2.15,4.87,5.49,0,2.15.07,4.3.12,6.45-.83,7.63-4.7,14.13-7.92,20.82a159.68,159.68,0,0,1-14.27,23.38c-8.79,12.3-19.18,11.33-25.6-2.36a21.61,21.61,0,0,0-1.35-2.2c-3.5,3.34-5.33,7.49-7.69,11.27-1.86,3-3.66,6-6.59,8-3.45,2.44-6.82,3.23-10.17-.37a38.91,38.91,0,0,0-4.71-3.69,10.27,10.27,0,0,1-4.1-9.65c1-8.91,2.15-17.81,3.24-26.71,2.39-1.49,2.65-4,3-6.42,1.06-6.46,2-12.93,3.05-19.39,1.28-3.43.17-5.56-3.25-7-3.72-1.54-5.48-4.59-5.36-8.66,2-2,4.6-2.55,7.19-3a21.5,21.5,0,0,0,11.17-6c6-5.71,6.7-5.69,12.33,0l.51,1.64c-.17,3.55-1.57,6.58-3.43,9.62-2.92,4.75-5.71,9.66-6.51,15.36-3.48,6.27-4.33,13.25-5.49,20.15a4.18,4.18,0,0,0,1.23,3.57l-1.89,13.82.7.31L708.26,648c2.84-1.25,4.66-3.44,6.25-6.06,4.19-6.9,8.57-13.69,12.88-20.52l5.49-.68c4.62,3,4.16,7.32,3.36,11.94-.59,3.44-3,6.9-.46,10.5-1,4.5-3,8.84-2.59,14.88C736.32,652.3,738.89,647.6,741.45,642.9Z"/><path class="cls-3" d="M591.23,648.07c3.76,2.69,8.12,4.5,11.31,8,6.75,7.46,5.79,16.52-2.44,22.27-10.57,7.36-28.13,7.78-38.84.75a20.39,20.39,0,0,1-9-13.85c-.81-4.33,2.66-7.09,6.76-5.4a19.45,19.45,0,0,1,4.13,2.73c6.91,5.29,14.91,5.55,23,.43-5.92-3.17-12.15-4.81-18.13-7.09-7.54-2.87-15.75-4.3-22-9.94,2.35-.62.91-1.55.1-2.2-6.7-5.38-9.21-12.65-9.51-20.93-.05-6.8,3.28-12.3,6.84-17.7a19.91,19.91,0,0,0,5.87-5.09c4.64-2.21,9.14-4.77,13.93-6.55,17.15-6.36,33.48-7.45,46.72,8.37.41.66.83,1.31,1.25,2,2.46,6,2.9,12-.48,17.83-8.35,8.06-15.68,8.48-21.7,1.24-1.71-5.86,2.38-7.84,6.46-10.12,2.13-1.18,6-1.6,5.43-4.82-.46-2.85-3.65-4-6.4-5a12,12,0,0,0-5.37-.92c-10,1.22-19.72,3.37-28.24,9-4.51,3-9.3,6-10.83,11.79-3.21,6.24-2.26,10.66,3.59,13.1,9.8,4.1,19.75,7.88,30.18,10.18Z"/><path class="cls-1" d="M773,626l7.8-6.19a32,32,0,0,1,20.74,3c3.05,1.58,3.55-1.51,4.36-3.29,3.49-7.71,6.81-15.5,10.29-23.22,1.67-3.69,3.4-7.7,8.69-6.09,4,1.2,5.47,6,4,11.29-3.33,12.24-8.85,23.62-13.6,35.31-3,7.27-5.74,14.75-3.47,22.75,3.26,11.46,8.15,11.74,16.77,7.17a21.67,21.67,0,0,0,3.67-2.58c3.24-2.73,6.54-4.09,10.21-.81,2.75,2.46,3.43,8.59,1.37,12.06-4.61,7.75-19.15,11.83-26.71,7-5.24-3.35-10.7-6.8-13.83-12.54-2.27-4.16-4.65-3.61-7.22-.47a86.34,86.34,0,0,1-9.07,10c-8.9,7.89-17.1,4.52-21.85-4.83-6.74-13.28-3.57-26.79,2.65-39.7,1.1-2.28,3.53-3.9,3.39-6.78l-.24,0C773,628.73,772.76,627.15,773,626Zm0,35.1c0,3.78.52,6,1.42,6.38a2.78,2.78,0,0,0,3.14-.89,121,121,0,0,0,21.18-28.17c1.59-2.89.39-5.16-3.09-5.78a13,13,0,0,0-12.23,4A38.33,38.33,0,0,0,773,661.14Z"/><path class="cls-3" d="M502.92,647.42c.2,4.1-1.61,7.77-2.57,11.62-.65,2.62-.76,4.2,2.87,3.42s7.71-1,9.49,3.21c1.56,3.67,4,7.88,0,11.52-3.63,3.31-7.86,6.16-13.05,3.82-7.37-3.32-14.54-7-14.75-16.82-.08-3.48-1.89-2.72-3.72-.91-4.84,4.8-9.37,9.92-14.93,14-4,2.88-8.06,5.89-13.19,3.17-5.3-2.8-7.54-7.81-8-13.53-.39-4.69.82-9.23,2.16-13.71.71-2.37,1.35-4.77,2-7.16l12.83-23c1.19-1.36,2.41-2.7,3.58-4.07,4.85-5.68,10.86-8.1,18.16-5.92,5.84,1.74,11.45,4.19,17.52,5.27,2.35.42,3.88,2.4,4.9,4.6.41,7.68-3.05,14.67-4,22.12A2.75,2.75,0,0,0,502.92,647.42Zm-16.11-18.77c-.19-2.14-1.66-2.49-3.18-2.61-3.27-.25-5.74,1.44-7.76,3.72A56.6,56.6,0,0,0,467.11,643c-.53,1.13-1.63,2.37-.32,3.6a3.73,3.73,0,0,0,3.71.69,8,8,0,0,0,4.56-2.82c3.65-4.7,7.25-9.44,10.85-14.18A13.3,13.3,0,0,0,486.81,628.65Z"/><path class="cls-3" d="M667.45,646.82c-.15,1.15-.2,2.32-.45,3.45-1.64,7.42-1.65,7.51,5.56,7.8,3.83.16,5.68,2.14,6.45,5.64s.36,6.58-3.28,8.45c-11.42,5.87-21.19.1-25.27-11-1.87-5.08-2.84-3.33-5.12-1a101.52,101.52,0,0,1-12.87,11.74c-9.39,6.85-18.94,3.14-21.86-8.06-1.47-5.63-1.45-10.71,1.41-15.75.81-.79,2-1.44,2.36-2.4,3.15-8,7.9-15.06,12-22.52,5.77-5.93,11-13.42,20.79-11.23,8.15,1.83,16.66,3,23.75,8.15.35,1,.69,1.92,1,2.88-1.25,5.25-2.52,10.49-3.74,15.74C667.56,641.37,666.24,644,667.45,646.82ZM636.31,646a70.12,70.12,0,0,0,13.16-15.43c.89-1.36,3.18-2.88,1.57-4.65s-4-1.25-6.06-.39a9.85,9.85,0,0,0-2.9,1.86c-5.43,5-9.79,10.75-12,17.9a11.37,11.37,0,0,0-2.21,4.9c-.23,1.11-.81,2.42.45,3.14,1,.59,1.77-.53,2.42-1.16C632.69,650.25,635.08,648.66,636.31,646Z"/><path class="cls-4" d="M814.92,436l-5.66-1.7A13.92,13.92,0,0,1,799,423.45c-1-4.16-2-8.32-2.84-12.5-.42-2-1-3.84-3.14-4.63l-2-.59a23.22,23.22,0,0,0-10-1.84c-2.14-1.56-4.56-1.54-7-1.29-2.7-1-3.94.78-5.14,2.69-1.85,3-3.56,6-5.65,8.81-3.76,5-8.12,9.53-15,9.4-7.75-.14-14.71-2.5-19.8-8.82-1.71-5.91.4-11.11,3-16.22a14.66,14.66,0,0,0,3.95-7c1.48-2.2,3.06-4.34,4.41-6.62,12-20.32,24.43-40.42,36.94-60.44,3.94-6.3,8.79-10.25,16.35-10.39,6.54,1.28,13.12,2.43,19.24,5.23q2.25,4,4.48,8.06a34.84,34.84,0,0,0,.37,4.47c6.14,28.59,11.52,57.34,16.7,86.12,1.53,8.5-.15,13.1-7.39,17.73Zm13.34-14.91c0-.49-.06-1.5-.22-2.48-5-30-11.06-59.87-17.4-89.65a8.42,8.42,0,0,0-3.06-5c-8.28-6.56-21.16-4.62-26.71,4.28Q764.76,354.12,749,380.18c-4.92,8.12-9.5,16.44-14.13,24.72-1.54,2.75-2.13,5.62.48,8.25,6,6,17,5.46,22.1-1.38,2.49-3.32,4.6-6.93,6.77-10.48,2.32-3.82,5.64-5.66,10.05-5,6.25.91,12.48,2,18.7,3.11,5.15.95,8.14,4,9,9.31.73,4.42,1.91,8.77,2.9,13.15a7.75,7.75,0,0,0,6.27,6.35,53.51,53.51,0,0,0,9.34,1.53C826.73,429.92,828.42,428,828.26,421.12Z"/><path class="cls-2" d="M826.37,435.65c7.24-4.63,8.92-9.23,7.39-17.73-5.18-28.78-10.56-57.53-16.7-86.12a33.13,33.13,0,0,1-.36-4.47c2.63,2.07,2.7,5.2,3.3,8.08,5.68,27.3,10.85,54.71,15.68,82.18,1,5.67,2.89,11.47-1.89,16.65,8,1.29,12.85-3.75,11.5-11.94-2.31-14.09-4.66-28.18-7.52-42.16-3.82-18.69-6.26-37.69-12-56,7,.8,9.83,3.35,11.5,10.87,5.91,26.75,10.65,53.72,15.66,80.65.57,3.09,1,6.21,1.5,9.33,1.33,8.66-3.06,13.43-11.8,12.71C837.15,437.3,831.92,435.23,826.37,435.65Z"/><path class="cls-5" d="M626.35,623.17c-4.07,7.46-8.82,14.56-12,22.52-.38,1-1.55,1.61-2.36,2.4l-20.78,0-7.39-1.85c.3-2.32-.56-3.75-2.92-4.45-3.67-1.09-7.27-2.39-10.89-3.64-10.72-3.71-10.72-3.71-5.27-13.21a3,3,0,0,0,.21-1c8-.44,16.11,1,24-1,6,7.24,13.35,6.82,21.7-1.24,3.88,2.53,8.18.74,12.26,1.22h1.94Z"/><path class="cls-6" d="M825.73,324.18c5.78,18.27,8.22,37.27,12,56,2.86,14,5.21,28.07,7.52,42.16,1.35,8.19-3.47,13.23-11.5,11.94,4.78-5.18,2.88-11,1.89-16.65-4.83-27.47-10-54.88-15.68-82.18-.6-2.88-.67-6-3.3-8.08q-2.25-4-4.49-8.06l2.5-.24C818.31,320.89,822.49,321.52,825.73,324.18Z"/><path class="cls-2" d="M502.92,647.42a2.75,2.75,0,0,1-.63-2.41c3.28-.59,7.17,1.4,9.81-1.93,2.88-3.63,2.32-11.79-.83-15.32-1.43-1.6-2.85-3.21-4.27-4.81l1,0,28.58-.06c.3,8.28,2.81,15.55,9.51,20.93.81.65,2.25,1.58-.1,2.2-13.06.32-26.21-1.8-39.16,1.59C505.64,647.91,504.24,647.49,502.92,647.42Z"/><path class="cls-5" d="M667.45,646.82c-1.21-2.84.11-5.45.73-8.11,1.22-5.25,2.49-10.49,3.74-15.74,6.92-.47,14,1.11,20.79-1.07-1,6.46-2,12.93-3.05,19.39-.4,2.4-.66,4.93-3,6.42C680.21,647.8,673.76,648.71,667.45,646.82Z"/><path class="cls-6" d="M888.06,610.79c.77,3.6-.8,6-3.3,8.68a30.75,30.75,0,0,0-7.82,16.4,41.09,41.09,0,0,1-5.45,15.92c-.79,1.26-1.29,3.7-3.42,2.83s-1.47-3.1-.92-4.82a255.56,255.56,0,0,1,9.42-24.64q3.73-8.43,7.21-16.95c.61-1.49.49-3.71,2.9-3.11,2.17.54,1.65,2.53,1.49,4.17C888.12,609.77,888.1,610.26,888.06,610.79Z"/><path class="cls-7" d="M174.19,646.09c-4-2-1-4.3.37-5.16a61.79,61.79,0,0,1,20.27-7.9c1.28-.27,3.42.11,2.94,1.67-1.26,4.08-1.21,9-5.8,11.39Z"/><path class="cls-7" d="M462.09,623l-12.83,23-7.24.07c-2.94-1.21-.61-2.73,0-3.79,3.5-6.33,6.81-12.75,9.71-19.39Z"/><path class="cls-7" d="M253.75,618.86c-.72,8.64.73,16.72,6,23.88.65.88,1.94,2.17.15,3.36l-12.13,0c-3.36-1.51-1.48-4.34-1.35-6.45.32-5.25,1.15-10.47,1.78-15.71,3.35,0,4.83-1.73,4.79-5A2.74,2.74,0,0,1,253.75,618.86Z"/><path class="cls-7" d="M348.33,646.11c-1.28-.51-1.18-1.43-.7-2.43q4.71-9.85,9.45-19.71l7.68-.08c-1.35,6.8-4.09,13.13-6.57,19.55-.58,1.52-1.41,2.57-3.14,2.64Z"/><path class="cls-6" d="M21.48,646.3c.14,3-1.18,5.65-2.47,8.26C14.4,663.94,8.81,672.85,5.78,683c-.38,1.26-.9,3.38-2.92,2.52-1.6-.68-1.51-2.56-1-4a65.69,65.69,0,0,1,3.47-8.25c4.84-9.21,9.83-18.34,14.76-27.5Z"/><path class="cls-7" d="M221,646c-1.35-.88-1-1.91-.27-3,3.33-5,6.85-9.77,11.4-13.71,2.08-1.79,4.61-1.93,4.51,1.25a30.1,30.1,0,0,1-4.52,15c-.25.39-1.22.35-1.85.51Z"/><path class="cls-6" d="M24.63,623.46c-3.48.17-4.68-1.85-4.7-5,0-4.18,2.81-7.47,6.44-7.35s5.38,2.41,5.4,5.81C31.79,621.07,29,623.47,24.63,623.46Z"/><path class="cls-6" d="M870.06,672.35a6.84,6.84,0,0,1-6.72,6.55c-2.92-.1-5.17-1.32-5.22-4.68,0-2.93,4-6.92,6.86-6.61S870.29,668.72,870.06,672.35Z"/><path class="cls-7" d="M387.52,646.53c-.76-.45-1.39-1-.66-1.91,2.6-3.19,5.2-6.37,7.86-9.49a2.08,2.08,0,0,1,2.63-.79,1.9,1.9,0,0,1,.44,2.66c-1.85,3-.84,7.8-5.54,9C390.65,646,389,645.67,387.52,646.53Z"/><path class="cls-8" d="M124.94,639.14c-6.06,13.26-15.14,24.19-26.28,33.42a33.28,33.28,0,0,1-18.59,7.69c-12.67,1.12-19.26-4.14-19.34-16.62-.16-23.33,9.84-41.58,28.69-55.11a31.78,31.78,0,0,1,7.76,10.27c-4.18,3.33-5.38,7.61-3.27,11.66s6.52,5.8,11.49,4.29c2-.62,4-1.5,6-2.26Z"/><path class="cls-9" d="M105.07,588c8,.46,13.08,5.4,17.08,11.49,2.25,3.42,5.18,6,7.88,8.94a4.19,4.19,0,0,0,5,1.06c11-4,20.38-.87,28,7.21,4.22,4.46,8.52,5.35,13.82,3.19,7.23-3,14.39-6.06,21.6-9.07a20.36,20.36,0,0,1,7.19-1.85c4.32-.19,6.73,1.41,6.38,6-3.43-3.65-7.31-3.07-11.4-1.34-7.65,3.24-15.42,6.19-23,9.64-5.91,2.71-10.54,2.26-15-2.95-5.77-6.7-13.31-9.58-22.31-8.57-3.15.35-5.67,1.73-8.25,3.22-2.45.17-4.34-1.39-6.5-2.14-2.27-11.75-10-18.54-20.67-22.56C105,589.51,105,588.74,105.07,588Z"/><path class="cls-8" d="M136.08,664.73c1.11-5.89,1.19-11.94,3.18-17.65.89-2.56,2.61-3.78,5.29-3.55,3.81.32,7.6.82,11.42,1,3.17.19,4.06,1.34,2.77,4.4-3.58,8.54-10,14.31-17.78,18.86C137.32,670,136.23,668.06,136.08,664.73Z"/><path class="cls-7" d="M97.18,618.79a31.78,31.78,0,0,0-7.76-10.27c-1.1-2.12.63-2.64,1.93-3.22,5.72-2.52,11.56-3,17.42-.56,4.32,1.79,5.17,4.39,2.44,8.22C107.81,617.73,102.75,619,97.18,618.79Z"/><path class="cls-7" d="M125.61,612.85c2.16.75,4,2.31,6.5,2.14-3.69,4.85-3,10.48-3.16,16.07-.06,3.08,1.22,7.35-4,8.08l-13.5-6.66c-.86-2.39,1.12-2.81,2.52-3.4C121.16,626,125,620.61,125.61,612.85Z"/><path class="cls-9" d="M213.23,618.94c3.69,1.71,6-.81,8.2-2.94a44,44,0,0,1,8.89-7.15c6.33-3.51,12.1-1.86,15.43,4.61,1.58,3.06,3,6.12,7.25,5.48,0,3.24-1.44,5-4.79,5-3.82-16.28-14.7-16.41-24.69-6a37.92,37.92,0,0,1-4.42,4c-1.26,1-2.55,2.73-4.29,1.91S213.16,620.77,213.23,618.94Z"/><path class="cls-7" d="M149.87,625c1.62.17,3.66.14,3.52,2.39-.1,1.64-1.78,2.35-3.34,2.3-1.87-.07-3.88-.64-3.73-3C146.45,624.69,148.44,625.11,149.87,625Z"/><path class="cls-10" d="M791,405.73l2,.59c0,45.29.44,90.58-.24,135.86-.38,24.71-11.58,44.9-30.22,61.11-8.06,7-17.29,11.65-27.24,15.11a3.19,3.19,0,0,0-2.4,2.31l-5.49.68-9.49.64c.29-1.09.31-2.38.91-3.26,3.65-5.31,4.28-10.24-1.18-14.85-.79-.67-1-2-1.5-3.07,3,.6,5.93-.55,8.87-.92,34.69-4.37,58.9-31.82,58.91-66.74q0-52.94,0-105.86a26.86,26.86,0,0,0-1-8.37Z"/><path class="cls-8" d="M741.45,642.9c-2.56,4.7-5.13,9.4-8.26,15.13-.45-6,1.54-10.38,2.59-14.88Z"/><path class="cls-11" d="M773,626c-.24,1.11,0,2.69-2,2.06C770.94,626.72,771.9,626.3,773,626Z"/><path class="cls-12" d="M254,617c-1.2-3.44.89-5.8,2.76-8.19,1.18-1.51,3.07-2.51,3.26-4.71,8.28-.48,16.51.74,24.76.84,23.37.27,46.75.09,70.12.09.47,4.51,1.83,8.31,7.08,9.1-.07,3.31-1.91,5.12-5,5.88a.66.66,0,0,1-.17-.62c.69-4.4-1.69-7-5.46-8.17-4-1.22-6.24,1.51-7.34,4.9-1.62,4.93-4.81,6.67-9.81,6-1.71-.24-3.66-.5-5.2.9l-1.67-.11c-.55-.81-1.06-1.65-1.64-2.44-4.2-5.71-6.27-5.82-11.05-.75-1.46,1.54-3.13,2.87-4.7,4.29-6.75-.43-13.61,1.09-20.25-1.17a22.91,22.91,0,0,0-12.27-14.36C268.48,604,261.53,606.56,254,617Z"/><path class="cls-13" d="M374.06,600a24.72,24.72,0,0,1,7.85-1c30.1,0,60.23-.77,90.29.29,24.93.87,49.84.29,74.75.73l2.36.12a19.73,19.73,0,0,1-5.87,5.08C529.19,604,515,606,500.76,606c-16.59-.07-33.17,0-49.76,0a12.89,12.89,0,0,0-3.33-.9q-34.64,0-69.25.21Z"/><path class="cls-10" d="M451,605.94c16.59,0,33.17-.06,49.76,0,14.23.06,28.43-2,42.68-.79-3.56,5.41-6.89,10.91-6.84,17.71l-28.58.06c-2.12-5.14-5-9.16-11.37-9.36-2.55-.08-5.06-1.31-7.49-2.45-7.51-3.52-15.15-4.74-21.24,2.4-4.55,5.34-8.87,7-14.41,1.8-.32-.3-.95-.25-1.43-.37l-.21-2.62Z"/><path class="cls-13" d="M354.92,605c-23.37,0-46.75.18-70.12-.09-8.25-.1-16.48-1.32-24.76-.84-24.65,0-49.32.65-73.93-.32-17.51-.7-34.58-4.66-49-15.77a30,30,0,0,1-2.66-2.24,14,14,0,0,1-1.4-2.16c3.2-.06,4.33,2.32,6,3.46,14.89,10,31.59,14.27,49.15,13.81,38.6-1,77.22-.2,115.8-1.12,15.62-.38,31.25-.31,46.87-.74,2.17-.06,4.34-.11,6.3,1.08Z"/><path class="cls-12" d="M451,605.94l.87,6.39c-5.62-6-9.32-6.36-15.64-1C432,615,428.06,619.08,424,623a14.15,14.15,0,0,1-6.65-1.12c-.4-2-.7-3.94-1.2-5.87-2.09-8.14-8.4-10.56-15.1-5.45-5.15,3.92-9.85,8.43-14.75,12.68-2.35-.44-4.87.17-7.06-1.2.91-5.64,1.45-11.26-.81-16.74q34.62-.12,69.25-.21A12.89,12.89,0,0,1,451,605.94Z"/><path class="cls-9" d="M452.08,615c.48.12,1.11.07,1.43.37,5.54,5.15,9.86,3.54,14.41-1.8,6.09-7.14,13.73-5.92,21.24-2.4,2.43,1.14,4.94,2.37,7.49,2.45,6.39.2,9.25,4.22,11.37,9.36l-1,0q-.37,0-.75-.06c-1-2.2-2.55-4.18-4.9-4.6-6.07-1.08-11.68-3.53-17.52-5.27-7.3-2.18-13.31.24-18.16,5.92-1.17,1.37-2.39,2.71-3.58,4.07l-10.39-.11C451.83,620.25,452,617.6,452.08,615Z"/><path class="cls-9" d="M357,620c3.08-.76,4.92-2.57,5-5.88,6.27-.51,6.48-.29,4.6,5.35-.5,1.52-1.22,3-1.84,4.46l-7.68.08C357.05,622.63,357,621.3,357,620Z"/><path class="cls-7" d="M379.23,622c2.19,1.37,4.71.76,7.06,1.2-1.14,2.27-3.12,3.81-4.87,5.54-1,1-2,2.75-3.64,1.79s-.73-2.73-.42-4.1C377.7,624.87,377.78,623.11,379.23,622Z"/><path class="cls-7" d="M417.34,621.83A14.15,14.15,0,0,0,424,623a9.13,9.13,0,0,1-1.17,1.55c-1.65,1.42-2.92,4.72-5.12,3.62C415.72,627.13,416.9,624,417.34,621.83Z"/><path class="cls-7" d="M289.72,622.75c6.64,2.26,13.5.74,20.25,1.17-2.18,3.74-5.71,6-9.26,8.13-6.83,4.14-13.71,8.19-20.58,12.24-5,3-6.84,2.64-10.47-2.06a48.69,48.69,0,0,1-4.14-6.22c-3-5.6-2.14-10.14,2.5-13.7S276,619,281.2,623.73C286.28,628.34,287.2,628.24,289.72,622.75Z"/><path class="cls-7" d="M327.36,622.82l1.67.11c3.92,2.21,8.23.33,12.28,1.21q-4.87,10.64-9.74,21.27c-.7,1.53-2.24,1.87-3.54,2.55-3,0-6,.41-8.9-.86-2.85-5.22,1.05-8.78,3.61-12.17C325.56,631.2,327.45,627.49,327.36,622.82Z"/><path class="cls-9" d="M341.31,624.14c-4.05-.88-8.36,1-12.28-1.21,1.54-1.4,3.49-1.14,5.2-.9,5,.71,8.19-1,9.81-6,1.1-3.39,3.33-6.12,7.34-4.9,3.77,1.13,6.15,3.77,5.46,8.17-6.23-6.63-8.17-6.44-13,1.17C343.1,621.76,342.17,622.93,341.31,624.14Z"/><path class="cls-8" d="M319.13,647.1c2.87,1.27,5.9.89,8.9.86a30.28,30.28,0,0,1-5,8.93c-.78,1-1.63,2.35-3.16,1.84s-1.55-2.15-1.51-3.34C318.41,652.62,318.84,649.86,319.13,647.1Z"/><path class="cls-8" d="M268.17,671.61c1-2,2.74-2.71,4.18-3.73,1.21-.86,2.68-2,3.49.21.6,1.58.28,3.38-1.71,4A6.89,6.89,0,0,1,268.17,671.61Z"/><path class="cls-7" d="M717.9,622l9.49-.64c-4.31,6.83-8.69,13.62-12.88,20.52-1.59,2.62-3.41,4.81-6.25,6.06l-7.16-.34a4.18,4.18,0,0,1-1.23-3.57c1.16-6.9,2-13.88,5.49-20.15C709.63,623.88,714,624.63,717.9,622Z"/><path class="cls-9" d="M717.9,622c-3.88,2.6-8.27,1.85-12.54,1.88.8-5.7,3.59-10.61,6.51-15.36,1.86-3,3.26-6.07,3.43-9.62a5,5,0,0,1,.87.1l0,1.82c.48,1,.7,2.4,1.49,3.07,5.46,4.61,4.83,9.54,1.18,14.85C718.21,619.65,718.19,620.94,717.9,622Z"/><path class="cls-9" d="M684.1,606.27c-.4-3.62,1.4-5.63,4.78-6.42,5.94-1.39,11.21-3.85,15.36-8.54,1.55-1.75,3.66-2.93,6.23-1.55,3,1.62,5,3.77,4.32,7.53-5.63-5.71-6.37-5.73-12.33,0a21.5,21.5,0,0,1-11.17,6C688.7,603.72,686.07,604.26,684.1,606.27Z"/><path class="cls-8" d="M701.1,647.63l7.16.34-8.35,13.79-.7-.31Z"/><path class="cls-9" d="M589,622.94c-7.94,2-16,.57-24,1l-14.9-1c1.53-5.83,6.32-8.79,10.83-11.79,8.52-5.67,18.26-7.82,28.24-9a12,12,0,0,1,5.37.92c2.75.93,5.94,2.12,6.4,5,.52,3.22-3.3,3.64-5.43,4.82C591.41,615.1,587.32,617.08,589,622.94Z"/><path class="cls-9" d="M549.31,600.08,547,600c.25-2.29,2-3.31,3.69-4.4a67.51,67.51,0,0,1,34.93-10.48c10.21-.29,18,5.12,24.47,12.57a4.69,4.69,0,0,1,.91,3.28l-1,1c-13.24-15.82-29.57-14.73-46.72-8.37C558.45,595.31,554,597.87,549.31,600.08Z"/><path class="cls-7" d="M550.08,622.94l14.9,1a3,3,0,0,1-.21,1c-5.45,9.5-5.45,9.5,5.27,13.21,3.62,1.25,7.22,2.55,10.89,3.64,2.36.7,3.22,2.13,2.92,4.45-10.43-2.3-20.38-6.08-30.18-10.18C547.82,633.6,546.87,629.18,550.08,622.94Z"/><path class="cls-9" d="M616.94,604c4.08,5.66,5.3,12.24,6,19-4.08-.48-8.38,1.31-12.26-1.22,3.38-5.86,2.94-11.82.48-17.83Z"/><path class="cls-13" d="M616.94,604l-5.73-.09c-.42-.66-.84-1.31-1.25-2l1-1c16.53.57,33.13-1.1,49.6,1.55C646,603,631.51,604.47,616.94,604Z"/><path class="cls-8" d="M773,661.14a38.33,38.33,0,0,1,10.42-24.42,13,13,0,0,1,12.23-4c3.48.62,4.68,2.89,3.09,5.78a121,121,0,0,1-21.18,28.17,2.78,2.78,0,0,1-3.14.89C773.52,667.15,773,664.92,773,661.14Z"/><path class="cls-7" d="M486.81,628.65a13.3,13.3,0,0,1-.9,1.59c-3.6,4.74-7.2,9.48-10.85,14.18a8,8,0,0,1-4.56,2.82,3.73,3.73,0,0,1-3.71-.69c-1.31-1.23-.21-2.47.32-3.6a56.6,56.6,0,0,1,8.76-13.19c2-2.28,4.49-4,7.76-3.72C485.15,626.16,486.62,626.51,486.81,628.65Z"/><path class="cls-7" d="M506.25,622.89q.38,0,.75.06c1.42,1.6,2.84,3.21,4.27,4.81,3.15,3.53,3.71,11.69.83,15.32-2.64,3.33-6.53,1.34-9.81,1.93C503.2,637.56,506.66,630.57,506.25,622.89Z"/><path class="cls-7" d="M630,645.32c2.25-7.15,6.61-12.89,12-17.9a9.85,9.85,0,0,1,2.9-1.86c2.06-.86,4.52-1.32,6.06.39s-.68,3.29-1.57,4.65A70.12,70.12,0,0,1,636.31,646Z"/><path class="cls-9" d="M624.93,622.92c5.85-11.06,15.53-19.59,31-12.6,3.13,1.41,6.71,1.81,10,2.82s5.52,3.05,4.94,7c-7.09-5.1-15.6-6.32-23.75-8.15-9.75-2.19-15,5.3-20.79,11.23Z"/><path class="cls-8" d="M630,645.32l6.27.71c-1.23,2.63-3.62,4.22-5.61,6.17-.65.63-1.39,1.75-2.42,1.16-1.26-.72-.68-2-.45-3.14A11.37,11.37,0,0,1,630,645.32Z"/><path class="cls-14" d="M828.26,421.12c.16,6.86-1.53,8.8-7.79,8.6a53.51,53.51,0,0,1-9.34-1.53,7.75,7.75,0,0,1-6.27-6.35c-1-4.38-2.17-8.73-2.9-13.15-.89-5.3-3.88-8.36-9-9.31-6.22-1.14-12.45-2.2-18.7-3.11-4.41-.64-7.73,1.2-10.05,5-2.17,3.55-4.28,7.16-6.77,10.48-5.12,6.84-16.09,7.41-22.1,1.38-2.61-2.63-2-5.5-.48-8.25,4.63-8.28,9.21-16.6,14.13-24.72q15.78-26.06,31.91-51.92c5.55-8.9,18.43-10.84,26.71-4.28a8.42,8.42,0,0,1,3.06,5C817,358.77,823,388.61,828,418.64,828.2,419.62,828.22,420.63,828.26,421.12Zm-50.45-50c0,6.68,4.58,11.45,11.13,11.48,6.06,0,11.41-5,11.54-10.83S795,360.16,789,360.19A11,11,0,0,0,777.81,371.13Z"/><path class="cls-6" d="M728.32,414.68c-.94.3-1.87.61-2.81.9-1.15.35-2.39.52-3.24-.41-1-1.14.11-2.16.63-3.06,2.07-3.61,2.39-7.09-.44-10.44-3.63-9.07-8.37-17.64-12.65-26.43-.14-4.07,1.91-6.63,5.2-8.92,13.66-9.5,18.06-28.05,10.06-41.36-4.37-9-10.74-16.18-19.82-20.72,5.84-.46,10.57,2.63,15.57,4.87,1.34,2.19,3.67,3.32,5.46,5,8,7.61,12.38,16.58,10.78,28-1.46,10.41-7.43,17.87-15.29,24.14-2.17,1.74-4.58,3.51-3.28,6.49,3.84,8.79,7.28,17.79,12.83,25.72C728.72,403.57,726.61,408.77,728.32,414.68Z"/><path class="cls-5" d="M731.32,398.46c-5.55-7.93-9-16.93-12.83-25.72-1.3-3,1.11-4.75,3.28-6.49,7.86-6.27,13.83-13.73,15.29-24.14,1.6-11.4-2.76-20.37-10.78-28-1.79-1.7-4.12-2.83-5.46-5,10.24,1.38,23.52,13.13,26,26.73,2.56,14.2-4.48,24.71-14.76,33.21-3.91,3.23-4.47,6.11-2.46,10.24s3.81,8.13,5.7,12.2A14.66,14.66,0,0,1,731.32,398.46Z"/><path class="cls-5" d="M791,405.73q-4,6.61-8.08,13.24a17.93,17.93,0,0,0-5.09,4.92c-5.07.54-10.3,2.74-14.93-1.39,4.77-.68,8.27-3.52,11-7.19s4.75-7.6,7.1-11.42A23.22,23.22,0,0,1,791,405.73Z"/><path class="cls-6" d="M781,403.89c-2.35,3.82-4.47,7.81-7.1,11.42s-6.19,6.51-11,7.19l-2-.34V420c6.19-4.41,8.71-11.57,13-17.39C776.39,402.35,778.81,402.33,781,403.89Z"/><path class="cls-4" d="M606.93,402.6c-4.55,2.72-9.49,2.51-14.53,2.14-17.73-1.31-35.46-2.68-53.2-3.72-14-.82-18.75-5.68-18-19.77,1.05-20.41,2.74-40.79,2.67-61.25,1.95-9.23.61-18.84,3.13-28,3-4.35,7.27-6.18,12.42-6.1,22.1.32,44.12,2.12,66.11,4.24a19,19,0,0,1,8.71,3.5c.31,2.16,2,3.59,2.91,5.44,2,10.19,1.07,19.28-9.23,24.91h0l-24.9-.25c-3.43-1.46-7-.59-10.55-.72-2.36-1.51-4.92-1.17-7.48-.76-1.53-.07-3.51-.9-3.92,1.47-.34,1.92.84,3,2.83,3l8,.19c3.22,1.71,6.65,1.15,10,.9,5.78.84,11.63,1.41,16.76,4.61l2.91,5.66c.13,2,.37,3.92.4,5.89.17,10.87-2.42,15.21-11.21,18.94l-9.88.39c-3.62-.44-7.18-1.6-10.9-.95a18.38,18.38,0,0,0-7.46-.18c-1.65-.33-3.41-.66-4.14,1.41s.88,2.5,2.34,3c2.72.64,5.44,1.28,8.26.7,4.54.58,9,1.84,13.69,1.07,2,.23,3.89.49,5.84.68,7,.69,14.13.49,20.44,4.31l3.81,6.57c.64,7.43.51,14.71-4.16,21.09C608.11,401.54,607.52,402.07,606.93,402.6Zm-58.08-111,0,.3h-7c-8.61,0-10.26,1.29-10.71,9.95-1.38,26.26-2.68,52.53-3.7,78.81-.46,12.06,1,13.25,13.14,14.09q27.65,1.9,55.29,3.83c6.45.45,9.72-2,11-8.26,2.1-10.36-1.3-14.66-11.82-15.32-11.46-.72-22.92-1.4-34.34-2.53-5.9-.59-8.73-4-8.38-8.62.4-5.45,3.62-8.13,10-7.93,7.65.25,15.29.92,22.94,1,8.54.16,10.76-2.43,11.19-12.14.33-7.59-2.14-10.09-10.38-10.72-8-.61-15.93-1.22-23.88-2-5.57-.56-8.67-5.18-7-10.32,1.52-4.69,5.14-6.16,9.8-5.86,12.29.79,24.58,1.74,36.89,2.16,6.48.22,9.74-3.18,10.19-9.2.64-8.74-1.21-12.27-8.47-13C585.36,294.15,567.09,293,548.85,291.59Z"/><path class="cls-4" d="M709.81,375.24c4.28,8.79,9,17.36,12.65,26.43.13,10.94-4.31,15.41-15.17,15.35-10.45,0-18.22-4.94-24.13-13.25C681.65,398,678.55,393,675.61,388c-1.73-4.3-3.25-8.72-6.59-12.15-3.22-1.95-3.26.78-3.53,2.58-.9,6.08-1.53,12.19-2.43,18.27-1.4,9.43-5.58,13.14-15,13-6.5-.13-13-.62-18.08-5.62A27.87,27.87,0,0,1,628,389.91c.4-3.94.53-7.91.77-11.87.58-4.62,1.28-9.22,1.71-13.85C631.72,350.81,634,337.51,634,324q1.86-11.47,3.74-22.95c3.37-5.48,8.73-7.07,14.58-6.58,14.52,1.21,28.88,3.67,43.22,6.2a25.68,25.68,0,0,1,9.74,3.55c9.08,4.54,15.45,11.67,19.82,20.72a3.41,3.41,0,0,0-.12,1q5.68,25.5-15.29,41.05C706,369.69,706.89,372.55,709.81,375.24ZM634,387.86c-.69,12.59,1.36,14.84,11.5,15.22,1.49.06,3-.1,4.49,0,3.82.15,5.92-1.89,6.69-5.38.6-2.75,1-5.56,1.35-8.36.7-4.93.93-10,2.08-14.8,1.79-7.46,8-8.91,13.37-3.32a19.41,19.41,0,0,1,3,4.57c3.7,7.26,7.49,14.49,10.91,21.88,3.83,8.26,10.36,12.29,19.13,13.14,3.23.32,6.52.13,8.63-2.74s1.12-6-.35-8.95c-3.72-7.43-7.53-14.83-11.12-22.33s-2.89-10.14,3.61-15.33c9.27-7.41,15-16.74,13.08-29-2.11-13.1-10.66-21.62-23-25.14-14.7-4.2-30-5.72-45.25-7.07-7-.62-9.41,1.77-10.13,8.71C639.12,336.08,636.44,363.22,634,387.86Z"/><path class="cls-5" d="M637.71,301.07Q635.84,312.55,634,324c-8.68,2.52-17.36,1.66-26,0h0c3,.61,5.26-1.42,7.92-2,6.09,2,12.29-2.29,13.07-9.4.59-5.27.63-10.58-2.08-15.46C631,296.91,634.16,299.53,637.71,301.07Z"/><path class="cls-6" d="M520.71,291.22c2.32,4.91,3.74,10.1,2.63,15.44-1.5,7.12-5.47,9.94-13.22,10.32,1-1.67,2.13-3.3,3.06-5,3.41-6.36,2.62-14.36-1.8-18.66l-2.75-5.61A13.76,13.76,0,0,1,520.71,291.22Z"/><path class="cls-6" d="M626.81,297.13c2.71,4.88,2.67,10.19,2.08,15.46-.78,7.11-7,11.41-13.07,9.4,6.37-7.1,6.95-17.27,1.31-22.91-.9-1.85-2.6-3.28-2.91-5.44C619,292.82,623,294.77,626.81,297.13Z"/><polygon class="cls-13" points="779.61 285.13 779.27 285.13 779.44 284.77 779.61 285.13"/><path class="cls-4" d="M635.78,557.32c-.36,4.67-3,6-7.44,5.71-16.22-1.2-32.51-1.46-48.65-3.68L584,551a9,9,0,0,0,4.27-5.77c5.53-6.43,8.48-14.26,11.42-22A220.06,220.06,0,0,0,611.61,479c1.44-9.24,2.18-18.78-6.87-25.46a4.24,4.24,0,0,1-1.39-5c.69-2.19,2.65-2.31,4.48-2.4,10-.49,19.92,1,29.89,1.27,6.14.19,12.28.6,18.42.9,3.08.15,6,.69,7.88,3.47,0,.7,0,1.4,0,2.1-1.15,1.2-2.07,2.94-3.47,3.5-10.37,4.14-14.35,13.29-16.91,22.79-4.62,17.17-8.77,34.5-12.16,52-1.51,7.78-2.64,16.31,3.39,23.38ZM621.69,452.13V452c-1.67,0-3.33.05-5,0-2.8-.11-3.18,1-1.87,3.27,4.14,7.19,4.42,15.18,3,22.84-4.79,25.38-10.58,50.53-25.62,72.31-1.9,2.75-1.28,3.75,1.79,4l29.35,2.23c3.48.27,4.52-1.08,3.29-4.45a34.49,34.49,0,0,1-1-19.2c2.81-13.5,5.67-27,8.75-40.44,3-12.83,6.1-25.6,15.67-35.6,2.37-2.47,0-2.92-2-3.05Z"/><path class="cls-13" d="M777.82,423.89a17.93,17.93,0,0,1,5.09-4.92,26.76,26.76,0,0,1,1,8.36q-.06,52.94,0,105.86c0,34.92-24.22,62.37-58.91,66.74-2.94.37-5.82,1.52-8.87.92,0-.61,0-1.22,0-1.82,28.15-3.18,54.53-20.33,60.43-50.83a57.78,57.78,0,0,0,1.26-10.87Q777.95,480.61,777.82,423.89Z"/><path class="cls-5" d="M680,461c-5.53,2.18-8.26,7-10.85,11.81-5.43,10.11-7.27,21.36-9.63,32.38-2.84,13.28-7.36,26.24-7.61,40a33.45,33.45,0,0,0,2.76,13.06C656.48,563,656,564,651,563.9c-2.08,0-4.84,1.34-6-1.86,2.51-2,1.4-4,.28-6.18a29.41,29.41,0,0,1-2.73-19.34c3.07-17.66,7.23-35.09,11.74-52.41,3-11.36,7.29-22.22,19-27.87.79-.38,1.24-1.5,1.84-2.28l4.58,1C680.61,456.94,681.36,458.91,680,461Z"/><path class="cls-6" d="M584,551l-4.34,8.39L573,560.89c0-2.06,2.06-2.3,3.16-3.37,2.14-2.07,1.9-3.57-.87-4.66-1.87-4.44-6.77-6.57-8.46-11.13.46-2.12-.73-3.87-1.33-5.73-1.91-5.82-3.86-11.64-6-17.38-1.46-4-.76-6.94,2.75-9.52,4-3,7.8-6.18,11.54-9.46,8.28-7.29,11.32-16.47,9.4-27.3-.53-3-.49-6.36-3.69-8.2-4-7.94-10.8-13-18.11-17.49,6.3.18,11.76,3,17.3,5.53a22.12,22.12,0,0,0,1.85,1.64c14.45,10.48,16.06,30.39,3.27,42.84-4.27,4.17-8.94,7.92-13.51,11.78-1.84,1.56-3.93,3.27-3,5.78C571.87,526.91,573.75,540.86,584,551Z"/><path class="cls-5" d="M584,551c-10.28-10.1-12.16-24.05-16.74-36.74-.9-2.51,1.19-4.22,3-5.78,4.57-3.86,9.24-7.61,13.51-11.78,12.79-12.45,11.18-32.36-3.27-42.84a22.12,22.12,0,0,1-1.85-1.64c17.34,1.37,28.41,21.58,21.16,38.18-3.29,7.53-9.29,12.41-15.38,17.23-8.55,6.75-8.68,6.63-5.18,16.92,1.86,5.5,3.85,11,5.8,16.42.62,1.74,1.36,3.42,3.19,4.26A9,9,0,0,1,584,551Z"/><path class="cls-6" d="M675.08,454c-.6.78-1.05,1.9-1.84,2.28-11.7,5.65-16,16.51-19,27.87-4.51,17.32-8.67,34.75-11.74,52.41a29.41,29.41,0,0,0,2.73,19.34c1.12,2.14,2.23,4.22-.28,6.18-4.18.61-7.29-.84-9.18-4.71l-.9-1.79c-.94-6.75-1.84-13.47-.57-20.29q4.62-25,11.34-49.51c3.12-11.45,7.15-22.61,19.06-28.42,2.32-1.14,1.41-2.63-.68-3.41,0-.7,0-1.4,0-2.1C667.72,452.45,672,450.3,675.08,454Z"/><path class="cls-4" d="M680,461c1.41-2.06.66-4-.29-6-3.07-12.44-3.07-12.46,10.09-14.58,4.64-.74,9.3-1.33,12.22,3.71l.13,1.36c.33,2.36-1.63,5.8,2.92,6.18,4.58-.14,7.49,1.92,8.52,6.46,0,5.88-.46,11.66-3.62,16.83-2.14,3.49-4.83,6.33-9,7.48-6.48,1.8-9.92-.72-10-7.41,0-1.88.75-3.95-2.62-4.12C678.7,470.44,678.39,469.93,680,461ZM697.24,471c.36,1.43-1.48,3.92,1.29,4.85,1.94.66,3.46-.79,4.68-2.21,3.31-3.87,4.27-8.58,4.43-13.47.07-2.33-1.68-3.25-3.71-3-5.54.67-7.38-2.3-7.8-7.19-.39-4.47-1.85-4.92-8.33-3.72-4.24.78-3.12,3.1-2.36,5.86a25.15,25.15,0,0,1,.8,7.38c-.1,3.28.55,4.85,4.43,4.42C696.57,463.29,697.5,464.51,697.24,471Z"/><path class="cls-5" d="M520.07,519a27.27,27.27,0,0,1,8.1,12.78c-3.41,6.36-2.84,12.68.17,19,2.86,6,2.09,7.26-4.67,7.15-5.61-.09-11.28.77-16.8-1,1.54-1.44,3.7-2.48,3.32-5.16a22.28,22.28,0,0,0,3.74,3.18,5.38,5.38,0,0,0,6.48-.62c1.63-1.63-.15-3.35-1.11-4.82a19.39,19.39,0,0,1-3.15-9.3C515.67,532.83,517.35,525.78,520.07,519Z"/><path class="cls-6" d="M713.54,458.12c-1-4.54-3.94-6.6-8.52-6.46-.07-2.48.25-5.15-2.92-6.18l-.13-1.36a54.94,54.94,0,0,1,7.64-.64,4,4,0,0,1,3.61,3.43c-.45,7.78-.32,7.92,7,8.25.83,0,1.65.12,2.47.19l2.13,2.69c.55,9-1.56,17-9.13,22.74-.66.1-1.31.23-2,.31-1.26.15-2.76,1-3.55-.63-.61-1.23.49-2.18,1.18-3.07,3.27-4.29,4.49-9.22,4.53-14.5C715.91,461,716.21,458.77,713.54,458.12Z"/><path class="cls-5" d="M715.71,480.78c7.57-5.76,9.68-13.72,9.13-22.74,9.26-.06,10.78,1.68,9,10.75-.87,4.56-2.12,9.13-5.77,12.29C724.06,484.6,719.77,484.21,715.71,480.78Z"/><path class="cls-6" d="M669,375.8c3.34,3.43,4.86,7.85,6.59,12.15-.57,3.05-1.24,6.08-1.69,9.15-1.14,7.71-4.24,10.59-12,10.95,4.17-8.19,4.1-17.25,5.37-26C667.6,379.89,667.79,377.69,669,375.8Z"/><path class="cls-2" d="M628.79,378c-.24,4-.37,7.93-.77,11.87A27.87,27.87,0,0,0,629.93,404c-6.91,3.76-14,1.42-21.09.7-1.05-.11-1.49-1.18-1.91-2.08L608.7,401l2.54-.11c.61,2.58,2.55,2.33,4.33,1.81a10,10,0,0,0,6.45-5.77c3-6.64,2.49-13.19-.35-19.71Z"/><path class="cls-5" d="M661.93,408.05c7.75-.36,10.85-3.24,12-10.95.45-3.07,1.12-6.1,1.69-9.15,2.94,5.07,6,10.07,7.55,15.82C678.91,411.23,667.56,413.52,661.93,408.05Z"/><path class="cls-5" d="M722.71,455.35c-.82-.07-1.64-.16-2.47-.19-7.34-.33-7.47-.47-7-8.25.65,0,1.3.06,1.95.07C722.56,447.12,723.18,447.81,722.71,455.35Z"/><path class="cls-15" d="M575.3,552.86c2.77,1.09,3,2.59.87,4.66-1.1,1.07-3.12,1.31-3.16,3.37-1.74,1.72-2.33.07-3.1-1C571.52,557.36,574.57,556,575.3,552.86Z"/><path class="cls-5" d="M760.89,420v2.17c-.52.52-1.24.8-1.48-.05C759.1,421,760,420.4,760.89,420Z"/><path class="cls-13" d="M128.05,578l1.41.87-.51.52-.87-1.4Z"/><path class="cls-13" d="M128.08,578c-.2-.22-.41-.43-.61-.64l.43-.23.15.88Z"/><path class="cls-4" d="M777.81,371.13A11,11,0,0,1,789,360.19c6,0,11.6,5.68,11.47,11.59s-5.48,10.86-11.54,10.83C782.39,382.58,777.77,377.81,777.81,371.13Zm7.87,4.15c3.09,2.14,6.24,1.92,7.87-1.39,1.41-2.85.75-5.88-3.32-6.57-2.87-1.71-4.66.05-5.9,2.2S783,373.88,785.68,375.28Z"/><path class="cls-15" d="M709.81,375.24c-2.92-2.69-3.79-5.55-.15-8.25q21-15.58,15.29-41.05a3.41,3.41,0,0,1,.12-1c8,13.31,3.6,31.86-10.06,41.36C711.72,368.61,709.67,371.17,709.81,375.24Z"/><path class="cls-14" d="M548.85,291.59c18.24,1.39,36.51,2.56,54.72,4.3,7.26.69,9.11,4.22,8.47,13-.45,6-3.71,9.42-10.19,9.2-12.31-.42-24.6-1.37-36.89-2.16-4.66-.3-8.28,1.17-9.8,5.86-1.67,5.14,1.43,9.76,7,10.32,8,.81,15.91,1.42,23.88,2,8.24.63,10.71,3.13,10.38,10.72-.43,9.71-2.65,12.3-11.19,12.14-7.65-.13-15.29-.8-22.94-1-6.37-.2-9.59,2.48-10,7.93-.35,4.61,2.48,8,8.38,8.62,11.42,1.13,22.88,1.81,34.34,2.53,10.52.66,13.92,5,11.82,15.32-1.28,6.29-4.55,8.71-11,8.26q-27.65-1.94-55.29-3.83c-12.17-.84-13.6-2-13.14-14.09,1-26.28,2.32-52.55,3.7-78.81.45-8.66,2.1-9.94,10.71-9.95h7Z"/><path class="cls-12" d="M628.79,378l-7.12-.83c-3.77-2.73-7.87-4.37-12.63-3.87-6.31-3.82-13.47-3.62-20.44-4.31-2-.19-3.89-.45-5.84-.68a5.19,5.19,0,0,1-1.79-5l9.88-.39c1.91,1.16,4,1.12,6.14,1,2,.26,3.94.45,5.89.79C616,367,621.71,363,623.7,350.12c1.28-8.2-3.7-13.93-12.06-13.89-3.73-3.21-8-4.7-12.89-3.77-5.13-3.2-11-3.77-16.76-4.61.35-1.37.69-2.74,1-4.11l24.9.25c8.68,1.69,17.36,2.55,26,0,.07,13.49-2.25,26.79-3.47,40.17C630.07,368.82,629.37,373.42,628.79,378Z"/><path class="cls-6" d="M609,373.34c4.76-.5,8.86,1.14,12.63,3.87,2.84,6.53,3.37,13.08.35,19.72a10,10,0,0,1-6.45,5.77c-1.78.52-3.72.77-4.33-1.81,5.12-6.64,5.61-13.64,1.61-21Z"/><path class="cls-6" d="M598.75,332.46c4.93-.93,9.16.56,12.89,3.77.65,2,1.76,4,1.89,6.09.74,12-1.9,19.63-13.68,19.71,5-5.28,5.67-11.77,5-18.54-.2-2.16-.09-4.84-3.23-5.37Z"/><path class="cls-15" d="M601.66,338.12c3.14.53,3,3.21,3.23,5.37.63,6.77,0,13.26-5,18.54-1.44-.06-2.67.18-2.86,2-2.12.09-4.23.13-6.14-1,8.79-3.73,11.38-8.07,11.21-18.94C602,342,601.79,340.08,601.66,338.12Z"/><path class="cls-15" d="M617.13,299.08c5.64,5.64,5.06,15.81-1.31,22.91-2.66.58-5,2.61-7.92,2C618.2,318.36,619.14,309.27,617.13,299.08Z"/><path class="cls-2" d="M581,363.34a5.19,5.19,0,0,0,1.79,5c-4.65.77-9.15-.49-13.7-1.07.34-1.63.67-3.26,1-4.89C573.79,361.74,577.35,362.9,581,363.34Z"/><path class="cls-2" d="M583,323.74c-.35,1.37-.69,2.74-1,4.11-3.39.25-6.82.81-10-.9.18-1.31.36-2.62.53-3.93C576,323.15,579.6,322.28,583,323.74Z"/><path class="cls-6" d="M570.07,362.39c-.34,1.63-.67,3.26-1,4.89-2.81.58-5.53-.06-8.25-.7l1.8-4.37A18.38,18.38,0,0,1,570.07,362.39Z"/><path class="cls-10" d="M612.85,379.91c4,7.34,3.51,14.34-1.61,21l-2.54.11C613.36,394.62,613.49,387.34,612.85,379.91Z"/><path class="cls-6" d="M572.48,323c-.17,1.31-.35,2.62-.53,3.93l-8-.19a8.24,8.24,0,0,1,1.09-4.5C567.56,321.85,570.12,321.51,572.48,323Z"/><path class="cls-15" d="M565,322.26a8.24,8.24,0,0,0-1.09,4.5c-2,0-3.17-1.11-2.83-3C561.49,321.36,563.47,322.19,565,322.26Z"/><path class="cls-15" d="M562.61,362.21l-1.8,4.37c-1.46-.46-3-1-2.34-3S561,361.88,562.61,362.21Z"/><path class="cls-14" d="M634,387.86c2.49-24.64,5.17-51.78,8-78.9.72-6.94,3.16-9.33,10.13-8.71,15.23,1.35,30.55,2.87,45.25,7.07,12.3,3.52,20.85,12,23,25.14,2,12.22-3.81,21.55-13.08,29-6.5,5.19-7.25,7.7-3.61,15.33s7.4,14.9,11.12,22.33c1.47,2.94,2.5,6,.35,8.95s-5.4,3.06-8.63,2.74c-8.77-.85-15.3-4.88-19.13-13.14-3.42-7.39-7.21-14.62-10.91-21.88a19.41,19.41,0,0,0-3-4.57c-5.33-5.59-11.58-4.14-13.37,3.32-1.15,4.83-1.38,9.87-2.08,14.8-.39,2.8-.75,5.61-1.35,8.36-.77,3.49-2.87,5.53-6.69,5.38-1.5-.06-3,.1-4.49,0C635.31,402.7,633.26,400.45,634,387.86Zm45-41v-.26a48.64,48.64,0,0,0,5,0c5.17-.57,9.83-4.22,10.36-8,.59-4.27-3.16-9.16-8.48-10.93a35.82,35.82,0,0,0-11.26-1.76c-7.06,0-10.06,2.54-10.87,9.4-.71,6,2.18,9.67,8.84,11A59.59,59.59,0,0,0,679,346.82Z"/><path class="cls-15" d="M511.38,293.3c4.42,4.3,5.21,12.3,1.8,18.66-.93,1.72-2,3.35-3.06,5l-6.52.85C512.72,311.72,513.25,302.89,511.38,293.3Z"/><path class="cls-15" d="M315.94,543.94c-6.18,6.4-13,11.73-22.17,13,7.62-3.86,14.24-9.21,21.1-14.2Z"/><path class="cls-6" d="M520.07,519c-2.72,6.82-4.4,13.87-3.92,21.26a19.39,19.39,0,0,0,3.15,9.3c1,1.47,2.74,3.19,1.11,4.82a5.38,5.38,0,0,1-6.48.62,22.28,22.28,0,0,1-3.74-3.18l-1.69-2.95c-2.14-10.58.27-20.66,3.36-30.67C514.62,518.18,517.51,516.9,520.07,519Z"/><path class="cls-15" d="M579.52,464.14c3.2,1.84,3.16,5.17,3.69,8.2,1.92,10.83-1.12,20-9.4,27.3-3.74,3.28-7.55,6.51-11.54,9.46-3.51,2.58-4.21,5.55-2.75,9.52,2.13,5.74,4.08,11.56,6,17.38.6,1.86,1.79,3.61,1.33,5.73-4.56-5.36-5.58-12.26-8-18.53-1-2.47-1.43-5.13-2.39-7.59-1.13-2.9-.67-5,2-6.89,3-2.13,5.59-4.71,8.49-6.93q17.1-13.1,13-34.21C579.65,466.45,579.63,465.29,579.52,464.14Z"/><path class="cls-15" d="M511.86,518.16c-3.09,10-5.5,20.09-3.36,30.67-4.86-6.39-5.1-22.88-.51-29.25A3.37,3.37,0,0,1,511.86,518.16Z"/><path class="cls-16" d="M621.69,452.13l26.38,1.75c2,.13,4.36.58,2,3.05-9.57,10-12.72,22.77-15.67,35.6-3.08,13.45-5.94,26.94-8.75,40.44a34.49,34.49,0,0,0,1,19.2c1.23,3.37.19,4.72-3.29,4.45L594,554.39c-3.07-.23-3.69-1.23-1.79-4,15-21.78,20.83-46.93,25.62-72.31,1.45-7.66,1.17-15.65-3-22.84-1.31-2.26-.93-3.38,1.87-3.27,1.66.07,3.32,0,5,0Z"/><path class="cls-15" d="M664,453.91c2.09.78,3,2.27.68,3.41-11.91,5.81-15.94,17-19.06,28.42q-6.71,24.5-11.34,49.51c-1.27,6.82-.37,13.54.57,20.29-6-7.07-4.9-15.6-3.39-23.38,3.39-17.46,7.54-34.79,12.16-52,2.56-9.5,6.54-18.65,16.91-22.79C662,456.85,662.88,455.11,664,453.91Z"/><path class="cls-16" d="M697.24,471c.26-6.53-.67-7.75-6.57-7.09-3.88.43-4.53-1.14-4.43-4.42a25.15,25.15,0,0,0-.8-7.38c-.76-2.76-1.88-5.08,2.36-5.86,6.48-1.2,7.94-.75,8.33,3.72.42,4.89,2.26,7.86,7.8,7.19,2-.24,3.78.68,3.71,3-.16,4.89-1.12,9.6-4.43,13.47-1.22,1.42-2.74,2.87-4.68,2.21C695.76,475,697.6,472.47,697.24,471Z"/><path class="cls-2" d="M702.1,445.48c3.17,1,2.85,3.7,2.92,6.18C700.47,451.28,702.43,447.84,702.1,445.48Z"/><path class="cls-8" d="M889.91,445q0,220.2.09,440.41c0,3.75-.84,4.59-4.59,4.59Q445,889.85,4.59,890C.84,890,0,889.16,0,885.41Q.15,445,0,4.59C0,.84.84,0,4.59,0Q445,.15,885.41,0c3.75,0,4.59.84,4.59,4.59Q889.84,224.79,889.91,445ZM825.73,324.18c-3.24-2.66-7.42-3.29-11-5.15,0-14.16,0-28.32.09-42.47a77.69,77.69,0,0,0-4.23-25.5,85.83,85.83,0,0,0-82-58.85q-58.47-.06-116.93,0-225.61,0-451.24,0c-42.88,0-79.38,32.3-84.49,74.77-1.88,15.6-.54,31.28-.85,46.92A65.71,65.71,0,0,0,62.35,316c-6.79,1.57-10.91,5.59-12.45,12.61-4.63,21.07-8.95,42.2-12.79,63.43-1.82,10.11-4.66,20.08-5,30.41-.31,8.35,3.83,12.89,12,13.42,3.64.23,7.31,0,11-.06l9.09,0a7.06,7.06,0,0,0,5,2c5.36-.5,6.09,2.16,6.06,6.81C75,481,75.21,517.42,75,553.82A115.84,115.84,0,0,0,80.85,592c-10.66,6.31-18.16,15.44-23.45,26.5a134.39,134.39,0,0,0-8.29,24C45.33,656.84,48.56,670.16,55,683a23.49,23.49,0,0,0,11.29,10.88c13.11,6.13,25.81,5.22,38-2.5a81.14,81.14,0,0,0,16-13.49c3.1-3.35,5.33-3.32,8.29.44,5.1,6.49,11.7,8.7,18,5.38,15.15-8,26.13-19.38,27.6-37.58H192c-2.81,6.4-5,12.94-5.4,20-.31,5.24,2.35,8.71,6.58,10.58s6.79-1.38,9-4.44Q211.62,659.14,221,646l9.27.07c-1.56,4.87-3.26,9.7-4.66,14.62-1.5,5.32,1.31,11.13,5.88,12.7,3.8,1.3,6.89-.85,9.42-6.68a104.11,104.11,0,0,0,6.84-20.64l12.13,0c3.5,4.49,3.07,7.6-1.59,11.82-8.58,7.77-7.67,18.23,1,26.13,5,4.58,17.65,5.69,24.12,2.12,5.36-2.95,7.33-9.4,5.53-18.19a16,16,0,0,0-.56-1.91,6.27,6.27,0,0,1,2.2-7.57c2-1.52,4.1-2.81,6.17-4.19,3.38-2.26,5.44-1.59,6.35,2.57a41.17,41.17,0,0,0,4.1,11.7c6.78,12,17.32,13.18,26.64,2.95,6.73-7.38,10.77-16.29,14.42-25.42l6.72,0c-2.25,6.77-4.63,13.5-6.71,20.33-1.54,5.06.46,10.52,4.55,12.64,5,2.63,8.26-.75,11.07-4.06,8-9.39,15.72-19,23.56-28.46,1.51-.86,3.13-.54,4.73-.48-.54,1.56-1.15,3.11-1.61,4.71-1.5,5.25-3.67,10.37-3.54,16a11.66,11.66,0,0,0,6.47,10.5c4,2,7.13-1.49,9.77-4.27,2.29-2.41,4.31-5.08,6.45-7.62l9.22-11c0,4.52-.08,8.13,0,11.73a13,13,0,0,0,4.68,10.08,6.84,6.84,0,0,0,7.43,1.29c2.94-1.21,3.09-3.73,2.82-6.27-.75-7,1.21-13.13,4.89-18.94,1.24-1.95,2.12-4.12,3.17-6.19l7.24-.07c-.67,2.39-1.31,4.79-2,7.16-1.34,4.48-2.55,9-2.16,13.71.49,5.72,2.73,10.73,8,13.53,5.13,2.72,9.21-.29,13.19-3.17,5.56-4,10.09-9.16,14.93-14,1.83-1.81,3.64-2.57,3.72.91.21,9.86,7.38,13.5,14.75,16.82,5.19,2.34,9.42-.51,13.05-3.82,4-3.64,1.52-7.85,0-11.52-1.78-4.2-5.83-4-9.49-3.21s-3.52-.8-2.87-3.42c1-3.85,2.77-7.52,2.57-11.62,1.32.07,2.72.49,3.93.17C519.8,644.2,533,646.32,546,646c6.3,5.64,14.51,7.07,22,9.94,6,2.28,12.21,3.92,18.13,7.09-8.08,5.12-16.08,4.86-23-.43a19.45,19.45,0,0,0-4.13-2.73c-4.1-1.69-7.57,1.07-6.76,5.4a20.39,20.39,0,0,0,9,13.85c10.71,7,28.27,6.61,38.84-.75,8.23-5.75,9.19-14.81,2.44-22.27-3.19-3.53-7.55-5.34-11.3-8l20.78,0c-2.86,5-2.88,10.12-1.41,15.75,2.92,11.2,12.47,14.91,21.86,8.06a101.52,101.52,0,0,0,12.87-11.74c2.28-2.35,3.25-4.1,5.12,1,4.08,11.12,13.85,16.89,25.27,11,3.64-1.87,4.07-4.87,3.28-8.45s-2.62-5.48-6.45-5.64c-7.21-.29-7.2-.38-5.56-7.8.25-1.13.3-2.3.45-3.45,6.31,1.89,12.76,1,19.16.89-1.09,8.9-2.28,17.8-3.24,26.71a10.27,10.27,0,0,0,4.1,9.65,38.91,38.91,0,0,1,4.71,3.69c3.35,3.6,6.72,2.81,10.17.37,2.93-2.06,4.73-5.08,6.59-8,2.36-3.78,4.19-7.93,7.69-11.27A21.61,21.61,0,0,1,718,671c6.42,13.69,16.81,14.66,25.6,2.36A159.68,159.68,0,0,0,757.85,650c3.22-6.69,7.09-13.19,7.91-20.82l5.47-1.1c.14,2.88-2.29,4.5-3.39,6.78-6.22,12.91-9.39,26.42-2.65,39.7,4.75,9.35,12.95,12.72,21.85,4.83a86.34,86.34,0,0,0,9.07-10c2.57-3.14,4.95-3.69,7.22.47,3.13,5.74,8.59,9.19,13.83,12.54,7.56,4.86,22.1.78,26.71-7,2.06-3.47,1.38-9.6-1.37-12.06-3.67-3.28-7-1.92-10.21.81a21.67,21.67,0,0,1-3.67,2.58c-8.62,4.57-13.51,4.29-16.77-7.17-2.27-8,.52-15.48,3.47-22.75,4.75-11.69,10.27-23.07,13.6-35.31,1.43-5.25-.07-10.09-4-11.29-5.29-1.61-7,2.4-8.69,6.09-3.48,7.72-6.8,15.51-10.29,23.22-.81,1.78-1.31,4.87-4.36,3.29a32,32,0,0,0-20.74-3c2.46-4.76,6-8.69,9.4-12.79,15.36-18.58,24.07-40,24.45-64.08.56-35.64.22-71.3.27-107l11.45-.38c5.55-.42,10.78,1.65,16.22,2.09,8.74.72,13.13-4.05,11.8-12.71-.48-3.12-.93-6.24-1.5-9.33-5-26.93-9.75-53.9-15.66-80.65C835.56,327.53,832.76,325,825.73,324.18Zm62.33,286.61c0-.53.06-1,.11-1.52.16-1.64.68-3.63-1.49-4.17-2.41-.6-2.29,1.62-2.9,3.11q-3.49,8.52-7.21,16.95a255.56,255.56,0,0,0-9.42,24.64c-.55,1.72-1.25,3.93.92,4.82s2.63-1.57,3.42-2.83a41.09,41.09,0,0,0,5.45-15.92,30.75,30.75,0,0,1,7.82-16.4C887.26,616.77,888.83,614.39,888.06,610.79ZM21.48,646.3l-1.37-.55c-4.93,9.16-9.92,18.29-14.76,27.5a65.69,65.69,0,0,0-3.47,8.25c-.53,1.43-.62,3.31,1,4,2,.86,2.54-1.26,2.92-2.52,3-10.12,8.62-19,13.23-28.41C20.3,652,21.62,649.31,21.48,646.3Zm3.16-22.84c4.34,0,7.15-2.39,7.13-6.49,0-3.4-1.73-5.68-5.4-5.81s-6.46,3.17-6.44,7.35C20,621.61,21.15,623.63,24.64,623.46Zm845.42,48.9c.23-3.64-2.35-4.45-5.08-4.75s-6.91,3.68-6.86,6.61c0,3.36,2.3,4.58,5.22,4.68A6.84,6.84,0,0,0,870.06,672.36Z"/><path class="cls-2" d="M75.1,313.9c.31-15.64-1-31.32.85-46.92,5.11-42.47,41.61-74.76,84.49-74.77q225.62,0,451.24,0,58.47,0,116.93,0a85.83,85.83,0,0,1,82,58.85,77.69,77.69,0,0,1,4.23,25.5c-.11,14.15-.07,28.31-.09,42.47l-2.5.24c-6.12-2.8-12.7-3.95-19.24-5.23-.62-15.45,1.09-30.94-1-46.37-4-29.46-31.46-53.62-61.1-53.62q-285.35,0-570.71,0a59.85,59.85,0,0,0-21.89,4.07A64.15,64.15,0,0,0,97.06,278q0,21,0,42a15.66,15.66,0,0,0-10.59-1.62C83.06,315.94,79.4,314.12,75.1,313.9Z"/><path class="cls-5" d="M104.94,590.29c-6.91-.5-13.79-.41-20.37,2.11a4.48,4.48,0,0,1-3.72-.37A115.84,115.84,0,0,1,75,553.82c.2-36.4,0-72.8.16-109.21,0-4.65-.7-7.31-6.06-6.81a7.06,7.06,0,0,1-5-2c0-.29,0-.58,0-.87,8.7-.76,13.56-4.76,15.78-13.2,1.26-4.78,2.19-9.65,3.53-14.41.51-1.81,0-2.42-1.58-2.74,3-.59,6-1.21,9-1.76,3.53-.64,6,.56,7.13,4.15-1.55,1.89-.93,4.15-.93,6.25,0,48.09,0,96.17-.1,144.25a73.21,73.21,0,0,0,4.84,26.27,7.06,7.06,0,0,0,3.25,4.2Z"/><path class="cls-4" d="M98,407c-1.09-3.59-3.6-4.79-7.13-4.15-3,.55-6,1.17-9,1.76l-3.47.45c-5.22-.54-8,1.55-8.8,7-1.5,9.88-4.07,19.33-14.56,23.81-3.66,0-7.33.29-11,.06-8.16-.53-12.3-5.07-12-13.42.39-10.33,3.23-20.3,5-30.41,3.84-21.23,8.16-42.36,12.79-63.43,1.54-7,5.66-11,12.45-12.61A65.71,65.71,0,0,1,75.1,313.9c4.3.22,8,2,11.4,4.45,1.58,2.52,3.12,5.07,4.76,7.57,16.11,24.61,30.76,50.11,46,75.27a19,19,0,0,0,.51,3.39c2.15,6.32.52,11.34-5,15.09l-11.68,3.44-8,0c-4.63-2-7.76-5.59-10.43-9.73C101.19,411.2,100.38,408.53,98,407ZM47.63,430c8.48-.14,12.46-3.15,14.69-11.38.92-3.36,1.59-6.8,2.2-10.23.91-5,3.66-8,8.79-8.83,5.89-1,11.73-2.33,17.64-3.26,5.12-.81,9.1,1.1,11.71,5.71,1.56,2.75,3.15,5.48,4.87,8.13,4.53,7,7,8,15,6.34,11.35-2.34,12.9-5.65,7.13-15.61Q109,365.21,87.13,330.32c-6.94-11.07-8.94-11.91-21.62-8.91-.81.19-1.6.47-2.41.66-3.94.93-6.24,3.25-7.18,7.33-6.87,29.82-12.32,59.92-17.68,90C36.78,427.6,39.41,430.09,47.63,430Z"/><path class="cls-15" d="M55,435.85c10.49-4.48,13.06-13.93,14.56-23.81.82-5.43,3.58-7.52,8.79-7-2,1.52-4.15,3-4.56,5.67-1.36,8.84-3.46,17.35-9.69,24.23,0,.29,0,.58,0,.87Z"/><path class="cls-10" d="M793,314c-7.56.14-12.41,4.09-16.35,10.39-12.51,20-24.9,40.12-36.94,60.44-1.35,2.28-2.93,4.42-4.41,6.62-1.89-4.07-3.74-8.16-5.7-12.2s-1.45-7,2.46-10.24c10.28-8.5,17.32-19,14.76-33.21-2.45-13.6-15.73-25.35-26-26.73-5-2.24-9.73-5.33-15.57-4.87a25.68,25.68,0,0,0-9.74-3.55c-14.34-2.53-28.7-5-43.22-6.2-5.85-.49-11.21,1.1-14.58,6.58-3.55-1.54-6.71-4.16-10.9-3.94-3.86-2.36-7.84-4.31-12.59-3.49a19,19,0,0,0-8.71-3.5c-22-2.12-44-3.92-66.11-4.24-5.15-.08-9.41,1.75-12.42,6.1l-6.27-.78a13.76,13.76,0,0,0-12.08-3.53,20.75,20.75,0,0,0-10.25-3.62c-25.29-1.3-50.6-1.16-75.91-.91-5.81.06-10.33,2.28-12.79,7.84l-6.61-1c-4-2.29-8-4.33-12.78-3.62C374,278,362.85,284.55,358,296.15c-3.05-.68-5.84-2.57-9.17-2-4.27-2.64-8.51-5.39-13.94-4.13a25.5,25.5,0,0,0-14.65-3.93c-13.45.26-26.86,1.29-40.26,2.37-7.59.61-15.29.44-22.73,2.42-7,1.86-10.12,5.73-10.17,12.84,0,4.79.4,9.59.63,14.39-1.92-.39-2.89-2.06-4.28-3.16-4.64-3.67-9.45-7-15.54-7.83-5.61-2.17-11-5.13-17.15-5.51a74.14,74.14,0,0,0-26.27-4.7c-25.44.45-49.24,19.91-53.95,44.84-.82,4.37-.88,8.9-1.29,13.35-4.65-5.05-7.31-11.4-11.21-16.94,1.57-2.5,1.68-5.4,1.43-8.1a268.61,268.61,0,0,1-1.41-31.2c0-1.65.57-3.59-2.06-5.58.77,13.54-1.24,26.13-1,38.82-1.94-1.19-2.77-3.22-3.93-5-2.76-4.32-6.6-6.38-11.82-5.09l-2.1-2q0-21,0-42a64.15,64.15,0,0,1,41.21-59.9A59.85,59.85,0,0,1,160.16,214q285.36,0,570.71,0c29.64,0,57.12,24.16,61.1,53.62C794.06,283.1,792.35,298.59,793,314Zm-13.61-33.13c3.32-19.55-14-40.65-35.07-43.88-15-2.31-30.2-.82-45.31-1.69-26.56-1.54-53.25-.93-79.86-1-103.94-.15-207.89-1.37-311.83.53-35.28.65-70.58.46-105.87,1.06-16.79.29-33.57.3-50.15,3.22-3.65.65-7.94.23-11.59,4.5C153,240.81,165.44,240.51,178,241c18.78.7,37.58.13,56.39.78,30.43,1.05,60.92,1.1,91.37,1.08,102.77-.1,205.55,1.2,308.33-.62,34.27-.61,68.57-.88,102.86-1.15C760.26,240.89,776.91,256.19,779.36,280.91Zm.25,4.22-.17-.35-.17.35Z"/><path class="cls-6" d="M97.09,320l2.1,2c6.37,10.44,12.58,21,19.18,31.3,4.9,7.65,8.76,16,14.53,23.05,3.94,8.2,7.9,16.39,14.21,23.13-.3,2.85,1.87,4.86,2.51,7.41.91,3.54,1.23,7.18-1.73,9.68s-6.41,5.3-11,3.41c6.94-4.51,7.07-11.45.35-18.77-15.22-25.16-29.87-50.66-46-75.27-1.64-2.5-3.18-5.05-4.76-7.57A15.72,15.72,0,0,1,97.09,320Z"/><path class="cls-10" d="M253.75,618.86a2.74,2.74,0,0,0-.75.08c-4.29.64-5.67-2.42-7.25-5.48-3.33-6.47-9.1-8.12-15.43-4.61a44,44,0,0,0-8.89,7.15c-2.22,2.13-4.51,4.65-8.2,2.94-.4-1.32-.79-2.64-1.19-4,.35-4.64-2.06-6.24-6.38-6a20.36,20.36,0,0,0-7.19,1.85c-7.21,3-14.37,6.11-21.6,9.07-5.3,2.16-9.6,1.27-13.82-3.19-7.65-8.08-17.05-11.24-28-7.21a4.19,4.19,0,0,1-5-1.06c-2.7-2.91-5.63-5.52-7.88-8.94-4-6.09-9.12-11-17.08-11.49a7.06,7.06,0,0,1-3.25-4.2A73.21,73.21,0,0,1,97,557.5c.15-48.08.07-96.16.1-144.25,0-2.1-.62-4.36.93-6.25,2.37,1.53,3.18,4.2,4.6,6.4,2.67,4.14,5.8,7.72,10.43,9.73.33,2.29,1,4.59,1,6.88-.68,26.76,1.34,53.49,1.08,80.25-.1,10.13,1.57,20.2,1,30.35,0,.59,0,1.37,1.06,1.21,1.18-1,.85-2.43.89-3.71.29-9.28.78-18.62.73-27.84-.17-29.1,1.92-58.1,2.27-87.16l11.68-3.44.34.36c-1.1,2,.16,2.48,1.81,3a31.67,31.67,0,0,0,14.21.71c9.76-1.61,11.77-4.18,12-14.09a63.54,63.54,0,0,0,38.8,3.24c3.4,3.79,8,3.54,12.27,3,15.53-2,29.92-6.49,39.71-20,.62-.87,1.85-1.3,2.8-1.94,3.56,8.94,8.34,12.06,17.45,10.81a134.87,134.87,0,0,1,15.8-.82c2.28,2.73,5.43,2.36,8.35,2.07,14.37-1.45,28.8-1.87,43.16-3.15,9-.8,18.93,1,26.67-6a36.72,36.72,0,0,0,20.61,1.09c5.33-1.19,8.23-4.33,9.28-9.75.84-4.32.23-8.59.14-12.9-.52-27.4-.57-54.82-1.86-82.2,2.41,1.77,2.75,4.39,2.8,7.09.58,27.7,1.1,55.39,1.75,83.09.13,5.12-.41,9.89-4.14,13.79-.59,3,1.9,2.6,3.41,2.84a35.87,35.87,0,0,0,6,.1c10.22-.08,13.89-3.69,13.89-13.75,0-10.59-.31-21.17-.85-31.77-.64-12.41-.15-24.89-.15-37.34,6.43,1.23,12.93.82,19.4.71,4-.06,5.75,1.36,5.65,5.5q-.3,11.73-.08,23.45c.26,13.12-1.62,26.24-.07,39.35.92,7.74,4,10.81,11.69,11.79,17.61,2.24,23.56-2.76,24.06-20.54s.82-35.56,1.23-53.34c.05-2.28-.4-5,3.2-5-.33,3-.88,5.91-1,8.87-.44,17.4-.74,34.8-1.15,52.2-.14,5.63-.34,11.3-4.55,15.78-1.81,1.39-.77,2.22.62,2.83,11.16,4.9,22.19-1.77,22.92-13.86.08-1.32.08-2.65,0-4-.65-18.09.86-36.14,1-54.22.05-5.46,1.37-6.63,6.9-6.67s11.29,0,16.94,0c.07,20.46-1.62,40.84-2.67,61.25-.73,14.09,4,18.95,18,19.77,17.74,1,35.47,2.41,53.2,3.72,5,.37,10,.58,14.53-2.13.42.9.86,2,1.91,2.08,7,.72,14.18,3.06,21.09-.7,5.05,5,11.58,5.49,18.08,5.62,9.47.18,13.65-3.53,15-13,.9-6.08,1.53-12.19,2.43-18.27.27-1.8.31-4.53,3.53-2.58-1.23,1.89-1.42,4.09-1.72,6.21-1.27,8.79-1.2,17.85-5.37,26,5.63,5.47,17,3.18,21.24-4.28,5.9,8.31,13.67,13.2,24.12,13.25,10.86.06,15.3-4.41,15.17-15.37,2.83,3.37,2.51,6.85.44,10.46-.52.9-1.68,1.92-.63,3.06.85.93,2.09.76,3.24.41.94-.29,1.87-.6,2.81-.9,5.09,6.32,12,8.68,19.8,8.82,6.88.13,11.24-4.38,15-9.4,2.09-2.79,3.8-5.85,5.65-8.81,1.2-1.91,2.44-3.67,5.14-2.69-4.31,5.82-6.83,13-13,17.39-.93.41-1.79,1-1.48,2.12.24.85,1,.57,1.48.05l2,.34c4.63,4.13,9.86,1.93,14.93,1.39q0,56.73,0,113.44a57.78,57.78,0,0,1-1.26,10.87c-5.9,30.5-32.28,47.65-60.43,50.83a5,5,0,0,0-.87-.1l-.51-1.64c.73-3.76-1.31-5.91-4.32-7.53-2.57-1.38-4.68-.2-6.23,1.55-4.15,4.69-9.42,7.15-15.36,8.54-3.38.79-5.18,2.8-4.78,6.42-.12,4.07,1.64,7.12,5.36,8.66,3.42,1.41,4.53,3.54,3.25,7-6.84,2.18-13.87.6-20.79,1.07-.34-1-.68-1.92-1-2.88.58-3.9-1.58-5.92-4.94-7s-6.91-1.41-10-2.82c-15.45-7-25.13,1.54-31,12.6H623c-.75-6.72-2-13.3-6-19,14.57.51,29.07-1,43.61-1.48-16.47-2.65-33.07-1-49.6-1.55a4.69,4.69,0,0,0-.91-3.28c-6.49-7.45-14.26-12.86-24.47-12.57a67.51,67.51,0,0,0-34.93,10.48c-1.71,1.09-3.44,2.11-3.69,4.4-24.91-.44-49.82.14-74.75-.73-30.06-1.06-60.19-.24-90.29-.29a24.72,24.72,0,0,0-7.85,1c-5.65-3.67-11.29-4-16.91.07-2-1.19-4.13-1.14-6.3-1.08-15.62.43-31.25.36-46.87.74-38.58.92-77.2.11-115.8,1.12C170.62,601.29,153.92,597,139,587c-1.69-1.14-2.82-3.52-6-3.46a14,14,0,0,0,1.4,2.16,30,30,0,0,0,2.66,2.24c14.46,11.11,31.53,15.07,49,15.77,24.61,1,49.28.29,73.93.32-.19,2.2-2.08,3.2-3.26,4.71-1.87,2.39-4,4.75-2.76,8.19ZM128.05,578l-.15-.88-.43.23c.2.21.41.42.61.64l.87,1.4.51-.52ZM350.16,452c-3.78-1.34-7.51-2.91-11.64-2.8-19.62-6.88-39.56-11.28-60.59-9-12,1.29-23.22,4.37-32.64,12.25-3.94,3.29-7.54,7-11.3,10.5,0-2.47,0-4.88,1.16-7.25,2.89-6.14,2.64-6.53-4.09-8.1-1.28-.29-2.61-.39-3.91-.57-3.39-3.22-7.66-2.69-11.78-2.76-4.81-4.77-11.21-3.21-16.94-4-6.16-.84-7.75.67-8.43,6.8-.38,3.45-1.67,5.14-5.31,4.83-2.51-.22-4.57.72-5.47,3.34-3.08,9,2.39,21.52,11,25.28,7.29,3.17,10.85.75,10.16-6.89-.17-1.94-.86-4.38,2.68-3.63-.56,9.22.19,10.06,8.75,9.89,3.52.93,6.67,3.09,10.43,3.28-.52,2.26-1,4.55-1.56,6.78-6.64,24.25,4.26,52.67,24.47,63.94,13.19,7.35,27,10,41.84,6.1,3.62,3,8.19,3.23,12.24,2.74a64.09,64.09,0,0,0,26.49-9.42c8.33-5.18,14.11-12.92,21.21-19.33,7.15,12.8,18.49,19.63,32.47,22.54,7.13,1.48,14.23.06,21.32-.72a19.65,19.65,0,0,0,2.76,1.11c15.38,3.78,38-3.18,48.53-20.93,5-8.36,7.79-17.56,11-26.62,6.71-18.72,11.29-38.3,22-55.42,2.9,3,2.07,6.43,1.25,9.82q-6.47,26.87-13,53.71c-2.69,11.1-4.68,22.37-12.29,31.7-3.21,3.94-.88,7.32,5,7.44,13.62.29,27.24.27,40.86.38,5.52,1.73,11.19.87,16.8,1,6.76.11,7.53-1.15,4.67-7.15-3-6.33-3.58-12.65-.17-19,1.17,1.59,2.44,3.13,3.5,4.8,4,6.29,7.78,12.77,12,18.92,3.82,5.53,9.53,7.64,16.1,6.82,3.42-.43,6.75-1.61,10.13-2.44.77,1.12,1.36,2.77,3.1,1l6.68-1.54c16.14,2.22,32.43,2.48,48.65,3.68,4.43.33,7.08-1,7.45-5.7,1.88,3.87,5,5.32,9.17,4.71,1.19,3.2,3.95,1.83,6,1.86,5,.07,5.49-.9,3.63-5.64a33.45,33.45,0,0,1-2.76-13.06c.25-13.8,4.77-26.76,7.61-40,2.36-11,4.2-22.27,9.63-32.38,2.59-4.82,5.32-9.63,10.85-11.81-1.56,9-1.25,9.47,8.35,9.93,3.37.17,2.59,2.24,2.62,4.12.11,6.69,3.55,9.21,10,7.41,4.14-1.15,6.83-4,9-7.48,3.16-5.17,3.66-10.95,3.62-16.83,2.67.65,2.37,2.87,2.36,4.77,0,5.28-1.26,10.21-4.53,14.5-.69.89-1.79,1.84-1.18,3.07.79,1.62,2.29.78,3.55.63.66-.08,1.31-.21,2-.31,4.06,3.43,8.35,3.82,12.41.3,3.65-3.16,4.9-7.73,5.77-12.29,1.73-9.07.21-10.81-9-10.75l-2.13-2.69c.47-7.54-.15-8.23-7.54-8.37-.65,0-1.3,0-1.95-.07a4,4,0,0,0-3.61-3.43,54.94,54.94,0,0,0-7.64.64c-2.92-5-7.58-4.45-12.22-3.71-13.16,2.12-13.16,2.14-10.09,14.58l-4.58-1c-3.11-3.66-7.36-1.51-11.06-2.15-1.91-2.78-4.8-3.32-7.88-3.47-6.14-.3-12.28-.71-18.42-.9-10-.3-19.89-1.76-29.89-1.27-1.83.09-3.79.21-4.48,2.4a4.24,4.24,0,0,0,1.39,5c9,6.68,8.31,16.22,6.87,25.46a220.06,220.06,0,0,1-11.89,44.2c-2.94,7.73-5.89,15.56-11.42,22-1.83-.84-2.57-2.52-3.19-4.26-2-5.46-3.94-10.92-5.8-16.42-3.5-10.29-3.37-10.17,5.18-16.92,6.09-4.82,12.09-9.7,15.38-17.23,7.25-16.6-3.82-36.81-21.16-38.18-5.54-2.55-11-5.35-17.3-5.52a126.64,126.64,0,0,0-12.88-3.75c-21.64-4.36-43.59-3.32-65.44-3.92-2.59-.07-4.36,1.32-5.89,3.18h-3.72a10.49,10.49,0,0,0-7.57-3.28q-20.48,0-40.94,0c-4.77,0-7.13,2.21-6.77,7.07h-5.35c-2.26-3.53-6.18-2-9.25-3-2.42-3-6-2.68-9.13-2.74-11.75-.23-23.51-.17-35.27,0a43.28,43.28,0,0,0-9.29,1.44c-3.49.84-4.44,2.56-1.33,5.35,1.68,1.51,3.95,2.54,4.67,5Z"/><path class="cls-6" d="M64.12,435c6.23-6.88,8.33-15.39,9.69-24.23.41-2.63,2.57-4.15,4.56-5.67l3.48-.45c1.55.32,2.09.93,1.58,2.74-1.34,4.76-2.27,9.63-3.53,14.41C77.68,430.2,72.82,434.2,64.12,435Z"/><path class="cls-14" d="M47.63,430c-8.22.13-10.85-2.36-9.39-10.53,5.36-30.11,10.81-60.21,17.68-90,.94-4.08,3.24-6.4,7.18-7.33.81-.19,1.6-.47,2.41-.66,12.68-3,14.68-2.16,21.62,8.91q21.89,34.89,42.54,70.51c5.77,10,4.22,13.27-7.13,15.61-8,1.64-10.48.63-15-6.34-1.72-2.65-3.31-5.38-4.87-8.13-2.61-4.61-6.59-6.52-11.71-5.71-5.91.93-11.75,2.27-17.64,3.26-5.13.86-7.88,3.82-8.79,8.83-.61,3.43-1.28,6.87-2.2,10.23C60.09,426.81,56.11,429.82,47.63,430Zm18.46-58.48a11.07,11.07,0,0,0,11,11.15,11.22,11.22,0,1,0,.5-22.44A11.48,11.48,0,0,0,66.09,371.48Z"/><path class="cls-13" d="M121.07,423.11c-.35,29.06-2.44,58.06-2.27,87.16,0,9.22-.44,18.56-.73,27.84,0,1.28.29,2.69-.89,3.71-1,.16-1.09-.62-1.06-1.21.53-10.15-1.14-20.22-1-30.35.26-26.76-1.76-53.49-1.08-80.25.06-2.29-.63-4.59-1-6.88Z"/><path class="cls-10" d="M137.24,401.19c6.72,7.32,6.59,14.26-.35,18.77l-3.8.07-.34-.36c5.52-3.75,7.15-8.77,5-15.09A19,19,0,0,1,137.24,401.19Z"/><path class="cls-13" d="M779.36,280.91c-2.45-24.72-19.1-40-42.45-39.84-34.29.27-68.59.54-102.86,1.15-102.78,1.82-205.56.52-308.33.62-30.45,0-60.94,0-91.37-1.08-18.81-.65-37.61-.08-56.39-.78-12.52-.47-24.94-.17-38.28,2.71,3.65-4.27,7.94-3.85,11.59-4.5,16.58-2.92,33.36-2.93,50.15-3.22,35.29-.6,70.59-.41,105.87-1.06,103.94-1.9,207.89-.68,311.83-.53,26.61,0,53.3-.58,79.86,1,15.11.87,30.27-.62,45.31,1.69C765.32,240.26,782.68,261.36,779.36,280.91Z"/><path class="cls-4" d="M288,403.87a134.87,134.87,0,0,0-15.8.82c-9.11,1.25-13.89-1.87-17.45-10.8L252.17,369a189.72,189.72,0,0,0-2.77-31.19,110.38,110.38,0,0,0-1.69-19.71c-.23-4.8-.66-9.6-.63-14.39,0-7.11,3.2-11,10.17-12.84,7.44-2,15.14-1.81,22.73-2.42,13.4-1.08,26.81-2.11,40.26-2.37A25.5,25.5,0,0,1,334.89,290l5.12,7.09c1.24,9.07-.22,17.13-8.41,22.7l-32.5,2.41-7.78.94a10.61,10.61,0,0,0-2.88.08c-1.47.45-3.55.74-3.1,3,.35,1.73,2.1,1.78,3.58,1.75a19.8,19.8,0,0,0,2.4-.34l5.12-.67c4.88.34,9.75.49,14.51-1,5.38.19,10.58,1,15.09,4.26q1.08,2,2.15,3.95c.05.5.15,1,.82.89L329,335c.06,2.47,0,5,.21,7.41.59,7.43-1,13.81-8.24,17.53l-20.42,2.25-6.47.19c-2.37-.27-5-.5-5.79,2.35-.56,1.92.68,3.13,2.87,2.88a25.3,25.3,0,0,0,8.58-.6,45.49,45.49,0,0,0,12.38-.72c2.65.58,5.28.14,7.93,0,7.54-.33,15.38-2.24,22,3.48.72,1.19,1.45,2.38,2.17,3.58a32.62,32.62,0,0,0,.4,3.44c2,9.61.91,18-8.88,23-7.73.5-15.5.75-23.2,1.6C304.31,402.31,296,401.42,288,403.87ZM314.48,292c-16.85,1.45-35,1.68-53,4-7,.91-8.6,2.66-8.21,9.89.7,12.78,1.75,25.55,2.9,38.3,1.39,15.57,2.87,31.14,4.66,46.67.71,6.21,2.72,7.65,9,7.43,7-.25,13.95-.84,20.92-1.33,13.28-.94,26.56-1.83,39.82-2.9,4.93-.4,9.07-2.75,9.26-8.08.4-11-2.47-16.18-13.08-14.64-1.32.19-2.65.29-4,.36-10.63.58-21.26,1.31-31.9,1.63-5.54.16-8.13-2.55-8.47-7.71s1.85-8,7.48-8.61c7.77-.88,15.57-1.39,23.36-2,8-.6,11-4,10.66-11.9-.42-9-2.51-11.15-11-11-3.82,0-7.64.45-11.46.61-4.66.2-9.32.47-14,.43-4.28,0-7.48-2-8.22-6.47-.72-4.32,1.85-6.81,5.45-8.52a17.12,17.12,0,0,1,6.3-1.39c11.29-.77,22.59-1.35,33.86-2.34,6.8-.6,10.1-4.44,10-10.67A11.44,11.44,0,0,0,324.19,292C321.38,291.77,318.54,292,314.48,292Z"/><path class="cls-4" d="M199.94,412.86a63.54,63.54,0,0,1-38.8-3.24l-14-10.16c-6.31-6.74-10.27-14.93-14.21-23.13q-1.83-10.62-3.67-21.22c.41-4.45.47-9,1.29-13.35,4.71-24.93,28.51-44.39,53.95-44.84a74.14,74.14,0,0,1,26.27,4.7c7.68,5,14.47,10.94,19.48,18.72.52,4.52,1.91,8.94-1.77,13.12-9.52,10.83-20.72,12.62-32.41,4.8a12.35,12.35,0,0,0-7.79-4.66c-1.45-1.1-3.08-.7-4.68-.56-7.11-.31-12.69,2.89-14.86,9.32-3.85,11.39-2.33,22.42,5.43,32.11a13.67,13.67,0,0,0,13.1,4.72c2.56.29,4.95,0,6.89-1.93,4.61-1.3,5.79-5.54,7.74-9.09,4.64-8.46,8.43-10.31,17.7-8.14,4.33,1,8.58,2.38,12.86,3.59l1.67.44-.13,0,3.33,5.65c-.86,16.27-8.64,28.19-22.66,36.24-2.25,1.29-5.06,1.71-6.63,4.11l.06,0c-.92-.11-1.76-.07-2,1l.07,0A8.07,8.07,0,0,0,199.94,412.86ZM135.73,353c.12,2.16.16,4.33.37,6.48,2.56,25.85,20,50.83,53.57,48.5,18.61-1.29,35.05-13.19,40.71-29.8,2.32-6.81,1.28-9-5.44-11.15-2.69-.85-5.48-1.37-8.2-2.11-4.25-1.15-7.08.71-9.1,4.24-.9,1.58-1.55,3.31-2.44,4.9-4.21,7.57-10.8,11-19.33,11s-15.25-3.71-19.14-11.31c-3.47-6.8-6.13-13.9-5.75-21.9.48-10.24,3.9-18.71,13.53-23.23s18.41-1.75,26.11,5.23c5.63,5.1,7.48,5.31,14.24,1.92a48.4,48.4,0,0,0,6-3.62c5.07-3.55,5.72-6.13,2.46-11.32-7.43-11.83-18.74-17.06-32.22-18C160.3,300.59,134.86,323.75,135.73,353Z"/><path class="cls-4" d="M482.07,319.06c-3.6,0-3.15,2.7-3.2,5-.41,17.78-.72,35.57-1.23,53.34s-6.45,22.78-24.06,20.54c-7.72-1-10.77-4.05-11.69-11.79-1.55-13.11.33-26.23.07-39.35q-.22-11.71.08-23.45c.1-4.14-1.61-5.56-5.65-5.5-6.47.11-13,.52-19.4-.71-6.14-3.27-8.28-8.65-8-15.27.17-3.62.45-7.24.67-10.85,2.46-5.56,7-7.78,12.79-7.84,25.31-.25,50.62-.39,75.91.91a20.75,20.75,0,0,1,10.25,3.62l2.75,5.61c1.87,9.59,1.34,18.42-7.78,24.53l-13,1.17A10.73,10.73,0,0,0,482.07,319.06ZM444.39,289.4v-.77c-6.48,0-13-.38-19.45.09-8.92.64-11.12,3.55-10.54,12.51.09,1.33.36,2.64.57,3.95.58,3.82,2.65,5.93,6.67,6,5,.1,10,.4,14.95.48,9,.14,11.3,2.33,11.25,11.25-.11,19.13-.37,38.26-.46,57.39C447.33,390.07,449.3,392,459,392a27.91,27.91,0,0,0,4-.14c5.66-.78,7.78-3.12,8.1-8.87.19-3.48.42-7,.51-10.45.42-17,.68-33.92,1.26-50.87.25-7.4,2.45-9.3,9.87-9.47,5-.12,10,0,15-.06,3.86,0,6.73-1.68,8.07-5.47,3.49-9.9-1.14-17.08-11.53-17.21C477.65,289.24,461,289.4,444.39,289.4Z"/><path class="cls-4" d="M394.32,293.07c1.29,27.38,1.34,54.8,1.86,82.2.09,4.31.7,8.58-.14,12.9-1.05,5.42-4,8.56-9.28,9.75a36.72,36.72,0,0,1-20.61-1.09c-2.52-3.31-4.65-6.79-5.06-11.06s-.77-8.5-1.15-12.76a496.86,496.86,0,0,0-2-53l0-23.82c4.85-11.6,16-18.18,32.29-9.76C391,289,393.08,290.78,394.32,293.07Zm-4.17,26.48h-1.29c0-7,.25-14-.07-21s-5.37-11-12.47-10.23c-8.13.92-12.56,5.76-12.41,14,.2,10.8.62,21.6,1,32.4.49,15.3.77,30.6,1.59,45.88.55,10.27,1.45,12.05,13.73,11.75.5,0,1-.14,1.49-.19,7.41-.76,8.44-1.84,8.45-9.32Q390.19,351.21,390.15,319.55Z"/><path class="cls-5" d="M490.62,319l13-1.17,6.52-.85c7.75-.38,11.72-3.2,13.22-10.32,1.11-5.34-.31-10.53-2.63-15.44L527,292c-2.52,9.16-1.18,18.77-3.13,28-5.65,0-11.3,0-16.94,0s-6.85,1.21-6.9,6.67c-.17,18.08-1.68,36.13-1,54.22,0,1.33,0,2.66,0,4-.73,12.09-11.76,18.76-22.92,13.86-1.39-.61-2.43-1.44-.62-2.83,6.82,1.25,11.45-1.78,12.58-8.44a61.4,61.4,0,0,0,.88-8.88C489.28,358.72,489.11,338.84,490.62,319Z"/><path class="cls-5" d="M409.68,291c-.22,3.61-.5,7.23-.67,10.85-.3,6.62,1.84,12,8,15.27,0,12.45-.49,24.93.15,37.34.54,10.6.86,21.18.85,31.77,0,10.06-3.67,13.67-13.89,13.75a35.87,35.87,0,0,1-6-.1c-1.51-.24-4,.14-3.41-2.84,9.48.07,12.78-2.91,12.95-12.32.1-5.48-.42-11-.51-16.45q-.57-34.2-1-68.41a18.14,18.14,0,0,0-3.08-9.85Z"/><path class="cls-6" d="M403.07,290a18.14,18.14,0,0,1,3.08,9.85q.45,34.22,1,68.41c.09,5.49.61,11,.51,16.45-.17,9.41-3.47,12.39-12.95,12.32,3.73-3.9,4.27-8.67,4.14-13.79-.65-27.7-1.17-55.39-1.75-83.09-.05-2.7-.39-5.32-2.8-7.09-1.24-2.29-3.34-4.06-4-6.68C395.09,285.68,399.11,287.72,403.07,290Z"/><path class="cls-5" d="M129.23,355.11q1.83,10.61,3.67,21.22c-5.77-7.09-9.63-15.4-14.53-23.05-6.6-10.3-12.81-20.86-19.18-31.3,5.22-1.29,9.06.77,11.82,5.09,1.16,1.82,2,3.85,3.93,5a8,8,0,0,0,3.08,6.06C121.92,343.71,124.58,350.06,129.23,355.11Z"/><path class="cls-2" d="M358,296.15,358,320a49.63,49.63,0,0,1-5.33,1q-18,1.56-35.94,3c-2.12.17-4.39-.29-5.75,2-4.76,1.45-9.63,1.3-14.5,1,.88-1.58,1.77-3.15,2.65-4.72l32.5-2.41,6.17-.76c9.24,0,14.12-4.87,14.3-14.06.08-4-1.34-7.48-3.24-10.84C352.16,293.58,355,295.47,358,296.15Z"/><path class="cls-6" d="M230.22,320.34c-5-7.78-11.8-13.72-19.48-18.72,6.18.38,11.54,3.34,17.15,5.51,4.75,4.52,10.24,8.32,13.29,14.45s2.36,9.82-2.76,13.86A56.76,56.76,0,0,1,227,342.25l-2.86.1-.94-.35c.89-2.72,3.69-3.15,5.62-4.58C235.66,332.35,236.2,326.71,230.22,320.34Z"/><path class="cls-5" d="M227,342.25a56.76,56.76,0,0,0,11.44-6.81c5.12-4,5.79-7.8,2.76-13.86s-8.54-9.93-13.29-14.45c6.09.8,10.9,4.16,15.54,7.83,1.39,1.1,2.36,2.77,4.28,3.16a110.38,110.38,0,0,1,1.69,19.71c-3.78,2.06-7.41,4.46-11.37,6.09C234.25,345.47,230.06,346.7,227,342.25Z"/><path class="cls-6" d="M348.83,294.16c1.9,3.36,3.32,6.81,3.24,10.84-.18,9.19-5.06,14.08-14.3,14.06.92-1.15,1.87-2.28,2.76-3.45,4.57-6,4.38-12.56-.52-18.49L334.89,290C340.32,288.77,344.56,291.52,348.83,294.16Z"/><path class="cls-13" d="M118,338.17a8,8,0,0,1-3.08-6.06c-.2-12.69,1.81-25.28,1-38.82,2.63,2,2.1,3.93,2.06,5.58a268.61,268.61,0,0,0,1.41,31.2C119.7,332.77,119.59,335.67,118,338.17Z"/><path class="cls-5" d="M147.11,399.46l14,10.16c-.26,9.91-2.27,12.48-12,14.09A31.67,31.67,0,0,1,134.9,423c-1.65-.49-2.91-.93-1.81-3l3.8-.07c4.59,1.89,8-.85,11-3.41s2.64-6.14,1.73-9.68C149,404.32,146.81,402.31,147.11,399.46Z"/><path class="cls-4" d="M400.75,555.75c-7.09.78-14.19,2.2-21.32.72-14-2.91-25.32-9.74-32.47-22.54a32.92,32.92,0,0,0-1.9-10c1.82-9.91,3.84-19.79,5.4-29.75,1.89-12,6-23.77,5.37-36.18a6.76,6.76,0,0,0-2.58-6c-.72-2.44-3-3.47-4.67-5-3.11-2.79-2.16-4.51,1.33-5.35a43.28,43.28,0,0,1,9.29-1.44c11.76-.17,23.52-.23,35.27,0,3.13.06,6.71-.23,9.12,2.74l-1.81,2.17c-5.22,4.41-10.49,8.84-12.37,15.79-4.43,16.3-8.9,32.6-13,49-1,4.16-1.79,9,2.94,12.12,3.14,3,6.81,3.58,10.87,2.45,3.39-.19,5.82-1.89,7.92-4.52a64.12,64.12,0,0,0,11.38-22.53c3.87-13.56,7.24-27.26,10.88-40.88,1.07-4,.77-7.54-2.25-10.59-.36-4.86,2-7.07,6.77-7.07q20.46,0,40.94,0a10.49,10.49,0,0,1,7.57,3.28c.2.77.39,1.54.58,2.32a38.53,38.53,0,0,0-19.19,22.61c-5.17,15.1-10.69,30.08-15.73,45.23C433.43,529.49,425.7,545,408.09,553,405.55,553.66,403,554.19,400.75,555.75Zm42.74-111.44v.05c-4.17,0-8.33.12-12.49,0s-6,1.05-4.31,5.52c.76,2,.28,4.27-.3,6.4-4.16,15.24-8.17,30.52-12.5,45.72a62.33,62.33,0,0,1-11,21.14c-7.37,9.45-21.36,10.24-28.85,1.61-4.94-5.7-4.1-12.43-2.44-19,3.59-14.18,7.47-28.3,11.25-42.43,1.29-4.85,2.85-9.6,6-13.64,2.6-3.37,1-4.37-2.36-4.3-8,.19-16,.5-23.95.67-3.24.07-4.25,1.16-2.72,4.29,2.26,4.63,2.47,9.43,1.72,14.58-2.51,17.3-6.37,34.34-9.61,51.5-2.28,12.09,2.34,20.77,12.25,27.11,22.94,14.67,51.47,6.6,63.42-17.88,5.35-11,8.28-22.82,12.66-34.14,5.9-15.24,8.51-32,20.16-44.67,1.89-2.06-.45-2.47-1.89-2.5C453.48,444.25,448.49,444.31,443.49,444.31Z"/><path class="cls-4" d="M234,462.89c3.76-3.51,7.36-7.21,11.3-10.5,9.42-7.88,20.63-11,32.64-12.25,21-2.27,41,2.13,60.59,9,1.16,1.21,6,1.12,1.53,4.31-10.92,3.61-19.61,10.41-27,19-5,5.85-5,5.87-10.08.66-1.06-2.72-2.77-4.68-5.86-5a8.35,8.35,0,0,0-5.43.1c-1.3-.06-2.69-.51-3.66.85l.05,0c-4.91-.13-8.51,2.56-11.63,5.82-8.53,8.93-12.8,19.71-12.17,32,.32,6.32.41,13,5.44,18,3.31,4.92,8,7.14,13.84,7.22,3.22,1.67,6.28,0,9.41-.44,11.88-1.39,20.46-8,27.53-17.18,2.11-2.73,3.59-6,6.88-7.77,2.47-1.31,4-.9,4.87,1.94,1.17,3.81-.05,7.28-1.4,10.65-3.59,9-10.09,16-16,23.39-6.86,5-13.48,10.34-21.11,14.2l-.76.61a17.77,17.77,0,0,0-6,2.4c-14.81,3.88-28.65,1.25-41.84-6.1-20.21-11.27-31.11-39.69-24.47-63.94.61-2.23,1-4.52,1.55-6.78l-.15-.05c3.32-3.82,4.78-8.64,7-13A15.8,15.8,0,0,0,234,462.89Zm85.1,63.34c-2.4-.16-3.31,1.24-4.44,2.11a48.38,48.38,0,0,1-21.83,9.27c-17.77,3-30.7-5.72-33.38-23-1.36-8.75-1.24-17.67,1.95-26.14,4.44-11.79,11.14-21.69,24-25.54,7.48-2.24,14.82-2.76,20.74,3.83,1.52,1.69,2.76,1.32,4.1-.25,4-4.73,9.09-8.28,14-12,.85-.64,2.41-1,2.1-2.42s-1.81-1.35-2.87-1.67a113.57,113.57,0,0,0-55.23-3c-24.91,4.83-50.21,38.89-41.71,70.95,6.91,26,28.23,36.53,45.31,36.81,18.08.29,31.48-9.22,43-22.05C316.52,531.26,318.63,529.45,319.09,526.23Z"/><path class="cls-4" d="M506.87,556.94c-13.62-.11-27.24-.09-40.86-.38-5.84-.12-8.17-3.5-5-7.44,7.61-9.33,9.6-20.6,12.29-31.7q6.51-26.85,13-53.71c.82-3.39,1.65-6.86-1.25-9.82-.73-2.84-2.94-4.39-5.14-5.95-.94-1.91-2.55-3.5-2.76-5.77,1.53-1.86,3.3-3.25,5.89-3.18,21.85.6,43.8-.44,65.44,3.92a129.21,129.21,0,0,1,12.88,3.74c7.31,4.51,14.11,9.55,18.11,17.49.11,1.15.13,2.31.35,3.44q4.08,21.14-13,34.21c-2.9,2.22-5.53,4.8-8.49,6.93-2.62,1.89-3.08,4-2,6.89,1,2.46,1.42,5.12,2.39,7.59,2.44,6.27,3.46,13.17,8,18.52,1.69,4.57,6.59,6.7,8.46,11.14-.73,3.15-3.78,4.5-5.39,7-3.38.83-6.71,2-10.13,2.44-6.57.82-12.28-1.29-16.1-6.82-4.23-6.15-8-12.63-12-18.92-1.06-1.67-2.33-3.21-3.5-4.8a27.27,27.27,0,0,0-8.1-12.78c-2.56-2.06-5.45-.78-8.21-.8a3.37,3.37,0,0,0-3.87,1.42c-4.59,6.37-4.35,22.86.51,29.25l1.69,2.95C510.57,554.46,508.41,555.5,506.87,556.94Zm-2.24-112.05c-4.5,0-9,0-13.48,0-1.08,0-2.49-.48-3,1-.41,1.08.45,1.86,1.11,2.6,4.29,4.86,4.56,10.35,3,16.38-3.64,14.51-6.68,29.17-10.69,43.57-3.63,13-4.27,27-12.1,38.79-1.46,2.19.51,2.6,2.36,2.91,8.76,1.47,17.58.44,26.36.69,2.7.08,3.48-.82,2.48-3.64-3.82-10.83-1.35-21.28,2.43-31.57a5.59,5.59,0,0,1,2.7-3.44c6.49-3,18.23.46,22,6.49,6.66,10.65,13.1,21.43,19.94,32a12.85,12.85,0,0,0,17.2,3.88c1.81-1.08,3-2.12,1.1-4.19-9.28-9.93-11.27-23.16-15.71-35.24-1.53-4.16.22-7.76,3.77-10.51,3.94-3.06,7.79-6.25,11.58-9.49,13.77-11.78,12.3-31.41-3-40.91A42.26,42.26,0,0,0,549.76,449C534.9,445.56,519.79,445.07,504.63,444.89Z"/><path class="cls-5" d="M480,447.94c2.2,1.56,4.41,3.11,5.14,5.95-10.74,17.12-15.32,36.7-22,55.42-3.24,9.06-6.06,18.26-11,26.62-10.57,17.75-33.15,24.71-48.53,20.93a19.65,19.65,0,0,1-2.76-1.11c2.21-1.56,4.8-2.09,7.34-2.76l2,.09c1.37,1.59,3,1,4.62.54,9.23-2.52,17.17-7.11,23.25-14.65,5.63-7,9-15.1,12-23.45,5.77-16.49,11.37-33,17.27-49.47C469.76,458.92,473.62,452.51,480,447.94Z"/><path class="cls-9" d="M418.2,446c3,3,3.32,6.62,2.25,10.59-3.64,13.62-7,27.32-10.88,40.88A64.12,64.12,0,0,1,398.19,520c-2.1,2.63-4.53,4.33-7.92,4.52-3-6-2.67-12.22-1-18.47,3.5-13.17,7.19-26.28,10.51-39.49,2.11-8.38,6-15.43,13.08-20.57Z"/><path class="cls-6" d="M480,447.94c-6.34,4.57-10.2,11-12.76,18.11-5.9,16.44-11.5,33-17.27,49.47C447,523.87,443.59,532,438,539c-6.08,7.54-14,12.13-23.25,14.65-1.58.43-3.25,1-4.62-.54,10.5-3.24,18.31-9.84,23.78-19.25a92.87,92.87,0,0,0,7.26-16.41c5.3-15.41,10.54-30.84,16-46.19,3.27-9.17,7.26-18,16.18-23.28,1.29-.77,2.63-1.87.73-3.47-.19-.78-.38-1.55-.58-2.32h3.72C477.41,444.44,479,446,480,447.94Z"/><path class="cls-4" d="M203.09,470c-3.54-.75-2.85,1.69-2.68,3.63.69,7.64-2.87,10.06-10.16,6.89-8.64-3.76-14.11-16.28-11-25.28.9-2.62,3-3.56,5.47-3.34,3.64.31,4.93-1.38,5.31-4.83.68-6.13,2.27-7.64,8.43-6.8,5.73.78,12.13-.78,16.94,4l.09,2.44c-2.44,5.74-6,11.21-3.62,18,.41,1.17-.6,2.83-1,4.27C208.39,470.07,205.69,469.66,203.09,470Zm-2.34-24c-3.48-.36-4.76,1.08-4.92,4.58-.27,5.7-1.76,6.92-7.78,7.09-1.54,0-2.68.18-2.83,1.93-.38,4.62.22,9,3.52,12.58,1.13,1.21,2.58,2.44,4.37,1.74,1.58-.61.81-2.32.92-3.55.36-3.64,1.57-8.61,5.16-7.83,6.63,1.43,5.93-2.49,6.57-6.19a20.2,20.2,0,0,1,1.37-5.25c1.37-2.89,1.06-4.35-2.52-4.29A16.72,16.72,0,0,1,200.75,445.94Z"/><path class="cls-6" d="M490.62,319c-1.51,19.84-1.34,39.72-1.75,59.59a61.4,61.4,0,0,1-.88,8.88c-1.13,6.66-5.76,9.69-12.58,8.44,4.21-4.48,4.41-10.15,4.55-15.78.41-17.4.71-34.8,1.15-52.2.08-3,.63-5.91,1-8.87A10.73,10.73,0,0,1,490.62,319Z"/><path class="cls-6" d="M412.85,446c-7.07,5.14-11,12.19-13.08,20.57-3.32,13.21-7,26.32-10.51,39.49-1.66,6.25-2,12.46,1,18.47-4.06,1.13-7.73.51-10.87-2.45-.43-10.28,2.54-19.95,5.31-29.66,2.18-7.64,4.27-15.31,6.12-23,1.89-7.89,4.65-15.21,11.26-20.45,1.87-1.48,1.59-2.66-.31-3.76l1.81-2.17C406.67,444,410.59,442.44,412.85,446Z"/><path class="cls-5" d="M199.94,412.86a8.07,8.07,0,0,1,6.15-1.86c1,2.09,2.62,1.56,4.25,1.12,17-4.48,30.87-12.74,37.18-30.4,1.65-4.59,2.31-8.94.18-13.46a7.07,7.07,0,0,1,4.47.76l2.55,24.87c-.95.63-2.18,1.06-2.8,1.93-9.79,13.54-24.18,18.05-39.71,20C208,416.4,203.34,416.65,199.94,412.86Z"/><path class="cls-5" d="M287,559.94a17.54,17.54,0,0,1,6-2.39c0,1.9,1.09,2.26,2.66,1.79,3-.91,6.1-1.68,9-2.84,15.33-6.09,26.06-17.49,35.18-30.72,2.77,2.36,3.31-1.67,5.2-1.81a32.92,32.92,0,0,1,1.9,10c-7.1,6.41-12.88,14.15-21.21,19.33a64.09,64.09,0,0,1-26.49,9.42C295.21,563.17,290.64,562.9,287,559.94Z"/><path class="cls-2" d="M359.94,373c.38,4.26.75,8.51,1.15,12.76s2.54,7.75,5.06,11.06c-7.74,7-17.66,5.16-26.67,6-14.36,1.28-28.79,1.7-43.16,3.15-2.92.29-6.07.66-8.35-2.07,8-2.45,16.34-1.56,24.49-2.45,7.7-.85,15.47-1.1,23.2-1.6,3,.84,5.42-1.18,8.11-1.86,6.36,1.76,12.28-2.58,13.25-9.62.74-5.3-.64-10.23-2.29-15.14Z"/><path class="cls-5" d="M234,462.89a15.8,15.8,0,0,1-4.85,7.15c-6.44-1-7.13-.39-7.11,6.12,0,2.3.05,4.6.08,6.91l.15.05c-3.75-.19-6.9-2.35-10.42-3.28.89-3.36-.65-6.59-.54-9.91,2.23.15,3.56-.81,3.84-3.09,1.55.57,3.06,1.26,4.64,1.67,2.58.68,4.34-.95,3.73-3.08-2-6.91,1.35-12.53,3.64-18.46,1.3.18,2.63.28,3.91.57,6.73,1.57,7,2,4.09,8.1C234,458,234,460.42,234,462.89Z"/><path class="cls-5" d="M353.25,452a6.76,6.76,0,0,1,2.58,6c-7,3.31-12.87,8.16-18.2,13.75-5.53,5.81-5.62,5.72-10.67-1,5-6.89,11.83-11.49,19.17-15.49,1.56-.85,3.52-1.22,4-3.34Z"/><path class="cls-6" d="M227.15,447c-2.29,5.93-5.63,11.55-3.64,18.46.61,2.13-1.15,3.76-3.73,3.08-1.58-.41-3.09-1.1-4.64-1.67a18,18,0,0,1,1.93-14.35c1.38-2.42,2-4.73-1.61-5.84l-.09-2.44C219.49,444.28,223.76,443.75,227.15,447Z"/><path class="cls-6" d="M350.16,452c-.51,2.12-2.47,2.49-4,3.34-7.34,4-14.18,8.6-19.17,15.49-.57.33-1.15.63-1.7,1-1.55,1-2.37,4.4-5.07,1.86s-.29-4.11,1.33-5.73a67.27,67.27,0,0,1,14.79-11c1.49-.84,3.67-1.09,3.74-3.5,4.44-3.19-.37-3.1-1.53-4.31C342.65,449,346.38,450.61,350.16,452Z"/><path class="cls-6" d="M211.3,469.93c-.11,3.32,1.43,6.55.54,9.91-8.56.17-9.31-.67-8.75-9.89,2.6-.29,5.3.12,7.8-1C211,469.26,211.16,469.6,211.3,469.93Z"/><path class="cls-4" d="M66.09,371.48a11.48,11.48,0,0,1,11.55-11.29,11.22,11.22,0,1,1-.5,22.44A11.07,11.07,0,0,1,66.09,371.48Zm13.37-3.89c-3.15-1.72-5.58-.52-6.85,2.37-1.18,2.68-.58,5.18,2.85,6,3.44,1.72,5.74.11,7-2.9C83.52,370.43,82.52,368.29,79.46,367.59Z"/><path class="cls-14" d="M314.48,292c4.06,0,6.9-.19,9.71,0a11.44,11.44,0,0,1,10.68,11.71c.07,6.23-3.23,10.07-10,10.67-11.27,1-22.57,1.57-33.86,2.34a17.12,17.12,0,0,0-6.3,1.39c-3.6,1.71-6.17,4.2-5.45,8.52.74,4.5,3.94,6.43,8.22,6.47,4.65,0,9.31-.23,14-.43,3.82-.16,7.64-.57,11.46-.61,8.48-.11,10.57,2.06,11,11,.37,7.91-2.71,11.3-10.66,11.9-7.79.59-15.59,1.1-23.36,2-5.63.64-7.81,3.45-7.48,8.61s2.93,7.87,8.47,7.71c10.64-.32,21.27-1.05,31.9-1.63,1.33-.07,2.66-.17,4-.36,10.61-1.54,13.48,3.62,13.08,14.64-.19,5.33-4.33,7.68-9.26,8.08-13.26,1.07-26.54,2-39.82,2.9-7,.49-13.94,1.08-20.92,1.33-6.26.22-8.27-1.22-9-7.43-1.79-15.53-3.27-31.1-4.66-46.67-1.15-12.75-2.2-25.52-2.9-38.3-.39-7.23,1.17-9,8.21-9.89C279.47,293.64,297.63,293.41,314.48,292Z"/><path class="cls-12" d="M252.17,369a7.07,7.07,0,0,0-4.47-.76C243.36,366.09,239,364.1,234,364l.13,0-1.67-.44c-4.28-1.21-8.53-2.58-12.86-3.59-9.27-2.17-13.06-.32-17.7,8.14-2,3.55-3.13,7.79-7.74,9.09-4.94-13.27-7.82-26.45,1.91-39,11.69,7.82,22.89,6,32.41-4.8,3.68-4.18,2.29-8.6,1.77-13.12,6,6.37,5.44,12-1.42,17.08-1.93,1.43-4.73,1.86-5.62,4.58l-1.53.89c.28.3.54.83.85.87.94.09,1.38-.59,1.62-1.41l2.86-.1c3.08,4.45,7.27,3.22,11.05,1.67,4-1.63,7.59-4,11.37-6.09A189.72,189.72,0,0,1,252.17,369Z"/><path class="cls-12" d="M359.94,373l-5.21.19c-3.6-3.58-7.7-5.31-12.76-3.38-6.59-5.72-14.43-3.81-22-3.48-2.65.11-5.28.55-7.93,0a4.52,4.52,0,0,1,4.67-2.24c6.35.43,12.57-1,18.87-1.14,10.56-.31,15.14-3.53,15.94-12.67.75-8.53-1.92-17.82-12.84-17a14.57,14.57,0,0,0-12.67-3c-4.51-3.27-9.71-4.07-15.09-4.26,1.36-2.29,3.63-1.83,5.75-2q18-1.42,35.94-3a49.63,49.63,0,0,0,5.33-1A496.86,496.86,0,0,1,359.94,373Z"/><path class="cls-2" d="M338.71,333.24c10.92-.8,13.59,8.49,12.84,17-.8,9.14-5.38,12.36-15.94,12.67-6.3.18-12.52,1.57-18.87,1.14a4.52,4.52,0,0,0-4.67,2.24,45.49,45.49,0,0,1-12.38.72l.81-4.82L320.92,360l7.95-.93c8.06,0,11.83-3.65,12.23-11.69A31.61,31.61,0,0,0,338.71,333.24Z"/><path class="cls-6" d="M342,369.82c5.06-1.93,9.16-.2,12.76,3.38,1.65,4.91,3,9.84,2.29,15.14-1,7-6.89,11.38-13.25,9.62,6.69-7,6.86-17.86.37-24.56C343.42,372.2,342.69,371,342,369.82Z"/><path class="cls-6" d="M338.71,333.24a31.61,31.61,0,0,1,2.39,14.1c-.4,8-4.17,11.71-12.23,11.69-.07-1.5,1.17-2.32,1.8-3.46A18.93,18.93,0,0,0,329,335l.06.07c-.27-.3-.54-.6-.82-.89q-1.06-2-2.15-3.95A14.57,14.57,0,0,1,338.71,333.24Z"/><path class="cls-15" d="M344.14,373.4c6.49,6.7,6.32,17.54-.37,24.56-2.69.68-5.07,2.7-8.11,1.86,9.79-5,10.93-13.37,8.88-23A32.62,32.62,0,0,1,344.14,373.4Z"/><path class="cls-15" d="M329,335a18.93,18.93,0,0,1,1.72,20.55c-.63,1.14-1.87,2-1.8,3.46l-7.95.93c7.28-3.72,8.83-10.1,8.24-17.53C329,340,329,337.49,329,335Z"/><path class="cls-15" d="M340,297.12c4.9,5.93,5.09,12.5.52,18.49-.89,1.17-1.84,2.3-2.76,3.45l-6.17.76C339.79,314.25,341.25,306.19,340,297.12Z"/><path class="cls-6" d="M300.5,362.21l-.81,4.82a25.3,25.3,0,0,1-8.58.6c-.16-2.38,1.62-3.67,2.92-5.23Z"/><path class="cls-6" d="M299.1,322.23c-.88,1.57-1.77,3.14-2.65,4.72l-5.13.68c-3.79-1.49-1.18-3,0-4.46Z"/><path class="cls-15" d="M291.32,323.17c-1.18,1.48-3.79,3,0,4.46a22,22,0,0,1-2.4.33c-1.48,0-3.23,0-3.58-1.75-.45-2.22,1.63-2.51,3.1-3A10.61,10.61,0,0,1,291.32,323.17Z"/><path class="cls-13" d="M294,362.4c-1.3,1.56-3.08,2.85-2.92,5.23-2.19.25-3.43-1-2.87-2.88C289.07,361.9,291.66,362.13,294,362.4Z"/><path class="cls-15" d="M328.19,334.2c.28.29.55.59.82.89C328.34,335.16,328.24,334.7,328.19,334.2Z"/><path class="cls-14" d="M135.72,353c-.86-29.29,24.58-52.45,55.35-50.21,13.48,1,24.79,6.21,32.22,18,3.26,5.19,2.61,7.77-2.46,11.32a48.4,48.4,0,0,1-6,3.62c-6.76,3.39-8.61,3.18-14.24-1.92-7.7-7-16.36-9.81-26.11-5.23s-13,13-13.53,23.23c-.38,8,2.28,15.1,5.75,21.9,3.89,7.6,10.57,11.28,19.14,11.31s15.12-3.43,19.33-11c.89-1.59,1.54-3.32,2.44-4.9,2-3.53,4.85-5.39,9.1-4.24,2.72.74,5.51,1.26,8.2,2.11,6.72,2.13,7.76,4.34,5.44,11.15-5.66,16.61-22.1,28.51-40.71,29.8-33.61,2.33-51-22.65-53.57-48.5C135.89,357.37,135.85,355.2,135.72,353Z"/><path class="cls-5" d="M196,338.26c-9.73,12.55-6.85,25.73-1.91,39-1.94,1.93-4.33,2.22-6.89,1.93-.85-1.42-1.65-2.86-2.55-4.24-6.7-10.34-10.13-31.4,3.56-41.35A12.35,12.35,0,0,1,196,338.26Z"/><path class="cls-6" d="M188.25,333.6c-13.69,9.95-10.26,31-3.56,41.35.9,1.38,1.7,2.82,2.55,4.24a13.67,13.67,0,0,1-13.1-4.72c.16-1.9-.64-3.57-1.3-5.27-6-15.41-2.59-27,10.73-36.16C185.17,332.9,186.8,332.5,188.25,333.6Z"/><path class="cls-6" d="M234,364c5,.08,9.39,2.07,13.73,4.24,2.13,4.52,1.47,8.87-.18,13.46-6.31,17.66-20.17,25.92-37.18,30.4-1.63.44-3.28,1-4.25-1.12l-.07,0a1.46,1.46,0,0,0,2-1l-.06,0a8.84,8.84,0,0,0,2,.14c13.86-2.18,30.07-20.08,30.87-34.14.16-2.78-.4-5.34-3.55-6.35Z"/><path class="cls-15" d="M237.3,369.67c3.15,1,3.71,3.57,3.55,6.35-.8,14.06-17,32-30.87,34.14a8.84,8.84,0,0,1-2-.14c1.57-2.4,4.38-2.82,6.63-4.11C228.66,397.86,236.44,385.94,237.3,369.67Z"/><path class="cls-15" d="M183.57,333c-13.32,9.15-16.76,20.75-10.73,36.16.66,1.7,1.46,3.37,1.3,5.27-7.76-9.69-9.28-20.72-5.43-32.11C170.88,335.93,176.46,332.73,183.57,333Z"/><path class="cls-6" d="M232.43,363.62l1.67.44Z"/><path class="cls-15" d="M208.07,410a1.46,1.46,0,0,1-2,1C206.31,409.9,207.15,409.86,208.07,410Z"/><path class="cls-16" d="M444.39,289.4c16.63,0,33.26-.16,49.89.06,10.39.13,15,7.31,11.53,17.21-1.34,3.79-4.21,5.43-8.07,5.47-5,.06-10-.06-15,.06-7.42.17-9.62,2.07-9.87,9.47-.58,16.95-.84,33.91-1.26,50.87-.09,3.48-.32,7-.51,10.45-.32,5.75-2.44,8.09-8.1,8.87a27.91,27.91,0,0,1-4,.14c-9.73,0-11.7-1.93-11.65-11.7.09-19.13.35-38.26.46-57.39.05-8.92-2.27-11.11-11.25-11.25-5-.08-10-.38-14.95-.48-4-.07-6.09-2.18-6.67-6-.21-1.31-.48-2.62-.57-3.95-.58-9,1.62-11.87,10.54-12.51,6.45-.47,13-.09,19.45-.09Z"/><path class="cls-14" d="M390.15,319.55q0,31.67,0,63.32c0,7.48-1,8.56-8.45,9.32-.5.05-1,.18-1.49.19-12.28.3-13.18-1.48-13.73-11.75-.82-15.28-1.1-30.58-1.59-45.88-.35-10.8-.77-21.6-1-32.4-.15-8.24,4.28-13.08,12.41-14,7.1-.8,12.16,3.11,12.47,10.23s.07,14,.07,21Z"/><path class="cls-5" d="M224.12,342.35c-.24.82-.68,1.5-1.62,1.41-.31,0-.57-.57-.85-.87l1.53-.89Z"/><path class="cls-16" d="M443.49,444.31c5,0,10-.06,15,0,1.44,0,3.78.44,1.89,2.5-11.65,12.7-14.26,29.43-20.16,44.67-4.38,11.32-7.31,23.18-12.66,34.14-11.95,24.48-40.48,32.55-63.42,17.88-9.91-6.34-14.53-15-12.25-27.11,3.24-17.16,7.1-34.2,9.61-51.5.75-5.15.54-9.95-1.72-14.58-1.53-3.13-.52-4.22,2.72-4.29,8-.17,16-.48,23.95-.67,3.36-.07,5,.93,2.36,4.3-3.11,4-4.67,8.79-6,13.64-3.78,14.13-7.66,28.25-11.25,42.43-1.66,6.54-2.5,13.27,2.44,19,7.49,8.63,21.48,7.84,28.85-1.61a62.33,62.33,0,0,0,11-21.14c4.33-15.2,8.34-30.48,12.5-45.72.58-2.13,1.06-4.37.3-6.4-1.68-4.47.16-5.67,4.31-5.52s8.32,0,12.49,0Z"/><path class="cls-12" d="M340.05,453.46c-.07,2.41-2.25,2.66-3.74,3.5a67.27,67.27,0,0,0-14.79,11c-1.62,1.62-3.95,3.26-1.33,5.73s3.52-.82,5.07-1.86c.55-.37,1.13-.67,1.7-1,5.05,6.73,5.14,6.82,10.67,1,5.33-5.59,11.17-10.44,18.2-13.75.58,12.41-3.48,24.14-5.37,36.18-1.56,10-3.58,19.84-5.4,29.75-1.89.14-2.43,4.17-5.2,1.81,1.69-3.93,4.1-7.61,4.28-12.06.05-1.27.4-2.83-1.18-3.47s-2.48.58-3.26,1.64A75.88,75.88,0,0,0,333,522.33c-4.25,8.31-9.48,15.9-17.07,21.61l-1.07-1.21c5.89-7.42,12.39-14.43,16-23.39,1.35-3.37,2.57-6.84,1.4-10.65-.87-2.84-2.4-3.25-4.87-1.94-3.29,1.73-4.77,5-6.88,7.77-7.07,9.15-15.65,15.79-27.53,17.18-1.61-3.08-4.18-5.69-4.82-9.24-3.38-18.93-.72-36.07,14.83-49.32,5.09,5.21,5.07,5.19,10.08-.66C320.44,463.87,329.13,457.07,340.05,453.46Z"/><path class="cls-15" d="M474.06,444.48c1.9,1.6.56,2.7-.73,3.47-8.92,5.33-12.91,14.11-16.18,23.28-5.48,15.35-10.72,30.78-16,46.19a92.87,92.87,0,0,1-7.26,16.41c-5.47,9.41-13.28,16-23.78,19.25l-2-.09c17.61-8,25.34-23.5,31.05-40.67,5-15.15,10.56-30.13,15.73-45.23A38.53,38.53,0,0,1,474.06,444.48Z"/><path class="cls-15" d="M401.78,445.14c1.9,1.1,2.18,2.28.31,3.76-6.61,5.24-9.37,12.56-11.26,20.45-1.85,7.73-3.94,15.4-6.12,23-2.77,9.71-5.74,19.38-5.31,29.66-4.73-3.12-4-8-2.94-12.12,4.05-16.4,8.52-32.7,13-49C391.29,454,396.56,449.55,401.78,445.14Z"/><path class="cls-14" d="M319.09,526.23c-.46,3.22-2.57,5-4.25,6.91-11.49,12.83-24.89,22.34-43,22.05-17.08-.28-38.4-10.77-45.31-36.81-8.5-32.06,16.8-66.12,41.71-70.95a113.57,113.57,0,0,1,55.23,3c1.06.32,2.58.35,2.87,1.67s-1.25,1.78-2.1,2.42c-4.94,3.69-10,7.24-14,12-1.34,1.57-2.58,1.94-4.1.25-5.92-6.59-13.26-6.07-20.74-3.83-12.87,3.85-19.57,13.75-24,25.54-3.19,8.47-3.31,17.39-1.95,26.14,2.68,17.31,15.61,26,33.38,23a48.38,48.38,0,0,0,21.83-9.27C315.78,527.47,316.69,526.07,319.09,526.23Z"/><path class="cls-5" d="M303,473.14c-15.55,13.25-18.21,30.39-14.83,49.32.64,3.55,3.21,6.16,4.82,9.24-3.13.4-6.19,2.11-9.41.44.83-2-.82-3.08-1.73-4.35A26,26,0,0,1,277,516.4c-3.15-20.19,2.19-36.86,20.08-48.3C300.21,468.46,301.92,470.42,303,473.14Z"/><path class="cls-6" d="M297.12,468.1c-17.89,11.44-23.23,28.11-20.08,48.3a26,26,0,0,0,4.79,11.39c.91,1.27,2.56,2.35,1.73,4.35-5.83-.08-10.53-2.3-13.84-7.22.5-2.22-.42-4.27-.87-6.35a49.14,49.14,0,0,1,4.57-33.76c3.45-6.74,9.1-11.15,14.66-15.78l-.05,0a4.05,4.05,0,0,0,3.66-.85A8.35,8.35,0,0,1,297.12,468.1Z"/><path class="cls-6" d="M315.94,543.94c7.59-5.71,12.82-13.3,17.07-21.61a75.88,75.88,0,0,1,6.69-10.44c.78-1.06,1.71-2.25,3.26-1.64s1.23,2.2,1.18,3.47c-.18,4.45-2.59,8.13-4.28,12.06C330.74,539,320,550.41,304.68,556.5c-2.92,1.16-6,1.93-9,2.84-1.57.47-2.65.11-2.66-1.79l.77-.62C303,555.67,309.76,550.34,315.94,543.94Z"/><path class="cls-15" d="M288.08,469c-5.56,4.63-11.21,9-14.66,15.78a49.14,49.14,0,0,0-4.57,33.76c.45,2.08,1.37,4.13.87,6.35-5-5-5.12-11.72-5.44-18-.63-12.32,3.64-23.1,12.17-32C279.57,471.59,283.17,468.9,288.08,469Z"/><path class="cls-10" d="M222.11,483.07c0-2.31-.08-4.61-.08-6.91,0-6.51.67-7.09,7.11-6.12C226.89,474.43,225.43,479.25,222.11,483.07Z"/><path class="cls-15" d="M291.69,468.2a4.05,4.05,0,0,1-3.66.85C289,467.69,290.39,468.14,291.69,468.2Z"/><path class="cls-14" d="M504.63,444.89c15.16.18,30.27.67,45.13,4.14a42.26,42.26,0,0,1,12.92,5.12c15.32,9.5,16.79,29.13,3,40.91-3.79,3.24-7.64,6.43-11.58,9.49-3.55,2.75-5.3,6.35-3.77,10.51,4.44,12.08,6.43,25.31,15.71,35.24,1.94,2.07.71,3.11-1.1,4.19a12.85,12.85,0,0,1-17.2-3.88c-6.84-10.52-13.28-21.3-19.94-32-3.77-6-15.51-9.45-22-6.49a5.59,5.59,0,0,0-2.7,3.44c-3.78,10.29-6.25,20.74-2.43,31.57,1,2.82.22,3.72-2.48,3.64-8.78-.25-17.6.78-26.36-.69-1.85-.31-3.82-.72-2.36-2.91,7.83-11.77,8.47-25.76,12.1-38.79,4-14.4,7.05-29.06,10.69-43.57,1.51-6,1.24-11.52-3-16.38-.66-.74-1.52-1.52-1.11-2.6.54-1.45,1.95-1,3-1C495.64,444.86,500.13,444.89,504.63,444.89Zm16.47,55.76c6.63-.62,12.94-1.16,18.49-4.72,5.85-3.75,7.65-9.43,7.44-15.92-.19-6.17-4.27-9.51-9.42-11.75-5.77-2.5-12-2.65-18.12-3-4.09-.2-6.21,1.72-7.14,5.42-1.47,5.81-3,11.6-4.38,17.43-2.3,9.65-1.05,11.28,9,12C518.44,500.28,519.93,500.51,521.1,500.65Z"/><path class="cls-16" d="M200.75,445.94a16.72,16.72,0,0,0,3.86.81c3.58-.06,3.89,1.4,2.52,4.29a20.2,20.2,0,0,0-1.37,5.25c-.64,3.7.06,7.62-6.57,6.19-3.59-.78-4.8,4.19-5.16,7.83-.11,1.23.66,2.94-.92,3.55-1.79.7-3.24-.53-4.37-1.74-3.3-3.57-3.9-8-3.52-12.58.15-1.75,1.29-1.89,2.83-1.93,6-.17,7.51-1.39,7.78-7.09C196,447,197.27,445.58,200.75,445.94Z"/><path class="cls-15" d="M211.3,469.93c-.14-.33-.28-.67-.41-1,.35-1.44,1.36-3.1,1-4.27-2.35-6.8,1.18-12.27,3.62-18,3.6,1.11,3,3.42,1.61,5.84a18,18,0,0,0-1.93,14.35C214.86,469.12,213.53,470.08,211.3,469.93Z"/><path class="cls-6" d="M79.46,367.59c3.06.7,4.06,2.84,3,5.48-1.24,3-3.54,4.62-7,2.9A10.93,10.93,0,0,1,79.46,367.59Z"/><path class="cls-15" d="M79.46,367.59a10.93,10.93,0,0,0-4,8.38c-3.43-.83-4-3.33-2.85-6C73.88,367.07,76.31,365.87,79.46,367.59Z"/><path class="cls-6" d="M790.23,367.32c4.07.69,4.73,3.72,3.32,6.57-1.63,3.31-4.78,3.53-7.87,1.39A12.53,12.53,0,0,1,790.23,367.32Z"/><path class="cls-15" d="M790.23,367.32a12.53,12.53,0,0,0-4.55,8c-2.67-1.4-2.56-3.66-1.35-5.76S787.36,365.61,790.23,367.32Z"/><path class="cls-5" d="M597,364c.19-1.77,1.42-2,2.86-2,11.78-.08,14.42-7.71,13.68-19.71-.13-2.06-1.24-4.06-1.89-6.09,8.36,0,13.34,5.69,12.06,13.89-2,12.87-7.71,16.88-20.82,14.65C600.93,364.43,599,364.24,597,364Z"/><path class="cls-4" d="M679,346.82a59.59,59.59,0,0,1-6.42-.6c-6.66-1.28-9.55-4.93-8.84-11,.81-6.86,3.81-9.42,10.87-9.4a35.82,35.82,0,0,1,11.26,1.76c5.32,1.77,9.07,6.66,8.48,10.93-.53,3.76-5.19,7.41-10.36,8a48.64,48.64,0,0,1-5,0Zm-6.56-6.91c2.65,1.69,5.56,1,8.41.91a14,14,0,0,0,3,.05c1.81-.35,3.8-.9,4-3.1s-1.45-3.21-3.29-3.83a21.33,21.33,0,0,0-2.4-.52c-2.24-1.4-4.68-1.38-7.18-1.05-2.71-.57-4.58.32-5.27,3.13C669,337.93,670.11,339.3,672.41,339.91Z"/><path class="cls-4" d="M521.1,500.65c-1.17-.14-2.66-.37-4.15-.48-10-.74-11.28-2.37-9-12,1.39-5.83,2.91-11.62,4.38-17.43.93-3.7,3-5.62,7.14-5.42,6.17.31,12.35.46,18.12,3,5.15,2.24,9.23,5.58,9.42,11.75.21,6.49-1.59,12.17-7.44,15.92C534,499.49,527.73,500,521.1,500.65Zm-4.43-6.33a23.74,23.74,0,0,0,8-.12c4.08.05,8-.5,11.28-3.24,5.57-3.66,6.81-9.38,3-13.95a9.9,9.9,0,0,0-9-3.89c-2.63-1.69-5.49-1.33-8.35-.92-2.19-.6-3.45.23-4,2.43q-2,8.16-4,16.31C512.89,493.72,514.09,494.61,516.67,494.32Z"/><path class="cls-6" d="M674.87,332.37c2.5-.33,4.94-.35,7.18,1.05-1.43,2.3-1.17,4.87-1.23,7.4-2.85.14-5.76.78-8.41-.91C672.51,337.16,673.67,334.75,674.87,332.37Z"/><path class="cls-2" d="M680.82,340.82c.06-2.53-.2-5.1,1.23-7.4a21.33,21.33,0,0,1,2.4.52c1.84.62,3.44,1.73,3.29,3.83s-2.15,2.75-4,3.1A14,14,0,0,1,680.82,340.82Z"/><path class="cls-15" d="M674.87,332.37c-1.2,2.38-2.36,4.79-2.46,7.54-2.3-.61-3.41-2-2.81-4.41C670.29,332.69,672.16,331.8,674.87,332.37Z"/><path class="cls-5" d="M530,473.12a9.9,9.9,0,0,1,9,3.89q-1.51,7-3,13.95c-3.29,2.74-7.2,3.29-11.28,3.24A183.58,183.58,0,0,1,530,473.12Z"/><path class="cls-6" d="M530,473.12a183.58,183.58,0,0,0-5.3,21.08,23.74,23.74,0,0,1-8,.12q2.49-11.06,5-22.12C524.5,471.79,527.36,471.43,530,473.12Z"/><path class="cls-15" d="M521.64,472.2q-2.48,11.06-5,22.12c-2.58.29-3.78-.6-3.06-3.38q2.08-8.15,4-16.31C518.19,472.43,519.45,471.6,521.64,472.2Z"/><path class="cls-15" d="M536,491q1.51-7,3-13.95C542.78,481.58,541.54,487.3,536,491Z"/></g></g></svg>