<svg xmlns="http://www.w3.org/2000/svg" viewBox="0 0 283.46 593.05"><defs><style>.cls-1,.cls-2{fill:#191c34;}.cls-1,.cls-3{stroke:#191c34;}.cls-1,.cls-3,.cls-4,.cls-5{stroke-miterlimit:10;}.cls-1{stroke-width:0.25px;}.cls-3,.cls-4,.cls-5{fill:none;stroke-width:0.75px;stroke-dasharray:3 5;}.cls-4{stroke:#cbbba0;}.cls-5{stroke:#dfd9c9;}.cls-6{fill:#dfd9c9;}</style></defs><g id="Capa_2" data-name="Capa 2"><g id="Capa_1-2" data-name="Capa 1"><path class="cls-1" d="M87.67,185.57c0,.3,0,.74.13.89,2.26,1.91,2.18,4.77,3,7.27a1.16,1.16,0,0,0,.54.74l.38.72a2.83,2.83,0,0,0,0,1.63,8.12,8.12,0,0,0,0,2.65,7.58,7.58,0,0,0,.37,4.39l.08.86a4.91,4.91,0,0,0,1,4.54,2.07,2.07,0,0,0,.19.32.46.46,0,0,0,.39.56l.49.93a.8.8,0,0,0,.49,1l.43.53a.44.44,0,0,0,.38.51l.36.71a1.05,1.05,0,0,0,.59,1.21c2.15,2,2.09,4.41,1,6.9a3.78,3.78,0,0,0-.27,1.84,14.35,14.35,0,0,0,2,6.74.42.42,0,0,0,.29.57l.34.61a2.83,2.83,0,0,0,.79,1.73l.19.83c-.24,2.93.39,5.83.25,8.75l0,.91a1.39,1.39,0,0,0-.26,1.56l-.18,1.3a10.47,10.47,0,0,0-.89,4.38v1.24c-.09.81-.47,1.3-1.36,1.29s-1.57,0-2.36,0c-6.06,0-12.13-.06-18.2,0-1.88,0-2.07.42-1.2,2.23l0,0a.33.33,0,0,0,.18.4l.15,1.81a58.49,58.49,0,0,0,0,11.07v4.64a7.88,7.88,0,0,0-.07,3.45l-.07,1.34a2,2,0,0,0,0,1.48.42.42,0,0,0,.08.39c-.21,1.52-.21,1.51-1.48.86a1.78,1.78,0,0,0-.66,0,4.45,4.45,0,0,1-2.15-1.33c-.7-1.22-2-1-3-1.18l-.05-.05c-.31-1.08-1-.83-1.76-.54-1-.33-2.21.1-3-.92a.46.46,0,0,0-.27-.61A2,2,0,0,0,63,274.52a5.56,5.56,0,0,0-2.76-.3,1.89,1.89,0,0,0-1.73,0l-.82-.15a.85.85,0,0,0-1-.55,1.42,1.42,0,0,0-.33-.21c-.05-.33-.24-.44-.56-.38a3.35,3.35,0,0,1-1.48-2.79c-.07-.61,0-1.23-.57-1.72-1.5-1.36-2.34-3.27-3.89-4.62a6.06,6.06,0,0,1-1.2-2c-.5-1.06-.45-2.51-2.18-2.59-.44,0-.6-.66-.73-1.13A3.32,3.32,0,0,0,45,256.4a8.93,8.93,0,0,0,.34-5.88c.06-.11.12-.22.17-.33a1.19,1.19,0,0,0,.58-1.4c-.31-2.29-.67-4.59-1-6.88-.1-.66-.56-.87-1.17-.88l-.51-.46L43.25,239l.55-.59c2-.22,2.06-.21,2.43-2.06a8.53,8.53,0,0,0,.55-3,5.48,5.48,0,0,0,.36-2.34l2-4.33L50.36,225a4.34,4.34,0,0,0,1.14-2.59c.35-.53.9-.48,1.42-.52,1.22-.07,1-.65.5-1.36l-.06-2.82a2.51,2.51,0,0,0-.48-2l-.05-2.29c.5-1.57,0-3.27.6-4.83l.21-.32a.35.35,0,0,0,.38-.42l.12-.11c.62-.56.54-1.1,0-1.65a2.39,2.39,0,0,0-.21-.34c-.27-.73-.62-.65-1-.1-1.06.49-1.91.38-2.4-.8l-.1-.6-.26-1.37a11.11,11.11,0,0,1,.7-3.59,1.47,1.47,0,0,0-.69-2.14,4.92,4.92,0,0,1-.92-5.14c.83-.21,1.76-.12,2.44-.78,1.08-.23,2.21.37,3.27-.17.36,0,.49-.19.45-.53a10.1,10.1,0,0,1,0-1.65c.39-2.41,1.84-5.42,4.41-5.79A4.79,4.79,0,0,0,62.3,182c1.14-.93,1.79-.72,2.69.48.23.31.45.82.74.87,1.75.33,1.69,1.58,1.59,2.88,0,.48-.12,1.06.46,1.19,1.08.24,2.22.49,3.13-.41a5.83,5.83,0,0,0,1.46-1.85c.51-1.34,1.38-1.5,2.62-1.32a4.2,4.2,0,0,0,2.77-.4.45.45,0,0,0,.59-.2,2.49,2.49,0,0,1,3.24,1.07c0,.58.26,1,.89,1l.81.29a.49.49,0,0,0,.76,0A13.71,13.71,0,0,1,87.67,185.57Z"/><path class="cls-2" d="M22.84,408.54c2.28-.51,4.68-.15,6.94-.9a1.11,1.11,0,0,1,.47.05c.82.14,1.79,1.27,2.35.5a10.44,10.44,0,0,0,1.3-3.7c.16-.66-.51-.88-1-1.05a14.22,14.22,0,0,0-5.66-.33c-2.26.23-2.39.12-2.37-2.23a5.77,5.77,0,0,0,0-1.66c-.45-1.6-.23-2.81,1.32-3.77a1.33,1.33,0,0,0,.22-2.24c-1.16-1-.8-1.86-.14-2.9.91-1.42.89-1.48-.53-2.33a4.48,4.48,0,0,1-1.83-1.78c-1-2-1-2.32.76-3.75,1.13-.92,1-1.59-.35-2.18a5.5,5.5,0,0,1-3.61-5.67c.07-2.27-.44-4.57.49-6.8a2.77,2.77,0,0,0-.19-2.1,3.14,3.14,0,0,1,.27-2.72,2.49,2.49,0,0,1,2.76-1.7c1.8.11,1.82-.06,1.53-1.89-.13-.78-.17-1.57-.23-2.36,0-.55.14-1.23-.11-1.64-1.29-2.06-.86-4.47-1.46-6.65-.39-1.39.21-2.68.43-4a13.47,13.47,0,0,0-.72-6c-.32-1.11-.76-2.08.16-3.08a2.67,2.67,0,0,0,.47-1.57,4.22,4.22,0,0,1,.32-1.38c1-1.87,1.69-3.67.61-5.83-.39-.79,0-1.7,1.15-2.24,1.41-.66,1.66-1.72,1.07-3.13s-.44-2.8-.73-4.19a1.25,1.25,0,0,1,1-1.64A3.08,3.08,0,0,0,30,314.18a7.4,7.4,0,0,0,1-4.35c-.05-.31-.14-.62-.18-.93-.54-4,.68-5.94,4.61-7.19a9.57,9.57,0,0,0,2-.78,2.05,2.05,0,0,0,.38-3.46,3.1,3.1,0,0,1-1-2.09c-.1-1.42-.26-2.84-.44-4.25a8.61,8.61,0,0,0-1.17-3.82c-.81-1.22-.9-2.69-1.4-4a2.29,2.29,0,0,1,.49-2,2,2,0,0,0-.12-2.59c-.86-1-.49-2.09-.13-3.16.53-1.56,1.38-3.09.12-4.72-.24-.3,0-.76,0-1.15.15-2.79,1.73-5.15,2.3-7.81a1,1,0,0,1,.6-.66c1.5-.35,2-2.28,3.73-2.31.55,0,.66-.81.88-1.31a3.82,3.82,0,0,1,2.26-2.32c1.46-.44,1.41-1.45,1.47-2.59,0-.78-.84-1.7.29-2.34a9,9,0,0,1-.34,5.89c-1.92.1-2.41,1.68-2.81,3.07-.3,1-.49,1.74-1.76,1.71s-1.87,1.09-2.74,1.74c-.62.46-.13,1.18,0,1.78a1.54,1.54,0,0,1-.87,1.55,1.66,1.66,0,0,0-.84,1.83c.6,2-.09,3.88,0,5.81a2.55,2.55,0,0,1-.45,1.8,1.89,1.89,0,0,0,0,2.58,2.76,2.76,0,0,1,0,3.54,2.46,2.46,0,0,0-.18,2.63c1.09,3.21,2.52,6.34,2.48,9.86a3.35,3.35,0,0,0,1,2.82c1,.79,1.59,1.75.61,2.84-.72.81-.6,2.32-1.91,2.54-1.47.25-2.59,1.17-3.86,1.78-1.79.85-1.8.92-1.56,2.94.3,2.52.73,5-.89,7.34a2.84,2.84,0,0,0-.34,1.6,1.74,1.74,0,0,1-1.8,2c-1.06.05-1.05.73-1.09,1.46a2.33,2.33,0,0,0,.47,1.56,1.79,1.79,0,0,1,0,2.4,2.82,2.82,0,0,0-.44,1.58,1.76,1.76,0,0,1-.82,1.35c-1.33,1-1.3,1-.13,2.16,1.33,1.29,1.23,2.34-.33,3.42-.26.18-.78.27-.8.45-.25,1.82-1.1,3.49-1.42,5.25-.17.94.68,2.06,1.08,3.1a1.11,1.11,0,0,0,1.16.66,12.55,12.55,0,0,1,5.33.91c1.08.47,2-.21,2.71-1a1.63,1.63,0,0,0,.12-2.35,1.48,1.48,0,0,1-.1-2c1.31-1.47,2.6-3,4.79-3.25s4.36-1.74,6.82-1.52c.46,0,1-.44,1.45-.75.91-.62,2.76-4.57,2.45-5.62-.47-1.52.24-2.44,1.29-3.25a10.66,10.66,0,0,1,4.44-2.2,5.53,5.53,0,0,0,4.18-3.17,3.33,3.33,0,0,1,2.71-2,5.76,5.76,0,0,0,3.93-2.84c2.47-3.57,5.44-6.29,9.81-7.18.7-.14,1-.46.79-1.14s-.19-1.37-.74-1.71c-1.63-1-1.54-2.65-1.53-4.23q0-6.92.1-13.81a5.68,5.68,0,0,0-.65-3.19,1.73,1.73,0,0,1,.65,0c1.28.65,1.27.66,1.49-.85a7.54,7.54,0,0,0,3.44.71,3.66,3.66,0,0,1,3.44,2.49c.62,1.66.48,3.09-1.07,4.19a1,1,0,0,0-.54,1.05,8.75,8.75,0,0,1,2.21,2c1.27,1.77,2.92,1.93,4.85,1.42s2.3-.36,2.89,1.37A3.85,3.85,0,0,0,95.07,296c1.12.39,2.26.76,3.37,1.16a3.37,3.37,0,0,1,2.1,1.8c1,2.26,1.68,2.65,4,2.23a6.86,6.86,0,0,1,3.52.17c2,.72,4,1.37,6.25.7a1.87,1.87,0,0,1,1.15.23c1.46.67,2.94.35,4.44.26a29.29,29.29,0,0,1,9.41.75,33.08,33.08,0,0,1,12.2,6.56c.64.52,1.41,1.29,2.32.81s.48-1.43.49-2.18c0-6.27,0-12.53,0-18.8q.08-25.11.14-50.21c0-2.85-.14-3-2.9-3-5.72,0-11.43-.06-17.14-.06-2.13,0-2.26.15-2.29,2.31-.06,4.28.09,8.56-.25,12.84-.2,2.54-.15,2.55-2.8,2.58h-1.43L80.08,254c-.63,0-1.27,0-1.9,0-1.09,0-1.28.72-1.17,1.62-.88-1.81-.69-2.22,1.2-2.22,6.06,0,12.13,0,18.19,0,.79,0,1.58,0,2.37,0s1.26-.48,1.35-1.28a4.43,4.43,0,0,0,2.26.58c5.31,0,10.62,0,15.93,0,1.83,0,2.15-.24,2-2.07-.16-2.31,0-4.59,0-6.88q0-14.38.07-28.78c0-1.26-.15-2.53-.17-3.79,0-3.41-1.16-6.94,1.1-10.1.13-.18.1-.47.18-.69.86-2.24,1-4.64,1.56-6.95A7.61,7.61,0,0,0,123,190c-.22-1-.7-1.57-1.75-1.49-1.52.11-2.08-.63-2.23-2.09-.09-.91,0-2.07-.82-2.65-1.71-1.24-3.34-2.62-5.61-2.93-2.83-.39-5.23,1.61-8,1.25-1.25,1.13-2.59.73-3.73,0-2.9-1.91-6.16-1-9.26-1.34-.74-.09-1.19.36-1.22,1.13a11.31,11.31,0,0,0,0,3.07c.54,2.16.43,4.4,1,6.54a5,5,0,0,1,.33,2.79,1.11,1.11,0,0,1-.53-.74c-.82-2.5-.74-5.36-3-7.27-.17-.14-.1-.58-.13-.88.86-.73.64-1.75.67-2.67.13-4.11.24-4.2,4.42-3.49a7.72,7.72,0,0,0,.93.2c.63,0,1.26,0,1.89,0,.35,0,.73-.34.59-.57-.59-1-.34-2.48-1.61-3s-1.69-1.79-2-3c-.71-3,.23-5.95-.16-8.95a9,9,0,0,0-.88-3.57A18.18,18.18,0,0,0,88.44,156a7,7,0,0,1-2.62-3.86,3.42,3.42,0,0,0-1.15-1.76c-2.72-2.65-5.54-5.18-8.12-8a6.28,6.28,0,0,0-4.83-2.15c-1.34,0-2.69-.11-4-.08-1.56,0-2-.41-1.91-2,.06-1.1.32-2.19.46-3.29.23-1.79-.14-3.59.43-5.41a3.43,3.43,0,0,0-.94-3.3,10.46,10.46,0,0,1-2.31-4.09,4.63,4.63,0,0,0-3.91-3.37c-.48-.05-1.15-.08-1.22.44-.18,1.35-1.28,2.62-1.13,3.75.3,2.17-.63,4-.78,6.07-.09,1.23-.13,2.6-1.91,2.82-.63.07-.65.81-.85,1.32-.92,2.24-.12,4.46.46,6.51a11.27,11.27,0,0,1,.23,6,1.88,1.88,0,0,0,.47,2.16c.44.37.89.88.63,1.42-.81,1.75-1.21,3.87-3.33,4.59a2.23,2.23,0,0,0-1.61,1.53,64.55,64.55,0,0,1-1.85,6.38,2.5,2.5,0,0,0,0,1.41A3.42,3.42,0,0,1,46.76,167a3.11,3.11,0,0,0-1.5,2.51,14.6,14.6,0,0,0-.09,4.27c.47,2.23.62,4.7,3.37,5.8,1.48.6,1.61,1.55.56,2.86a3,3,0,0,0-.45,3.11c.54,1.57,1.36,3,2.05,4.54a2,2,0,0,0,1.3,1c-.68.66-1.61.56-2.43.77,0-1.55-1.32-2.44-1.81-3.79-.61-1.66-.45-3.45-1.19-5.07-.41-.9,1.39-1.26.78-2.24-.41-.67-1.7-.46-1.92-1.26-.75-2.69-2.71-5.08-2-8.13.3-1.4.44-2.82.74-4.21.24-1.11.6-2.18,2-2.33.8-.08,1-.57,1-1.32a20.58,20.58,0,0,1,1.73-8.3c.5-1.32,1.14-2.51,2.85-2.86a2.25,2.25,0,0,0,1-3.69,1.53,1.53,0,0,1-.37-1.71c1.32-3.31.61-6.59-.35-9.79-.83-2.78-.29-5,2-6.72a1.87,1.87,0,0,0,.87-1.35c.1-1.74.83-3.4.58-5.18a3.62,3.62,0,0,1,.35-2.31,5.42,5.42,0,0,0,.54-2.77c0-.55-.16-1.35.27-1.59,1.5-.81,2-2.56,3.42-3.4a3.34,3.34,0,0,0,1.68-2.15,2.31,2.31,0,0,1,1.06-1.53,3.22,3.22,0,0,0,1.53-2.57,24.06,24.06,0,0,1,3.13-8.13c.7-1.24.38-2.77,1.1-4.09.51-.93.89-1.56,2.07-1.51s2.15-.54,3.28-.44c1.86.16,2.39-1.59,1.54-3S73.81,87.89,73,86.62c-1.84-2.87-1.72-4.87.61-7.46a2.75,2.75,0,0,0,.72-2.61c-.52-2.46-.68-5-1.67-7.37-1.08-2.63-.38-5.49-.11-8.23.08-.76.78-1.19,1.47-1.44.93-.33.9-.94.63-1.71a4.86,4.86,0,0,0-1.19-2c-1.35-1.28-1-2.62-.33-4.12,1.83-4.07,5.29-6.22,9.15-7.83,2.2-.92,4.31-2,6.41-3.09a3,3,0,0,0,1.7-2.11c.82-3.39,1.69-6.76,2.57-10.13.38-1.46.81-2.9,1.23-4.35a3.44,3.44,0,0,0-.75-3.71c-1.66-1.76-1.42-2.05,0-4,1.24-1.77,2-3.89,4.14-4.89.55-.25.63-1.1.62-1.73,0-1.47.83-2.1,2.07-2.51,1-.34,2.06-.83,3.1-1.21A2.37,2.37,0,0,0,105,4a15,15,0,0,1,.47-2.09C106,0,108-.67,109.2.8c1,1.22,2.55,1.91,3.37,3.3.63,1.06,1.46,1.16,2.62,1.05,3.23-.32,6.47-.61,9.67.28,1.7.48,3.09,1.58,4.72,2.23a2,2,0,0,1,1.35,1.57c0,1.84,1,3.3,1.66,4.88a7.5,7.5,0,0,1,.27,1.47,22.93,22.93,0,0,0,2.69-5.21,49.68,49.68,0,0,0,1.68-4.95c.54-1.69.82-2,2.48-1.91,4.51.34,9-.29,13.54.17,1.27.13,2,.36,2.24,1.82.31,2,2.07,3.09,3.32,4.47a7.2,7.2,0,0,0,1.7,1.29,5.88,5.88,0,0,1,3,4.33A9.58,9.58,0,0,0,165.08,19a11.81,11.81,0,0,1,1.4,2.74,5.88,5.88,0,0,0,1.59,2.34,70.28,70.28,0,0,0,9.92,8.3,2.66,2.66,0,0,1,1.32,1.6c.48,2.13,2.13,3.06,4,3.72,2.07.76,4.27,1.21,6,2.69a2.25,2.25,0,0,0,2.27.26,3.67,3.67,0,0,1,3.93,1c2,1.72,4.21,3.07,6.14,4.87a35.14,35.14,0,0,0,3.7,3.61c2,1.41,4.28,2.36,6.17,3.94a3.78,3.78,0,0,0,1.8.55c1.26.21,2.55.25,3.26,1.59a1,1,0,0,0,.78.45c1.34-.14,2.18.85,3.23,1.35a24.26,24.26,0,0,0,2.73,1.41c1.67.57,2.11,2.27,3,3.57a20,20,0,0,0,1.16,2.06c1.48,1.77,1.45,3.67-.38,5a7.14,7.14,0,0,0-2.95,5.44,2.59,2.59,0,0,1-1.27,2.16c-3.12,1.91-3.74,4.91-3.57,8.23a9.1,9.1,0,0,1-1.52,5.13,1.26,1.26,0,0,1-1.17.69c0-.22,0-.44,0-.66,0-.37-.24-.54-.58-.34a.38.38,0,0,0-.12.57,2.71,2.71,0,0,0,.74.43c-.37,1-1.22,1.82-1.21,3,0,.75-.82.88-1.34,1.2s-.89.72-.7,1.35a1.21,1.21,0,0,0,1.32.81,15.59,15.59,0,0,0,2.36-.23,11.45,11.45,0,0,1,7.21.74,82.87,82.87,0,0,0,8.1,2.73,4,4,0,0,0,2.34.17,4.32,4.32,0,0,1,3.87.19.55.55,0,0,0,.46.06c1.69-.85,3-.63,3.9,1.19.25.5.87.24,1.18-.19.46-.64.8-1.38,1.29-2a4.15,4.15,0,0,1,6.07-.75c1.3,1,2.29.58,2.54-1,.07-.46,0-1,0-1.42s0-1,.21-1.13c2-.92,2.36-3.61,4.86-4.14,1.84-.39,2.87-2.32,4.31-3.5s2.23-3.19,3.37-4.77a6.29,6.29,0,0,0,.94-4.1c-.17-2.93.42-5.85,0-8.78a4.64,4.64,0,0,1,.6-2.27.91.91,0,0,1,1.16-.6c2.13.85,3.84-.34,5.57-1.18.68-.34,1.13-.47,1.66.08a1.21,1.21,0,0,0,.35.33c2.87,1.4,4.24,3.52,3.76,6.85-.23,1.65,1.12,2.93,1.95,4.24a3.84,3.84,0,0,1,.47,3.55,40,40,0,0,0-1.06,5.36,3.31,3.31,0,0,0,.39,2.53,2.67,2.67,0,0,1-.31,3.49,8.2,8.2,0,0,0-1.5,2.67,1.89,1.89,0,0,1-.95,1.31,13.63,13.63,0,0,0-5.46,4.37,1.78,1.78,0,0,1-1.45.69c-2.5,0-4.36,1.77-6.6,2.52-.58.19-.74.78-.91,1.32a6.24,6.24,0,0,1-4.33,4A3.21,3.21,0,0,0,259,112a7.46,7.46,0,0,1-3.43,3.17,1.93,1.93,0,0,0-1.25,2.42c.31,1.58,0,1.85-1.64,2.11a4.14,4.14,0,0,0-2.53,2,49.63,49.63,0,0,1-3.73,4.6c-1,1.08-1.32,2.66-1.9,4a2.76,2.76,0,0,1-1.68,1.82,3.73,3.73,0,0,0-2.14,2.36c-1.52,3.36-4,6.07-6.43,8.75a4.1,4.1,0,0,1-1.44.79c-.55.23-1.1.58-1.07,1.16.12,2.35-1.88,3.37-3.05,4.87a8.58,8.58,0,0,0-1.83,3,3.86,3.86,0,0,1-1.7,1.92c-1.57,1.19-1.74,1.8-1.17,3.65a7.2,7.2,0,0,1-.14,5.3c-.55,1.27-.32,2.8-.62,4.2a6.67,6.67,0,0,1-1.16,3,3.53,3.53,0,0,0-.62,3.32,5.25,5.25,0,0,1-1.61,5.38c-.71.64-1,1.13-.58,2a2.77,2.77,0,0,1,.14,2.51,2.14,2.14,0,0,0,.47,2.21,1.79,1.79,0,0,1-.19,2.57,2.63,2.63,0,0,0-.66,3c.88,2.41,1,5,1.49,7.45.29,1.59-.09,2.62-1.63,2.95-2,.43-2.6,1.54-2.91,3.35-.17,1-.45,2-.63,3a22.9,22.9,0,0,0,.74,9.64,7,7,0,0,1-.57,4.62c-1.31,3-.67,5.21,2,6.86,1.41.86,2.89,1.62,4.38,2.34a28,28,0,0,1,11,9.2c1.18,1.69,1,3-.35,4.73-2.27,2.81-3.16,5.76-1.31,9.21a6,6,0,0,0,5.61,3.48c2.07-.05,2.3.14,2.62,2.15a56.5,56.5,0,0,1,.47,7.12,5.54,5.54,0,0,1-1,3.35c-1.92,2.8-3.52,5.81-5.34,8.68a29.92,29.92,0,0,1-3.84,4.52,5,5,0,0,0-1.7,3.79c.19,2.87-1.7,4.3-3.71,5.58-4.5,2.87-9.46,4.67-14.48,6.47a106.37,106.37,0,0,1-15.14,3.95c-5.65,1.13-11.28,2.62-17.11,2.79-2.93.09-5.86.15-8.8,0-2.2-.14-2.31-.05-2,2.13.13,1-.07,1.55-1.08,1.71s-1.28.78-.88,1.71a1.61,1.61,0,0,1-.12,1.37c-.8,1.69-.72,3.56-1,5.35-.37,2.58-.29,2.6-2.47,3.73,1.84,1.37,2,3.35,1.73,5.33-.07.6-.08,1.22-.17,1.79-.49,3-.13,6.24-1.84,9a4.83,4.83,0,0,1-2.27,2l-8.7,3.81a6.85,6.85,0,0,1-2.79.52c-1.75,0-3.49,0-5.24,0a12.45,12.45,0,0,1-6.06-1.67,64.57,64.57,0,0,0-11.57-4.84c1.39-.46,1.39-.46.79-2.13.23,0,.58,0,.66.13.79,1.36,2.12,1.76,3.51,2.19a28,28,0,0,1,6.24,2.65,12.69,12.69,0,0,0,8,2.15,19.92,19.92,0,0,1,3.09,0,8.55,8.55,0,0,0,4.33-1.06c1.15-.53,1.3-1.19.52-2.26a8,8,0,0,0-5-3c-2.09-.44-2.38-.56-2.44-2.73-.09-2.77-.1-5.56.05-8.32.22-4,.09-8.09.17-12.13a2.1,2.1,0,0,0-1.2-2.1,47.83,47.83,0,0,1-5.45-3.8c-5.54-4.21-11.83-5-18.46-4.46-2.83.22-5.6-.5-8.42-.47a1.12,1.12,0,0,1-.66-.23c-1.63-1.32-3.57-1.13-5.46-1.1a9.35,9.35,0,0,1-3.08-.16c-1.06-.31-2.27-.65-2.4-2s-1-1.74-1.94-2.12-1.79-.64-2.67-1c-1.24-.52-2.65-1-3.2-2.28s-1.41-1.35-2.64-1.21c-1.93.22-3.85.11-4.92-2a3.87,3.87,0,0,0-1.4-1.25c-2.18-1.45-2.3-2.26-.37-4a2.22,2.22,0,0,0,.6-2.75c-.51-1.5-1.83-1.31-3-1.45-2.11-.26-2.22-.19-2.24,1.85-.05,4.84,0,9.68-.05,14.51,0,.64-.15,1.4.3,1.84,1.2,1.17,1.44,2.8,2.2,4.17s.39,1.92-1,2.06c-.63.06-1.27-.06-1.9,0a7.23,7.23,0,0,0-5.28,2.36c-1.19,1.37-2.34,2.79-3.41,4.25A6.28,6.28,0,0,1,64.91,316a5.39,5.39,0,0,0-3.23,2.3c-1.25,2.07-3.21,3-5.27,3.82-.88.36-1.78.67-2.67,1s-1.65,1-1.36,1.94a5.27,5.27,0,0,1-.59,3.86c-1.68,3.86-3.24,4.93-6.72,5.1a17.39,17.39,0,0,0-7.54,2.63,1.31,1.31,0,0,0-.46,2.18,1.65,1.65,0,0,1,.19,2c-1.62,2.43-3.17,4.15-6.18,2.68a7.82,7.82,0,0,0-3.72-.56c-.7,0-1.32.31-1.3,1.08.05,1.88-.43,3.7-.32,5.64.15,2.63,1.43,5,1.25,7.66a1,1,0,0,0,1,1.09,13.56,13.56,0,0,0,1.43.06q25.82,0,51.62.38c4.13.06,8.25.05,12.38.07q12.26,0,24.5.05c2.25,0,2.26-.13,2.85-2.3.36-1.36-.37-2.69.1-4a2.88,2.88,0,0,0-.39-2.5,16.08,16.08,0,0,1-1.69-6.64c-.23-2.88.69-5.29,3.54-6.59-.12,1,1.15,1.25,1.13,2.18-2.13-.14-2.47.05-2.84,2.13-.55,3,.34,5.83,1.41,8.56a7.26,7.26,0,0,1,.42,3.16,29.85,29.85,0,0,1-.64,6.09c-.38,1.52.83,3.12,2.82,3.6,2.58.61,5.24,1.51,7.92.53,1.47-.53,2.82-1.36,4.25-2,2.27-1.06,2.93-.82,4.14,1.44a14.1,14.1,0,0,1,.92,10.57,2.37,2.37,0,0,1-1.9,1.89,37.63,37.63,0,0,1-4.92.8c-2.18.15-3.23-.82-3.42-3-.11-1.22-.06-2.45-1.53-2.88s-3.09-.74-4.51.44c-.6.51-1.27.93-1.91,1.4-1.12.83-1.16,1.4.06,2.12a20.83,20.83,0,0,0,6.25,2.18c.31.07.64,0,1,.1,1.15.29,1.41,1,.7,1.88a5.25,5.25,0,0,1-3.11,2.06,9.7,9.7,0,0,0-3.34,1.2c-1.5,1-3,1.84-3.72,3.79a9.36,9.36,0,0,1-2.45,3.17,3.58,3.58,0,0,0-1,3.47,12.63,12.63,0,0,0,1,3.16,3.31,3.31,0,0,1-.09,3.6,1.32,1.32,0,0,0-.18,1.55c1.23,2.13-.36,3.71-1.08,5.44-.38.92-1.36,1-2.19,1.25a3.39,3.39,0,0,0-2.55,1.92c-.33.86-.61,1.7.53,2.21.69.31,1.27.7,1,1.61-.36,1.06-.66,2.25-2,2.33a11.64,11.64,0,0,1-4.71-.27c-2.48-.91-4.39,0-6.21,1.54a2.41,2.41,0,0,1-.63.28c-.11-.57,0-1.26-.88-1.37a9,9,0,0,1,7-2.41c1.4.25,2.82.39,4.23.57.39.05.83.07,1-.38s-.23-.7-.54-.91c-1-.64-1-1.47-.71-2.5a4.09,4.09,0,0,1,2.11-3c.76-.41,1.4-1.05,2.17-1.44,1.22-.61,1.24-2,2-2.88.63-.73-.2-1.3-.37-1.95a1.7,1.7,0,0,1,.12-1.6c1.06-1.26.54-2.37,0-3.71-1-2.55-1.56-5.13.86-7.45a8.29,8.29,0,0,0,2.29-3,7.39,7.39,0,0,1,4.9-4.49,14,14,0,0,0,3.58-2c-2.23-1.15-4.17-2.31-6.3-3.15-1.93-.76-2-1.56-.8-3.22a5.61,5.61,0,0,1,2.29-1.63,5.55,5.55,0,0,0,3.19-3.85c.26-1.05,0-1.43-1-1.61-1.73-.3-3.52-.64-4.55-2.26-.91-1.42-2.15-1.6-3.67-1.6-16.65-.06-33.31.07-50-.33-12.61-.3-25.23-.17-37.84-.23a13.58,13.58,0,0,0-1.43,0c-.41.05-.82.27-.84.71C27.6,363,26,363,24.48,363.1c-1.78.18-2.11.57-1.65,2.26.38,1.44.61,2.77-.37,4.07a2.56,2.56,0,0,0-.22,1.63c0,1.34.07,2.69.07,4a3.34,3.34,0,0,0,.59,2,5.26,5.26,0,0,0,3.09,2.4,1.78,1.78,0,0,1,1.47,1.89,2,2,0,0,1-1.17,2.07c-1.51.81-1.51,1.49-.34,2.74a11.07,11.07,0,0,0,2.57,1.71c1.19.73,1.21,1.46.11,2.37-.25.2-.54.34-.8.52-.75.51-.88,1.1-.21,1.76,1.07,1.05.8,2.13.1,3.23-.21.33-.46.64-.64,1-1.31,2.56-.14,4.59,2.68,4.58a12.78,12.78,0,0,1,4,.54,2.85,2.85,0,0,1,1.63,4.59,5.67,5.67,0,0,0-.52,1.55c-.46,1.49-1.18,2.15-2.62,1.7-2.72-.86-5.33-.05-8,.09l-.52-.53C23.6,408.83,22.91,409.06,22.84,408.54ZM199.61,153.73a3.19,3.19,0,0,0-.6-.38c-.47-.15-1-.67-1.33.21s0,1.35,1,1.31a21.76,21.76,0,0,0,.33,3.53,2.37,2.37,0,0,1-.41,2.19c-.42.57-.66,1.27-1.05,1.86-3,4.43-4.89,9.58-8.69,13.52-.84.87-1.57,1.79-2.85,2a1.44,1.44,0,0,0-1.43,1.58c0,1.32-.31,2.6-.31,4,0,1.52.29,3.17-.18,4.66a14.25,14.25,0,0,0-.27,7.71c.7,2.86,1.12,6,4.73,7,.4.1.52.54.73.88,1.89,3.14,5.12,4.79,7.85,7a2.34,2.34,0,0,0,1.31.51c.91.05,1.55.71,2.25,1a12.89,12.89,0,0,1,4.83,2.47c.05,0,.16,0,.24,0,2.06.19,3.54,1.57,5.15,2.63.69.45,1.22,1,2.08.62s.81-1.24.65-2.06c-.67-3.62-1-7.21,1-10.58a.82.82,0,0,0,.1-.46c-.25-2,.52-3.17,2.68-3.29a1.17,1.17,0,0,0,1.15-1.5c-.62-2.48-.15-5.09-.91-7.54a3.44,3.44,0,0,1,.45-3.58,1.72,1.72,0,0,0,.22-2,4,4,0,0,1-.34-3.2,2,2,0,0,0-.15-1.63c-.84-1.34-.39-2.26.66-3.32,1.29-1.3,2.39-2.85.88-4.78-.49-.63-.07-1.21.27-1.74a12.19,12.19,0,0,0,2-8.11c0-.29,0-.76.2-.87,1.37-.87,1-2.2,1-3.43,1-.33.34-1,.26-1.5-.16-1.15-.8-1.19-1.62-.61a2.89,2.89,0,0,0-.56.72c-1.26-.41-1.5-1.49-1.78-2.58a4.41,4.41,0,0,0-2.5-3.28c-2.26-.89-4.5-2.17-7-.82a1.55,1.55,0,0,1-.92.16,3.55,3.55,0,0,0-3.41,1.21,2.49,2.49,0,0,1-2.83.7A6.71,6.71,0,0,0,199.61,153.73ZM75,60.92c-.32.34-.75.64-.76,1.16-.09,2.68-.41,5.35.51,8a30.46,30.46,0,0,1,1.4,7,2.82,2.82,0,0,1-1.29,3.07,2.67,2.67,0,0,0-1.22,2.41,5.62,5.62,0,0,0,.89,3.61c.88,1.32,1.74,2.66,2.52,4,1.25,2.25.19,4.36-2.31,4.67-.78.1-1.58.09-2.37.15-2.22.17-2.69.54-2.81,2.67a6.41,6.41,0,0,1-1.24,3.52,8.65,8.65,0,0,0-1.49,3c-.35,1.4.1,2,1.53,1.88s2.66-.44,4-.67c1.65-.28,1.76-.19,2.38,1.41.74,1.92,1.19,4,3.41,5,.78.34,1.4,1,2.36,1,1.91,0,2,0,2.46,1.91A1.65,1.65,0,0,0,85.16,116a6.46,6.46,0,0,1,4.37.66,2.49,2.49,0,0,0,3.39-.73,3.2,3.2,0,0,1,3.84-1,10.89,10.89,0,0,0,2.08.51,3.64,3.64,0,0,1,3.68,3.58c.17,1.67.56,3.29,2.07,4.37a1.09,1.09,0,0,1,.27,1.31c-.39,1.1.31,1.39,1.16,1.6a4.6,4.6,0,0,1,2.52,1.24,27.31,27.31,0,0,1,5.71,8.94c1.16,3.28,1.88,6.71,3.22,9.94a1.5,1.5,0,0,0,1.76,1.13,4.37,4.37,0,0,0,4-5c-.27-1.6-.65-3.16,1-4.28a1.12,1.12,0,0,0,.42-1.29,11.32,11.32,0,0,1,0-6.32,1.2,1.2,0,0,0-.07-.7c-.85-2.1-1.38-4.35-3.53-5.7a2,2,0,0,1-.69-2.92,3.49,3.49,0,0,0,.55-1.55,30.54,30.54,0,0,0-.63-8.26,2.73,2.73,0,0,0-1.75-2.12c-1.07-.38-1.55.52-2,1.24a1.42,1.42,0,0,1-1.8.73c-.52-.17-3.73-3.16-3.8-3.71a4.45,4.45,0,0,0-.81-1.94,8.56,8.56,0,0,1-1.44-4.71,2.1,2.1,0,0,0-1-2.19c-1.12-.59-1-1.44-.44-2.42A15.77,15.77,0,0,1,109.1,94c2.21-2.7,1.75-5.1-1.24-6.73-1.52-.82-1.73-1.15-1.47-2.77.12-.78.43-1.52.62-2.29a3.82,3.82,0,0,0-.14-3.11A6.9,6.9,0,0,0,105,81.86c-.62,1.5-1.58,1.63-2.62.41a6.1,6.1,0,0,1-.4-.59c-1.65-2.23-2.4-5-4.18-7.17A4,4,0,0,1,97.25,72c0-1.64.26-2.1,1.92-2.45a1.9,1.9,0,0,0,1.73-1.9,15.11,15.11,0,0,0,.09-1.9c-.06-1.8-.32-2.15-2.07-2.15-5.39,0-10.75-.64-16.13-1-2.42-.15-4.9-.22-7.1-1.51.07-.36.78-.44.46-.94a.79.79,0,0,0-.6-.24C74.83,59.93,74.9,60.43,75,60.92ZM164.5,305.47a4,4,0,0,1,2.11,0A72.45,72.45,0,0,0,190,304c4.33-.94,8.68-1.78,13-2.88a83.42,83.42,0,0,0,19.28-7.29c2.11-1.16,4-2.58,3.85-5.46a5.61,5.61,0,0,1,1.48-3.41c1.44-2,3.33-3.58,4.67-5.69,1.57-2.48,2.66-5.23,4.53-7.52a7.46,7.46,0,0,0,1.27-6.31c-.18-1-.25-2-.35-3.06-.18-1.77-.17-1.8-1.94-1.83a5,5,0,0,1-2-.54c-2.22-1-3.47-2.95-4.58-4.95a6.58,6.58,0,0,1,.23-7c.42-.67.92-1.28,1.4-1.92,1.3-1.72,1.41-2.78.16-4.53a22.55,22.55,0,0,0-6.14-5.86c-2.66-1.74-5.66-2.84-8.32-4.56a2.1,2.1,0,0,0-1.57-.22c-1.92.25-2.3-.23-2.14-2.22a17.55,17.55,0,0,0,.06-4c-.16-1.1,0-1.8,1-2.37.74-.41.73-1.18.51-1.9s-.9-.8-1.56-.76a3.46,3.46,0,0,1-2.23-.58c-2-1.35-3.81-3.08-6.41-3.29a2,2,0,0,1-1.4-.85,2.65,2.65,0,0,0-1.57-.91c-2-.65-4.16-1-5.71-2.56-1.2-1.19-2.63-2-3.89-3.11-1.8-1.57-2.89-1.24-3.66,1-.13.37-.17.78-.32,1.14-.84,2-1.7,2.29-3.69,1.46l-1.11-.45a1.64,1.64,0,0,0-2.23.6c-1.36,1.85-2.88,3.57-4.36,5.32-1.89,2.24-3.78,4.47-5.71,6.68a2.91,2.91,0,0,1-2.14,1.36c-3.41-.05-6.8.48-10.21.22s-6.82-.14-10.23-.14c-1.51,0-1.7.31-1.81,1.88,0,.31,0,.63,0,1q-.07,37-.14,74c0,3.25-.24,6.51-.16,9.74.14,5.47.19,10.93-.08,16.4-.1,2.06,0,4.12-.07,6.19,0,1.13.37,1.75,1.59,1.89a5,5,0,0,1,3.24,1.32c.93,1,2.11,1.71,2.74,3,.27.53.7,1.1,1.27.82,2.28-1.11,5.06-1.58,5.81-4.71.43-1.84.59-1.8-1-2.84a4.29,4.29,0,0,1-1.34-6,4.07,4.07,0,0,0,.76-2.43c0-.79,0-1.59,0-2.38.11-1.25.39-2.39,2-2.44a1.09,1.09,0,0,0,1.16-1.21c0-1.59.67-3.11.56-4.72,1.21,0,1.62-.68,1.41-1.85-.31-1.76-.3-1.81,1.47-2.66.82-.4.89-1.18.4-1.46C164.27,308.11,164.79,306.68,164.5,305.47Zm-42.36-81.79c0,3.42,0,6.19,0,9,0,2,.19,2.14,2.21,2.17,6,.1,12.06-.15,18.08.22,1.62.11,1.94-.26,2-1.9.13-2.21.22-4.43.29-6.65s.18-2.31,2.27-2.37c.95,0,1.91-.06,2.86,0a2.73,2.73,0,0,0,2.73-1.48c2-3.31,4.07-6.59,6.15-9.85,2.42-3.8,4.45-7.83,7.18-11.43a5.74,5.74,0,0,0,1.11-3.82,3,3,0,0,0-1.71-2.4c-.73-.47-.62-1.18-.43-1.92a7.07,7.07,0,0,0-1.81-6.15c-1.16-1.43-1.84-2.64-1.61-4.42.09-.64-.29-1.24-.34-1.85-.15-1.62-.71-3.36.36-4.83a8.16,8.16,0,0,0,1.23-2.79c1.13-4.05,2.23-8.1,3.38-12.14a1.8,1.8,0,0,0-.81-2.21c-1.46-1.08-2.91-2.23-3.14-4.27a1.26,1.26,0,0,0-1.35-1.1c-.63,0-1.27,0-1.9-.12-2.38-.28-2.66-.6-2.72-3,0-.69.3-1.59-.34-2a8.41,8.41,0,0,1-2.54-3.38,2.2,2.2,0,0,0-2-1.1c-1.66-.13-3.32-.24-5-.34-1.16-.06-2.23-.28-2.78-1.46-.31-.68-.91-.73-1.56-.87a18,18,0,0,1-5.79-1.81,5.88,5.88,0,0,0-2.77-.59,31.07,31.07,0,0,0-7.06.86c-1.64.29-1.87.57-1.66,2.16,0,.39.17.77.26,1.16a3.34,3.34,0,0,1-1.15,3.61,9.15,9.15,0,0,1-4.33,2.34,2,2,0,0,0-1.86,1.56,130.94,130.94,0,0,1-4.25,13.11,7.78,7.78,0,0,0-.54,2.3c-.07,4,0,7.94-.08,11.91a1.83,1.83,0,0,0,1.17,1.86,28.42,28.42,0,0,1,3,1.47c1.5.88,3,1.73,3.38,3.72s.39,2.09,2.45,2.28c.84.08,1.65.15,1.83,1.14a13.14,13.14,0,0,1,.48,4,46.23,46.23,0,0,1-2.56,10.12,11.13,11.13,0,0,0-.85,4.35C121.68,212.6,122.45,218.44,122.14,223.68Zm14-185.62h0c0,1.19,0,2.38,0,3.57.14,3.54-1.24,6.11-4.63,7.44a3.71,3.71,0,0,0-1.61,1.37c-.77,1.05-1.63,1.2-2.59.31-.55-.52-.84-.6-1.52,0a2.55,2.55,0,0,1-3.62-.26,3.7,3.7,0,0,0-2.67-1.14c-2.09-.28-4.24-.53-5.39-2.84a29.64,29.64,0,0,1-1.75-4.4c-.25-.8-.55-1.58-1.47-1.68-1.79-.21-2-1.52-2.19-2.9a22.67,22.67,0,0,1,.25-4,3,3,0,0,0-2.54-3.43c-.78-.2-1.23,0-1.31.85a9.94,9.94,0,0,0,.28,2.82,15.7,15.7,0,0,1-.38,7.76c-.77,2.31-2.54,3.17-4.66,2a12.59,12.59,0,0,1-5.51-5.3c-.41-.8-.84-1.72-1.83-1.59-.84.1-.83,1.12-.88,1.77a4,4,0,0,1-2.54,3.43c-2.85,1.38-5.64,2.91-8.56,4.12s-4.84,3.71-6.42,6.4A2.32,2.32,0,0,0,74.73,55a9.59,9.59,0,0,1,1.9,3.54A2.72,2.72,0,0,0,79.39,61c.79.07,1.56.31,2.35.35,4.12.21,8.24.37,12.35.59,2.22.11,4.43.37,6.65.29.76,0,1.53.11,1.6,1a17.17,17.17,0,0,1,.06,5.21,2.44,2.44,0,0,1-1.6,1.88c-2.06.87-2.35,1.49-1.54,3.58.89,2.29,2.55,4.18,3.46,6.49.28.71,1,.73,1.51,0,.37-.51.61-1.11,1-1.62,1.05-1.47,1.58-1.51,3.06-.43a22.78,22.78,0,0,0,2.79,1.79c1,.54,1.65.29,1.86-.88a2.76,2.76,0,0,1,2.65-2.58,10.35,10.35,0,0,1,4,0,1.1,1.1,0,0,1,.6.68c.31,1.26,1.35,1.43,2.36,1.67,2.36.56,4.66-.47,7-.29.63,0,.83-.63.94-1.2a27,27,0,0,1,1.66-5c.83-2.06.83-2.06,3.17-2a1.43,1.43,0,0,0,.69-.05c1.93-1.09,4.06-.77,6.06-.65s3.15-.67,4.24-2.3q6-9.08,12.35-18a7.19,7.19,0,0,0,1.47-4.4q-.18-14.76.33-29.5a5.14,5.14,0,0,0-2.16-4.43c-1.71-1.45-3.53-2.92-4.43-5.08-.4-1-1.13-1-1.93-1-3.17,0-6.35-.34-9.5.23-1.15.2-2.39-.94-3.39.13-.83.88-.79,2.21-1.2,3.31-1.18,3.18-3,6.14-3.44,9.6A3.22,3.22,0,0,1,134,19.6c-.4.72-1.13.73-1.4-.05-.59-1.7-1.89-3.17-1.71-5.14a2.07,2.07,0,0,0-.41-1.34,7.42,7.42,0,0,1-1.44-3.47,1.28,1.28,0,0,0-.79-1.11c-1.46-.63-2.89-1.31-4.39-1.82s-2.29-.1-2.43,1.35c-.26,2.73-2.52,5.27-.82,8.2.1.17-.08.47-.05.7.16,1,.33,2,.53,3,.15.74.48,1.34,1.38,1.39,1.47.09,1.9,1.07,1.69,2.31a7.56,7.56,0,0,0,1.22,5.14c.53.92.8,1.69,2.08,1.19a1.73,1.73,0,0,1,1.95.53c1,1.06,1.82,1.27,3.23.33,1.91-1.3,3.35-.35,3.44,2C136.18,34.57,136.13,36.31,136.13,38.06Zm52,74.1v-.08H177l-4.75,0c-2.14,0-2.14,0-2.54,2.19,0,.16-.07.31-.09.47-1,7.37-2,14.75-3.11,22.11-.74,5.1-1.4,10.21-2.15,15.3-.38,2.58-.16,4.54,2.33,5.77,1.11.55,1.27,1.3,1.06,2.53-.79,4.71-2.68,9.12-3.56,13.8a3.92,3.92,0,0,1-.77,1.71,4.44,4.44,0,0,0-.82,2.89c-.11,1.61.8,3.08.55,4.7a3.75,3.75,0,0,0,1,2.78c1.44,2.06,2.82,4.22,2.91,6.88a3.61,3.61,0,0,0,.69,2c1.46,2.2,1.56,4.43-.1,6.38a49.54,49.54,0,0,0-4.25,6.55c-2.85,4.65-5.5,9.42-8.63,13.89-1.06,1.51-.74,2.13,1.07,2.15,3.65,0,7.3,0,11,0a3.55,3.55,0,0,0,3-1.53c1.34-1.76,2.92-3.33,4.36-5s2.91-3.35,4.24-5.12c2.21-3,2.17-3,5.62-2.09.74.19,1.58.36,1.88-.43.51-1.35,1.45-2.45,2-3.76a1.3,1.3,0,0,0-.61-1.8c-4.5-2.84-5.23-7.53-5.57-12.21-.17-2.28.63-4.57.51-7a22.81,22.81,0,0,1,.8-6.41c.27-1.08.65-2,1.86-2.18,3-.5,4.55-3,5.73-5.21,1.56-2.94,3.27-5.79,5.07-8.56a9.11,9.11,0,0,0,1.47-6.74,12.48,12.48,0,0,1,.34-5.13c.48-2,1.12-4-.08-6a1.62,1.62,0,0,1-.1-1.15c.61-2.16.45-4.41.74-6.61a6.82,6.82,0,0,1,2.46-4.38,10.81,10.81,0,0,0,4.07-6.61,23.17,23.17,0,0,0,.95-7.25c-.16-1.83-.38-3.62.47-5.36.46-.92,0-1.33-.94-1.38-.55,0-1.11,0-1.66,0Zm-19.58-35.7c0-1.34,0-2.69,0-4,0-1.17-.41-1.81-1.65-1.77-.63,0-1.27,0-1.9,0-5.23,0-10.47,0-15.7-.06-1.58,0-3.15-.3-4.58.72a2.24,2.24,0,0,1-1.85.11c-1.68-.42-3.32,0-4.93.35a8.93,8.93,0,0,1-2.76.47c-1.2-.15-1.74.52-2,1.55-1.09,4.12-2.7,8.15-2.32,12.53a3.37,3.37,0,0,1-1,2.78,11.11,11.11,0,0,0-2.66,5.67c-.4,2-.7,4.27-2.84,5.51a1.22,1.22,0,0,0-.49,1.68c1,1.42-.25,3.09.63,4.51.23.38-.2.89-.5,1.27a10.5,10.5,0,0,1-1.28,1.7A2.35,2.35,0,0,0,122,112c.58,3.27,1.11,6.57.27,9.9a2.15,2.15,0,0,0,.81,2.1c2.46,2.5,3.76,5.36,2.9,9a10.36,10.36,0,0,0,.11,3.55c.12,1.12.68,1.48,1.77,1.28a16.7,16.7,0,0,1,5-.31c2.88.36,6-.2,8.39,2.25.3.3,1.06.17,1.6.23,1,.1,2,.23,2.47,1.18.58,1.15,1.53,1.21,2.59,1.22a36,36,0,0,1,5,.33,1.75,1.75,0,0,1,1.7,1.38,3.79,3.79,0,0,0,1.53,2.35,3.52,3.52,0,0,1,1.72,3.8c-.15,1.05.37,1.66,1.49,1.63.56,0,1.11,0,1.67,0,1.28.07,1.88-.53,2-1.8.07-1,.27-1.89.42-2.82,1.24-7.67,2-15.4,3.27-23.07a91.67,91.67,0,0,0,1.57-13.93C168.38,99,168,87.72,168.59,76.46Zm1.83,13.47h-.12c0,5.55,0,11.11,0,16.66,0,4.13,0,4.15,4.15,4.18,6.82,0,13.64.07,20.46.1,3.81,0,7.61,0,11.42,0,.76,0,1.71.2,2-.8.45-1.42,1-2.8.41-4.39-1.1-3-.75-3.94,2-5.68.86-.54,1.31-1,.88-2.1s-.09-2,.93-2.85c2.32-2,2.23-4.16,0-6.22-1.4-1.28-2.82-2.53-4.11-3.92a6,6,0,0,0-4.67-2.35c-1.16,0-2.35-.26-2.62-1.56s-1-1.64-2.14-1.79A1.76,1.76,0,0,1,197.42,78a13.8,13.8,0,0,0-4.3-6.07c-1-.9-2.57-1.21-3.05-2.54-.73-2.06-2.25-3.62-3.21-5.53a3.4,3.4,0,0,0-1.4-1.56,24.26,24.26,0,0,1-8.89-8.3,3.2,3.2,0,0,0-2.19-1.63,4.17,4.17,0,0,1-2.55-1.59,20.26,20.26,0,0,0-8.66-6.34c-1-.39-1.31,0-1.29.92a4.89,4.89,0,0,1-.61,3q-3.93,5.77-7.89,11.52c-1.75,2.54-3.54,5-5.29,7.58-.69,1-.52,1.4.62,1.58a11.24,11.24,0,0,0,1.42.06l17.6.29c2.58,0,2.67.1,2.68,2.69C170.43,78,170.42,84,170.42,89.93ZM69.86,107.43v.12c-.79,0-1.59,0-2.38,0a1.63,1.63,0,0,0-1.41.7c-1.81,2.54-3.36,5.28-5.63,7.5-.89.87-.64,1.84.57,2.14a4.45,4.45,0,0,1,3.18,2.93,23.13,23.13,0,0,0,3.43,5.67,4,4,0,0,1,.84,4.19,6.93,6.93,0,0,0-.52,3,10.58,10.58,0,0,1-.34,3.06c-.51,1.72-.48,1.82,1.18,1.84a42.7,42.7,0,0,1,5.86.88A4.2,4.2,0,0,1,77.23,141a55.89,55.89,0,0,0,7.21,7.22,6.39,6.39,0,0,1,1.91,2.1,32.11,32.11,0,0,0,5.46,7.37,8,8,0,0,1,1,1.3c.7,1.23,1.77,2.41,1.64,3.87-.2,2.44.22,4.85-.1,7.32-.24,1.86-.34,4.27,2.39,5.05.49.14.57.72.62,1.21.15,1.74,1.52,2.71,2.62,3.75a3.08,3.08,0,0,0,3.08.86c2-1,4.33-.36,6.39-1.44,1.7-.88,1.88-.56,1.89-2.58,0-3,.08-6,0-9a19.48,19.48,0,0,1,1-6.3c.8-2.5,1.75-4.93,2.56-7.43a14.74,14.74,0,0,0-.06-10.62c-1.47-3.56-2-7.49-4.09-10.83-1.62-2.51-3.34-4.83-6.41-5.63-1.07-.28-1.76-.74-1.36-2,.15-.47.2-1-.27-1.29-1.42-1-1.47-2.56-1.74-4-.46-2.42-.6-2.64-3.06-3.25-.62-.16-1.23-.32-1.85-.45a1.79,1.79,0,0,0-2.23.9c-.58,1.21-1.61,1.38-2.78,1.38a5.5,5.5,0,0,1-2.78-.51,4.14,4.14,0,0,0-4.09-.11c-.9.45-1.49.26-1.86-.72-.28-.73-.72-1.41-1-2.13a1.32,1.32,0,0,0-1-.84,19.13,19.13,0,0,1-4.72-2.1c-1.15-.66-1.87-1.13-1.78-2.62.09-1.29-.8-2-2.08-2.09A15.09,15.09,0,0,0,69.86,107.43Zm177.71-6.09c-1.5.39-1.69,1.65-2.33,2.51-1.24,1.67-1.82,1.75-3.35.34-.45-.42-.8-1.12-1.54-1-2.23.49-4.44-.73-6.68-.06a2.69,2.69,0,0,1-1.4-.2c-2-.66-4.1-1.24-6.07-2a19.24,19.24,0,0,0-11.62-1.15,8.25,8.25,0,0,0-3.57,1.78,2.54,2.54,0,0,0-.83,3.2c1.32,2.7-.07,5.29-.24,7.93a1.3,1.3,0,0,1-.85,1.06c-2.06,1-2.29,2.55-1.76,4.57a9.26,9.26,0,0,1-.6,5.82,15.82,15.82,0,0,0-1.18,4.77,3.84,3.84,0,0,1-1.81,3.1c-1.65,1.14-3.49,2.38-3.81,4.62a30.82,30.82,0,0,0-.57,7.32,20.75,20.75,0,0,1,0,7,1,1,0,0,0,.37,1.06c.8.57,4.49.18,5.33-.57s7.09-2.19,8.23-1.84l.22.09c2.68,1,5.58,1.74,7,4.64a2.94,2.94,0,0,0,.43.57,1.09,1.09,0,0,0,.84.36c1.29,0,3.92-2.18,3.74-3.45a2.21,2.21,0,0,1,1.32-2.45,5.77,5.77,0,0,0,2.78-4,3,3,0,0,1,2.24-2.53,5.38,5.38,0,0,0,3-2.6,8.42,8.42,0,0,1,1.2-1.76,13.36,13.36,0,0,0,3.3-5.15c.47-1.18,1-2.36,2.36-2.82a1.48,1.48,0,0,0,1-.94c.79-2.73,2.8-4.62,4.47-6.79,1.9-2.47,3.54-5.16,5.45-7.64.56-.73.22-1.33-.24-1.93a8.63,8.63,0,0,1-1.54-3.91C250.4,106.42,248.71,104,247.57,101.34ZM226.72,67a1.71,1.71,0,0,0-.72-1.59,2.27,2.27,0,0,1-1.07-1.24c-.51-2.59-2.26-3.84-4.65-4.48a4,4,0,0,1-1.21-.73c-.32-.23-.64-.66-1-.49-1.35.61-2-.31-2.75-1.13a2.88,2.88,0,0,0-1.67-.86,11,11,0,0,1-2.81-1.19c-1.88-.89-3.23-2.57-5.16-3.32a10.62,10.62,0,0,1-4.35-3.59c-2.07-2.61-4.9-4.21-7.46-6.16a2.23,2.23,0,0,0-2.26-.26,3.25,3.25,0,0,1-2.53-.25c-2.62-1.1-5.25-2.2-7.89-3.25A3.92,3.92,0,0,1,178.44,36c-.57-2.23-2.41-3.22-4-4.41-4-2.94-7.89-6-10-10.75-.29-.65-.74-1.47-1.5-1.31s-.57,1.19-.58,1.84c-.09,6-.14,12.06-.19,18.09,0,2.88.15,3.25,2.82,4.17,3.28,1.13,5.56,3.54,7.74,6,.86,1,1.58,1.69,2.89,1.69a2.24,2.24,0,0,1,2.19,1.53,16,16,0,0,0,6.92,7.27,12.31,12.31,0,0,1,4.18,4.06,22,22,0,0,1,2.1,3.72,3.47,3.47,0,0,0,1.45,1.83c2.86,1.63,4.69,4.19,6.26,7a2.52,2.52,0,0,0,2,1.48A2.14,2.14,0,0,1,202.78,80c.11.79.67,1,1.38,1a4.94,4.94,0,0,1,4.31,2c1.9,2.13,4.46,3.55,6.11,6,.65.94,1.79.68,2.27-.39a5.07,5.07,0,0,0,.77-3c-.37-2.31.87-4.31,1.24-6.48a1.92,1.92,0,0,1,1.23-1.38c1.43-.58,1.84-1.8,2.26-3.13.69-2.18,1.43-4.38,3.51-5.74A2.14,2.14,0,0,0,226.72,67ZM134.61,38.31h0c0-1.66,0-3.33,0-5,0-.55,0-1.18-.63-1.39s-1,.18-1.33.69c-1.15,1.57-1.17,1.54-2.56.18-.71-.7-1.3-1.57-2.58-1.36-2.23.38-2.24.33-3.16-1.62a4.09,4.09,0,0,0-.67-1.26,3.46,3.46,0,0,1-.85-3.9,1.6,1.6,0,0,0-1.35-2.26,2.39,2.39,0,0,1-2-2.38,19.58,19.58,0,0,0-.52-2.07c-.54-2.55-1.22-5.09.28-7.6a9.21,9.21,0,0,0,.54-2.3c.26-1-.07-1.54-1.13-1.53a12.88,12.88,0,0,0-2.85,0,4.23,4.23,0,0,1-4.87-2c-.73-1.07-2-1.6-2.84-2.51-.42-.42-.87-.22-1.09.35a4.75,4.75,0,0,0-.37,1.12c-.25,2.73-1.9,4.07-4.45,4.46a2.57,2.57,0,0,0-2.54,2.57,2.87,2.87,0,0,1-2.15,2.8,2.4,2.4,0,0,0-1.65,1.88A4,4,0,0,1,95,16.88c-1.19,1.47-1.23,1.56-.06,3a4.15,4.15,0,0,1,.86,4c-.69,2.52-1,5.15-1.88,7.61-.7,2-.57,3.49,1.16,4.77a2.7,2.7,0,0,1,.71,1c1,2.13,2.94,3.48,4.66,5,1.15,1,2.1.75,2.82-.67a4.66,4.66,0,0,0,.56-1.55c.24-2.28.69-4.56-.17-6.82a5.13,5.13,0,0,1,0-3.72c.46-1.2,1-1.43,2.2-1.07a13.25,13.25,0,0,1,3,1.49A3,3,0,0,1,110.42,33c-.11,1.26-.07,2.54-.12,3.8a2,2,0,0,0,1.27,2.29A3.94,3.94,0,0,1,113.84,42c.31,1,.77,1.9,1.09,2.88a4.8,4.8,0,0,0,4.42,3,5.46,5.46,0,0,1,3.73,1.39c.65.64,1.38.81,1.92-.22s1.38-1.16,2.14-.43c1.21,1.16,2.12.46,3.1-.26A8.33,8.33,0,0,1,132,47.2a4.1,4.1,0,0,0,2.61-4.13C134.64,41.48,134.61,39.9,134.61,38.31ZM269.44,78.9a13,13,0,0,1-.24,3c-.53,2-1.8,3.7-2,5.81,0,.32-.44.64-.72.89-1.65,1.46-3.87,2.31-4.73,4.62-.23.64-1,.75-1.64.73a2.16,2.16,0,0,0-2.11.84c-.78,1.39-2.29,2.34-2.13,4.32.12,1.63-1.61,2.24-2.65,3.14-.88.76-1.55-.2-2.23-.71-.39-.29-.87-.52-1.27-.07s-.21,1.05.11,1.52a17,17,0,0,1,2.7,7c.2,1.21,1.08,1.91,1.72,2.79a1,1,0,0,0,1.66.08,12.58,12.58,0,0,0,1.47-1.54c1.45-1.8,3.44-2.94,5.27-4.26a3.89,3.89,0,0,0,1.52-1.65c.51-1.24,1-2.58,2.78-2.35a.81.81,0,0,0,.76-.49c.5-1,1.52-.95,2.37-1.31,1.38-.6,3.53-.11,3.84-2.45,0-.19.49-.41.77-.46,2.13-.37,3.39-2,4.7-3.41,1-1,1.86-2.38,1.41-3.87-.9-3-.31-5.84.27-8.69a5.57,5.57,0,0,0-.39-3.86c-1.06-2.15-2.47-4.18-2.05-6.84.17-1.06-.85-1.49-1.79-1.91-2.47-1.11-4.37.65-6.51,1.16-.4.09-.51.62-.47,1C270.15,74.31,269.19,76.54,269.44,78.9ZM115,109.83c2.1-1.79,2.1-1.79,5.13-1.39,1.89.25,3-.9,2.49-3a20.74,20.74,0,0,1-.22-4A2.42,2.42,0,0,1,123.51,99a3.5,3.5,0,0,0,1.7-2.7c.32-1.39.6-2.79.92-4.18a5.47,5.47,0,0,1,1-2.36c1.4-1.67,2.9-3.33,2.13-5.83-.11-.34.1-.77.15-1.17.24-2.09-.14-2.51-2.28-2.46a5,5,0,0,0-1.39.22A6.35,6.35,0,0,1,119,78.87c-1.07-1.06-2.11-.88-3.25-.73s-1.22,1.28-1.39,2.2l-.09.46c-.42,1.75-.63,1.87-2.23,1.17-.72-.32-1.43-.69-2.16-1-.45-.17-1.08-.29-1.24.27A10.2,10.2,0,0,0,108,85c.09,1,1.06,1.08,1.59,1.62.87.88,2.17,1.44,2.26,2.91a6.19,6.19,0,0,1-1.32,4.89,17.68,17.68,0,0,0-1.43,1.89c-.39.55-.65,1.12.1,1.62,1.13.77,1.26,1.93,1.25,3.16a6,6,0,0,0,1.4,4.43A12.13,12.13,0,0,1,115,109.83Zm16.43,258.93c.86,1.06,2.08,1.73,1.9,3.4-.24,2.23.62,2.83,2.84,2.47.55-.09,1.07-.36,1.61-.41,2.09-.16,2.89-1.38,3-3.64a19.87,19.87,0,0,0-1.33-7.43c-.33-1-1-1.15-1.87-.75-.43.19-.82.49-1.25.69-.74.36-1,.72-.67,1.65.76,2,.15,2.94-2,3.26A3.22,3.22,0,0,0,131.41,368.76Zm.27-2c.54-.05,1.24-.09,1.94-.19a.7.7,0,0,0,.62-.62.75.75,0,0,0-.54-.91,8.13,8.13,0,0,0-3.95.06.87.87,0,0,0-.63.9c0,.61.5.72,1,.76S131,366.75,131.68,366.75Zm30.19-353.2-.62.08c0,1.07,0,2.15,0,3.23,0,.36,0,.84.57.83s1.17-.36,1-1A6.45,6.45,0,0,0,161.87,13.55Zm-.33,315.23c-.16-.24-.11-.76-.64-.72s-.53.48-.5.86.06.83.6.77S161.56,329.27,161.54,328.78Z"/><path class="cls-2" d="M73.23,544.18c1.26.43.92,1.36.5,2.08s-1.14.63-1.9.32c-4.74-1.94-9.42-4.08-14.62-4.59a11.39,11.39,0,0,1-4.29-1.35,13.89,13.89,0,0,0-6.9-1.33q-10.23,0-20.47-.09a11.54,11.54,0,0,1-2.35-.2c-.82-.17-1.59-.65-1.5-1.58.19-1.93-1.19-2.61-2.46-3.41-.47-.29-1-.5-1.45-.81a11.69,11.69,0,0,1-2-2.29c-.89-1,.41-1.83.77-2.72s-.26-1.78,0-2.28c.87-1.46.21-2.43-.49-3.61a2,2,0,0,1,.84-2.79,1.6,1.6,0,0,0,.84-2,25.16,25.16,0,0,0-1.07-3.39c-.34-.86-1.1-.82-1.8-.48s-1.09.66-1.77.4c-1.84-.7-3.25.15-4.5,1.35a4.83,4.83,0,0,1-3.19,1.39c-1.1.08-1.86-.27-2.07-1.44a11.68,11.68,0,0,1-.27-1.64A2.81,2.81,0,0,0,1.55,511a3.08,3.08,0,0,1-1.38-2.88c-.09-2.43-.58-4.92.66-7.24a1.71,1.71,0,0,0,0-1.6,2,2,0,0,1,0-1.83c.32-.64,0-1.15-.19-1.77-1-2.88-.83-5.61,1.43-7.92.22-.23.42-.58.69-.64C5,486.64,5.83,484.62,7,483a3.46,3.46,0,0,1,3-1.6,3.66,3.66,0,0,0,3.59-3.65,8.8,8.8,0,0,0-.25-3.07,1.55,1.55,0,0,1,1-2.08l.21-.1c2.72-1.49,3.05-2.15,2.52-5.08a2.86,2.86,0,0,0-1.33-1.87c-1.52-1-1.57-1.51-.72-3.12.74-1.39,1.79-2.61,2.15-4.21a6.3,6.3,0,0,1,3-4.32c1.64-1.2,2.12-3.08,2.41-5a14.63,14.63,0,0,0-.05-2.38c0-2,0-2,1.89-2.88a2.88,2.88,0,0,0,1.89-3.63,21.21,21.21,0,0,1-1-4.4c0-.83-.85-1-1.4-1.49-.94-.76-.88-1.44.17-2,.42-.21.92-.26,1.35-.45,1.62-.69,1.9-1.55.7-2.88-1.49-1.64-1.36-3.45-1-5.36.1-.46.25-1.12.67-1.2,2-.33,2.52-2.47,4.16-3.27,1.3-.64,1.31-1.27.36-2.46a23.6,23.6,0,0,1-1.88-2.44c-.75-1.22-2.1-1.32-3.34-1.53-1.07-.19-2.25-.09-2.85-1.29.42-.7.24-1.81,1.39-2l.52.53c-.21.71.18,1.05.79,1.18.94.19,1.88.33,2.81.5s1.87.4,2.12,1.32a8.82,8.82,0,0,0,2.26,3.54c1.17,1.32,1,2.23-.34,3.45-.41.36-1.07.53-1.11,1.16-.09,1.33-.87,1.72-2.06,1.77s-1.62.81-1.8,1.86A4.45,4.45,0,0,0,31.48,430c12.54,0,25.08,0,37.61.07,4.44,0,8.88.19,13.32.33a3.5,3.5,0,0,0,3-1.46c2-2.22,3-5,4.67-7.38,2.2-3,4.5-5.31,8.5-5,.58.87,1.28.64,2,.22.15.91-.25,1.44-1.16,1.27a10.18,10.18,0,0,0-2.35.12c-2.42.08-3.68,1.57-5,3.4-1.6,2.16-2.64,4.65-4.31,6.74-3.83,4.79-2.51,10.95,3,13.76,2,1,3.18,3,4.78,4.49a4.46,4.46,0,0,0,3,1.61,25.49,25.49,0,0,1,4.69.67,7.82,7.82,0,0,0,2.36.13c4.09-.45,7,2.31,6.48,6.29a16.61,16.61,0,0,1-1.5,5.48c-.53,1-1,2,0,3a1,1,0,0,1,.26.64c0,.3-.13.86-.22.86-2.13.12-.92,3.14-2.77,3.27a6,6,0,0,0-4.15,2.48,9.41,9.41,0,0,1-4.92,3,5.25,5.25,0,0,0-2.77,1.7c-.29.36-.68.82-1.08.89-2,.33-2.84,1.89-3.86,3.28a4.19,4.19,0,0,1-1.43,1.53c-2.89,1.4-4.17,3.74-4.53,6.93-.3,2.73-.8,5.47-1.31,8.18a9.43,9.43,0,0,1-9.65,7.77c-.07-1.42-1.62-2.1-1.78-3.48.77,0,1.09.56,1.42,1.09a1.62,1.62,0,0,0,1.79.87c2.1-.52,4-1.29,5.28-3.26s1.12-3.91,1.49-5.91c.2-1.11.44-2.13-1-2.75-.81-.35-.84-1.11.15-1.53.19,1.25,1.2,1.36,2.12,1.72a24.57,24.57,0,0,0,.74-2.43c.19-1-.49-1.17-1.3-1.08a9.86,9.86,0,0,1,2.81-5.11c1.22-1.38,3-2.18,4-3.6,2.26-3.07,5.59-4.55,8.7-6.35,1.43-.82,3.08-1.21,4-2.78.26-.44.92-.61,1.31-1,1.39-1.31,3.18-2.19,3.72-4.35.62-2.49,1.65-4.87,2.4-7.33a8.18,8.18,0,0,0,.2-3.55c-.33-2.26-1.18-3-3.49-3-2.64.09-5.22-.39-7.84-.45a5.26,5.26,0,0,1-3.65-1.88c-2-1.94-3.68-4.19-6.2-5.48a7.78,7.78,0,0,1-3.08-2.86,16,16,0,0,1-2.3-5.93c-.32-1.9-.35-1.92-2.22-2-3.81-.09-7.61-.18-11.42-.2-13.08-.08-26.17-.1-39.25-.23-1.82,0-3.27.35-4.38,1.95a5.09,5.09,0,0,1,1.1,3.49,10.92,10.92,0,0,0,.34,2.11c.52,2.57.77,4-2.44,5.63a1.69,1.69,0,0,0-1,2.11c.23,1.08.51,2.15.75,3.24s.22,2-1.09,2.19a1.58,1.58,0,0,0-1.21,1,3.83,3.83,0,0,1-2.81,2.33.93.93,0,0,0-.87,1A8.52,8.52,0,0,1,17,462.2c-.49.63-.87,1.54-.09,2.15,1.86,1.47,1.78,3.58,2.16,5.58a2,2,0,0,1-.67,2.1,5.58,5.58,0,0,1-2,1.31,1.76,1.76,0,0,0-1.19,2.45c.93,2.91-.27,4.87-2.72,6.33a4.47,4.47,0,0,1-2.41.91,2.09,2.09,0,0,0-1.81,1,12.77,12.77,0,0,0-1.72,2.54c-.41,1-.91,1.6-2,1.63s-1.81.88-2.16,1.91c-.55,1.6-.9,3.23,0,4.84a2.66,2.66,0,0,1,.14,2.71,1.21,1.21,0,0,0-.16.9c.92,1.61,0,3-.66,4.27-1.45,3-.33,5.39,1.55,7.57a5.2,5.2,0,0,1,1.62,3.27c.06,1.4.54,1.58,1.91,1.11a2.39,2.39,0,0,0,1.06-.51c1.84-2.14,4.42-2.08,6.87-2.42a6.84,6.84,0,0,1,2.59.2,1.43,1.43,0,0,1,1.26,1.5,15.09,15.09,0,0,0,.67,3.48c.23,1.22.49,2.59-.84,3.45-1.15.73-1,1.44-.16,2.28.62.62,1.35,1.27.81,2.26-.92,1.71-.44,3.57-.65,5.36A2.22,2.22,0,0,0,20,532.88c1.45.55,3,1.5,3.3,2.9.52,2.23,1.92,2.14,3.54,2.14,6.66,0,13.33.11,20,0a16.73,16.73,0,0,1,8,1.74,12.28,12.28,0,0,0,5.26,1.25,9.66,9.66,0,0,1,5.8,1.83,7.39,7.39,0,0,0,3.59,1.12c.46.08,1,.31,1.32-.15s0-1.08-.38-1.51a33.6,33.6,0,0,1-4.81-7.59c-.63-1.35-1.51-2-3-1.45-.47.16-1.16.4-1.19-.56a7.77,7.77,0,0,0,2.88-.67c.46-.12.47-.53.48-.92,0-.73-.58-.56-1-.68a5.08,5.08,0,0,0-.37-2.54c-.61-1.61-1.12-3.28-1.61-4.94-.59-2-.56-2-2.53-1-.3.15-.6.23-.86,0a.7.7,0,0,1,.05-1c.6-.63,1.24-1.21,1.88-1.8a2.61,2.61,0,0,0,1.18-2.21c-.22-2.08.79-3.81,1.5-5.64a9.31,9.31,0,0,1,5.71-5.56c2.73-1.05,2.69-1.17,1.73-3.9.68,0,.89.47,1.13,1a3.56,3.56,0,0,0,2.11,1.95c-.08.89-.79,1.1-1.46,1.34-1.2.44-2.4.83-3.58,1.29a7,7,0,0,0-4,4.08c-1.11,2.62-1.09,5.4-1.54,8.1a7.44,7.44,0,0,0,.53,3.25,61.28,61.28,0,0,1,1.86,6.83c1,4.79,3.73,8.44,6.37,12.25a6,6,0,0,1,1.29,2.48c-.76-.15-1.26.55-2,.6.69.23.9,1.06,1.6,1.18C73.49,545.44,73.09,544.75,73.23,544.18Z"/><path class="cls-2" d="M84.27,589.8c-1.75.77-3.48.08-5.15-.23a24,24,0,0,0-7.52.25c-2.13.28-2.32.23-2.33-2q0-18.09,0-36.19c0-.8-.43-2,.66-2.29s1.47.68,2,1.38a9,9,0,0,0,1.44,1.58c1.72,1.38,2.32,3.35,2.9,5.34.14.48.19,1-.37,1.21s-.68-.22-1-.5c-1.12-1.13-2-1.09-2.77.08-.46.75-.35,1.36.51,1.72a4.63,4.63,0,0,0,2.11.29,3.07,3.07,0,0,1,3.29,2.19,5.37,5.37,0,0,1,.29.65c.75,2.85,3,4.36,5.28,5.79.62.38,1.31.72,1.57,1.4.8,2,2.56,3,4.38,3.73a33.72,33.72,0,0,1,6.67,3.61c1.72,1.25,3.44,2.51,5.27,3.59,3.85,2.25,7.92,3.6,12.46,2.7a9,9,0,0,1,4.19.58.68.68,0,0,1,.58.88c-.52,1.58-1,3.22-2.33,4.34a2.54,2.54,0,0,1-1.9.83,4.22,4.22,0,0,0-2.53.42,1.78,1.78,0,0,1-1.81-.11,2.75,2.75,0,0,0-3.49.36,5.3,5.3,0,0,1-3.59,1,4.55,4.55,0,0,0-1.88.2,6,6,0,0,1-5.67-.67,6.08,6.08,0,0,0-2.9-1,4.48,4.48,0,0,1-3.2-1.27c-1.11-.24-2.35,0-3.3-.85a1.81,1.81,0,0,1,2-.38c2.93.94,6.1,1,8.88,2.45,1.1.58,2.11.95,3.31.1a5.2,5.2,0,0,1,3.22-.57c.79,0,1.63.14,2.26-.49,1.34-1.35,2.83-1.15,4.38-.46a2,2,0,0,0,1.6.26,10.27,10.27,0,0,1,3.1-1c.8-.06,1.76-1.73,1.56-2.43-.33-1.16-1.36-.88-2.18-.9-1.82,0-3.65,0-5.47,0a10.25,10.25,0,0,1-5.26-1.25A64.55,64.55,0,0,1,95,578.72a9.84,9.84,0,0,0-1.83-1.07c-2-1.08-4.05-2.19-6.12-3.11s-2.68-3.87-5.33-4a.22.22,0,0,1-.16-.16c-.09-1.52-1.58-1.86-2.33-2.82s-1.89-1.77-2.13-3.1c-.31-1.74-1.2-2.67-3.06-2.51a4.42,4.42,0,0,1-.93-.16c-2.06-.34-2.29-.21-2.28,1.78,0,2.69.09,5.38.26,8.07a29.58,29.58,0,0,1,0,5c-.34,3.24,0,6.49-.12,9.73-.08,1.47.52,1.94,1.92,1.41a8.88,8.88,0,0,1,4.9,0c1.79.31,3.6.51,5.41.74a1.47,1.47,0,0,1,1,.45Zm-12.88-33c.84-.14,1.26-.78,1.86-1.12a.73.73,0,0,0,.33-.81c-.09-.57-1.71-2.19-2.11-2-1,.41-.49,1.34-.54,2A2.43,2.43,0,0,0,71.39,556.8ZM71,560c-.36-1.09.8-2.13-.47-2.17-.87,0-.4,1.14-.51,1.77a1.6,1.6,0,0,0,.12.68.45.45,0,0,0,.55.31c.26,0,.43-.19.35-.46S70.89,559.66,71,560Z"/><path class="cls-2" d="M200.28,526.68c.91-.09,1.43.63,2.05,1.06a2.57,2.57,0,0,0,2.46.33,1.69,1.69,0,0,0,1.3-2c-.08-.76.46-1,1.07-.75a8.42,8.42,0,0,0,5.33.46,2.71,2.71,0,0,1,2,.57,4.73,4.73,0,0,0,3.87.56c1.66-.36,2.83-.32,3.87,1.59a22.66,22.66,0,0,1,1.39,3.86c.33,1-.08,1.51-1,1.71s-1.85.48-2.78.6c-2.07.25-3.47,1.8-5.26,2.6-.68.3-.43,1.16-.92,1.58-.67,0-1.37,0-1.9.51a1.71,1.71,0,0,0-.93,1c-.17.39-.77.67-1,.49-1.42-1.23-2.92.24-4.25-.34-.66.82.13,2.39-1.52,2.42-.94,0-1.83-.59-2.8-.24-.32,2.83-.81,3-3.23,1.43-1.13-.76-1.13-.76-1.32.63a1.38,1.38,0,0,1-1.77,1.34c-1-.22-1.53-.84-1.29-1.81.13-.54.49-1.1.24-1.61-.56-1.16.13-1.76.9-2.37.58-.46,1.16-.86.42-1.7s-1.17-1-2-.3a2.31,2.31,0,0,1-1.48.71c-1.88,0-3.64.16-4.41,2.34-.18.51-.89.59-1.44.72a3.18,3.18,0,0,0-1.12.34c-.63.43-.9,1.42-1.86,1.3s-1.38-1-2-1.56a2.93,2.93,0,0,0,.74-1.53c.51-.14.74,1.41,1.41.23.42-.73,1-.55,1.66-.36a1.54,1.54,0,0,0,2.23-1.37c.19-1.2,1-1.53,2-1.61a11.07,11.07,0,0,1,1.88-.18,3.12,3.12,0,0,0,2.7-1.17,36.46,36.46,0,0,1,5.77-5.47c1-.64.3-1.15-.38-1.53a1.24,1.24,0,0,1,.88-1.38C200.32,527.59,200.22,527.1,200.28,526.68Zm13.44,1.22,0,.1c-.08-.87-.7-1-1.37-.92s-1.67.56-2.31.31c-1.8-.69-2.59,1.1-4,1.38-.28.06-.34.49-.34.82,0,.87,0,1.74,0,2.6a3.36,3.36,0,0,0,2.64,3.73c2.18.56,4.44,1.33,6.32-.85a3.09,3.09,0,0,1,2.79-1,5.08,5.08,0,0,0,2.55-.42c.45-.18.95-.34.93-.93s-.56-.7-1-.73c-1-.09-2.06-.13-3.08-.2l-.28-1.43c1.22-.12,2.35-1,3.67-.4.36.17.82.25,1-.26a.76.76,0,0,0-.7-1c-1.61-.16-3.32-.7-4.66.8-.49-.37-.79-1-1.53-1ZM209.17,539c0-.39-.28-.41-.45-.55-1.56-1.25-3.75-1.69-4.6-3.85-.32-.8-1.08-.32-1.64-.05a10.28,10.28,0,0,0-5.29,6c-.16.43-.51,1.09.21,1.46s1,0,1.35-.53c.57-.89,1.25-1.44,2.33-.67.45.31,1.1.73,1.45.12s-.29-1-.79-1.22l-.22-.1c-.28-.15-.55-.32-.51-.7s.41-.66.8-.74a2.6,2.6,0,0,1,2,.23A6.33,6.33,0,0,0,209.17,539Zm-6.29-10c-1.81,1.42-3.13,3.16-4.91,4.37-.45.3-.1.87.13,1.28a.88.88,0,0,0,1.21.42c1.07-.51,2.1-1.09,3.13-1.68.41-.23.91-.66.75-1.1C202.83,531.23,203.47,530.2,202.88,528.93Zm-5.53,7.41c-.12-.5-.54-.52-.9-.51s-1,.15-1,.72.52.47.88.46S197.26,536.93,197.35,536.34Z"/><path class="cls-2" d="M184.6,535.59c-1.15-.07-1.72-1.05-2.56-1.62-.46-.31-.4-.82-.18-1.28a1,1,0,0,1,1.17-.56c.23.06.46.15.69.19.63.13,1.45.3,1.74-.31.44-.92-.66-.83-1.08-1.18-.86-.69-1.32-1.73-2.26-2.38a1.24,1.24,0,0,1-.12-1.91c.62-.65.2-2.18,1.56-2.09,1.05.08,1.13,1.17,1.4,2a1.38,1.38,0,0,0,.19.43,1,1,0,0,0,1,.57c.48-.06.55-.46.65-.86.51-1.88.52-1.88,2.27-.61-.63.19-1.46,0-1.45,1.13,0,.84.44,1.17,1.16,1.12,1-.08,1.36,1,2.21,1.18-.55,1.23-1.59.69-2.47.66-.57,0-1.15-.48-1.8.16.68,1.08,1.86,1.27,2.75,1.86,1.12.74,1.11.86.19,1.93s-2.47,1.52-3,2.59c-1.07,2.11-2.62,2.51-4.66,2.36-.75-.05-.85.54-.92,1.12-.68.18-1.59.55-.93-.77a1.87,1.87,0,0,0,.2-1.71c.9-.18,1.79-.39,2.69-.55a1.88,1.88,0,0,0,1.66-1.38c2.31,0,3.11-.51,3.56-2.37.18-.12.34-.3.15-.49s-.37,0-.51.13a5.07,5.07,0,0,0-2.07.38C184,533.83,184,533.83,184.6,535.59Z"/><path class="cls-2" d="M130.93,589.29a3.12,3.12,0,0,0-2.46.36,10.19,10.19,0,0,1-3.2.77,1.74,1.74,0,0,1-2.11-1.45c-.27-1.12.51-1.45,1.4-1.79,2.18-.84,4.55-1.09,6.68-2.11.35-.17.94-.42,1.09-.13.75,1.5,2,.78,3.08.82.74,0,1.53.08,1.73.92.24,1-.6,1.47-1.33,1.65C134.15,588.75,132.44,589,130.93,589.29Z"/><path class="cls-2" d="M178.05,540.29c-1,.08-1.39-.37-1.48-1.36a2.59,2.59,0,0,0-2.47-2.42c-1.25-.21-2-2.5-1.2-3.5a.86.86,0,0,1,.85-.31.77.77,0,0,1,.61.61c.5,1.69.52,1.72,2,1.24a6.09,6.09,0,0,1,1.83-.42c1.32,0,1.58.21,1.39,1.49a10.93,10.93,0,0,1-.48,1.57C177.29,537.76,177.87,539.09,178.05,540.29Z"/><path class="cls-2" d="M192.77,526.29c.63-.82.89-2.26,2.3-1.94,1.73.4,3.89,0,4.83,2.19a2.07,2.07,0,0,1-1.78-.41,3.05,3.05,0,0,0-2-.5c-.42,0-1-.3-1.19.35a1,1,0,0,0,.63,1.35c.37,1,1.25.95,2.06,1a.72.72,0,0,1,.58.78c-1.85.13-3.74.55-5.36-.8C192.79,527.67,192.78,527,192.77,526.29Z"/><path class="cls-2" d="M192.77,526.29c0,.69,0,1.38,0,2.07-.95-.24-1.05,1-1.86,1-.85-.17-1.19-1.26-2.21-1.18-.72,0-1.16-.28-1.16-1.12,0-1.08.82-.94,1.45-1.13C190.25,526.36,191.58,525.46,192.77,526.29Z"/><path class="cls-2" d="M198.17,529.15a.72.72,0,0,0-.58-.77,1.93,1.93,0,0,0,0-1.49c0-.39-.27-.44-.58-.33-.72-.16-1.29,0-1.53.77a1,1,0,0,1-.63-1.35c.19-.65.77-.37,1.19-.35a3.05,3.05,0,0,1,2,.5,2.07,2.07,0,0,0,1.78.41l.38.14c-.06.42,0,.91-.5,1.12a1.24,1.24,0,0,0-.88,1.38Z"/><path class="cls-2" d="M72.29,500.85c.16,1.38,1.71,2.06,1.78,3.48a1.16,1.16,0,0,0-.31.22,3.56,3.56,0,0,1-2.11-1.95c-.24-.48-.45-1-1.13-1l-.78-.32c.46-.69.68-1.58,1.58-1.9.18.29.36.58.55.87-.07.33.06.51.4.54Z"/><path class="cls-2" d="M44.24,240.84c.6,0,1.06.21,1.17.88.35,2.29.71,4.58,1,6.88a1.17,1.17,0,0,1-.58,1.39C45.32,246.94,45.49,243.76,44.24,240.84Z"/><path class="cls-2" d="M178.05,540.29c-.18-1.2-.76-2.53,1-3.1l1.24.41a1.87,1.87,0,0,1-.2,1.71c-.66,1.32.25,1,.93.77l.62.56a2.93,2.93,0,0,1-.74,1.53h-.45c-.73-.72-1.18-1.79-2.4-1.88Z"/><path class="cls-2" d="M175.64,522.55c-.15,0-.31,0-.46-.08-.8-.2-1.78-.55-1.6-1.42s1.17-.34,1.83-.28a1.87,1.87,0,0,1,.46.09c.59.16,1.41.19,1.17,1.1C176.87,522.61,176.22,522.59,175.64,522.55Z"/><path class="cls-2" d="M123.46,339.15c0-.93-1.25-1.2-1.13-2.18a5.71,5.71,0,0,1,2.75.21c.6,1.67.6,1.67-.79,2.13Z"/><path class="cls-2" d="M47.12,233.19a8.52,8.52,0,0,1-.55,2.95c-.36,1.85-.42,1.84-2.43,2.06a3,3,0,0,0,1.92-2.52A4.39,4.39,0,0,1,47.12,233.19Z"/><path class="cls-2" d="M204.1,545.64c.57.08,1.17.21,1.08.92-.06.54-.61.63-1.09.61s-1-.19-.94-.79S203.61,545.66,204.1,545.64Z"/><path class="cls-2" d="M100.58,416.76c-.72.42-1.42.65-2-.22,0-.92.87-1,1.36-1.5.83.11.77.8.88,1.37A2.16,2.16,0,0,0,100.58,416.76Z"/><path class="cls-2" d="M84.27,589.8v-.86a3.29,3.29,0,0,1,1.89-.07c1,.86,2.19.61,3.3.85C87.73,589.52,86,590.48,84.27,589.8Z"/><path class="cls-2" d="M50.48,197a1.47,1.47,0,0,1,.7,2.14,10.87,10.87,0,0,0-.71,3.6,3.58,3.58,0,0,1,0-3A4.31,4.31,0,0,0,50.48,197Z"/><path class="cls-2" d="M23.73,409.29c-1.15.19-1,1.3-1.39,2a1.15,1.15,0,0,0-.29-.2v-2.5l.79,0C22.91,409.06,23.6,408.83,23.73,409.29Z"/><path class="cls-2" d="M53.77,208.42c-.61,1.56-.09,3.25-.6,4.82C53,211.58,52.41,209.88,53.77,208.42Z"/><path class="cls-2" d="M22.05,408.59v2.5C20.8,410.14,20.8,409.42,22.05,408.59Z"/><path class="cls-2" d="M178.06,540.29c1.22.09,1.67,1.16,2.4,1.88A2.65,2.65,0,0,1,178.06,540.29Z"/><path class="cls-2" d="M208.05,542.22c-.05.57-.49.84-1.08.88-.3,0-.67-.07-.63-.48,0-.56.58-.66,1-.81S208,541.69,208.05,542.22Z"/><path class="cls-2" d="M53.76,220.33c.53.71.73,1.3-.5,1.36C53.43,221.24,53.6,220.79,53.76,220.33Z"/><path class="cls-2" d="M43.6,238.8l.12,1.57C42.77,239.92,42.83,239.39,43.6,238.8Z"/><path class="cls-2" d="M213.28,540.23c0-.32.16-.41.43-.42.4.21.34.49,0,.69S213.33,540.51,213.28,540.23Z"/><path class="cls-2" d="M54.46,205.92c.56.54.65,1.09,0,1.65C54.47,207,54.47,206.47,54.46,205.92Z"/><path class="cls-2" d="M53.23,205.48c.4-.55.75-.64,1,.1Z"/><path class="cls-2" d="M222.83,159.83c-.64-.47-1.5-.63-1.92-1.39a2.89,2.89,0,0,1,.56-.72c.82-.58,1.46-.54,1.62.61C223.17,158.85,223.84,159.5,222.83,159.83Z"/><path class="cls-2" d="M161.87,13.55a6.45,6.45,0,0,1,1,3.17c.12.61-.45,1-1,1s-.56-.47-.57-.83c0-1.08,0-2.16,0-3.23Z"/><path class="cls-2" d="M199.61,153.73l-1,1.14c-1,0-1.29-.4-1-1.31s.86-.36,1.33-.21A3.19,3.19,0,0,1,199.61,153.73Z"/><path class="cls-2" d="M75.69,61.11,75,60.92c-.06-.49-.13-1,.59-1a.79.79,0,0,1,.6.24C76.47,60.67,75.76,60.75,75.69,61.11Z"/><path class="cls-2" d="M161.54,328.78c0,.49-.07.87-.54.91s-.57-.4-.6-.77,0-.81.5-.86S161.38,328.54,161.54,328.78Z"/><path class="cls-2" d="M216.59,91.74a2.71,2.71,0,0,1-.74-.43.38.38,0,0,1,.12-.57c.34-.2.54,0,.58.34,0,.22,0,.44,0,.66Z"/><path class="cls-2" d="M72.93,279.75c-1.08-.22-2.4.16-3.05-1.19C71,278.77,72.23,278.52,72.93,279.75Z"/><path class="cls-2" d="M69.83,278.51a2.54,2.54,0,0,1-1.76-.53C68.8,277.68,69.52,277.43,69.83,278.51Z"/><path class="cls-2" d="M60.6,274a1,1,0,0,1-1.74,0A1.88,1.88,0,0,1,60.6,274Z"/><path class="cls-2" d="M58,273.9c-.64.39-.93.11-1-.54A.84.84,0,0,1,58,273.9Z"/><path class="cls-2" d="M83.63,185.4l.77,0A.5.5,0,0,1,83.63,185.4Z"/><path class="cls-2" d="M56.68,273.14a.42.42,0,0,1-.55-.37C56.44,272.7,56.64,272.81,56.68,273.14Z"/><path class="cls-2" d="M55.28,190.88l.44-.52C55.76,190.69,55.63,190.88,55.28,190.88Z"/><path class="cls-2" d="M77,255.67a3,3,0,0,1,.26.24s-.05.11-.08.17A.34.34,0,0,1,77,255.67Z"/><path class="cls-2" d="M65.08,277.06a.42.42,0,0,1-.27-.61A.45.45,0,0,1,65.08,277.06Z"/><path class="cls-2" d="M81.42,489.36c.24-.84,1.35-.93,1.56-1.79.81-.09,1.49.05,1.3,1.08a24.57,24.57,0,0,1-.74,2.43C82.62,490.72,81.61,490.61,81.42,489.36Z"/><path class="cls-2" d="M61.45,532.62l-.24-.79.2-1.26a3.58,3.58,0,0,0,2.43-.22c.39.12,1-.05,1,.68,0,.39,0,.8-.48.92A7.77,7.77,0,0,1,61.45,532.62Z"/><path class="cls-2" d="M73.23,544.18c-.14.57.26,1.26-.43,1.77-.7-.12-.91-1-1.6-1.18.76,0,1.26-.75,2-.6Z"/><path class="cls-2" d="M71,560c-.11-.31,0-.1,0,.13s-.09.43-.35.46a.45.45,0,0,1-.55-.31,1.6,1.6,0,0,1-.12-.68c.11-.63-.36-1.79.51-1.77C71.8,557.84,70.64,558.88,71,560Z"/><path class="cls-2" d="M214.36,528.45c-.38,0-.73,0-.65-.55Z"/><path class="cls-2" d="M188.21,533.3c-.45,1.86-1.25,2.38-3.56,2.37l-.05-.08c-.62-1.76-.62-1.76,1.18-2.27a5.07,5.07,0,0,1,2.07-.38Z"/><path class="cls-2" d="M187.85,532.94c.14-.18.33-.31.51-.13s0,.37-.15.49Z"/><path class="cls-2" d="M197.64,526.89a.45.45,0,0,1-.58-.33C197.37,526.45,197.6,526.5,197.64,526.89Z"/><path class="cls-2" d="M69.74,501.33a2.7,2.7,0,0,1-.87.29c-.71,0-1.81.48-1.94-.6-.1-.83,1-.83,1.63-.95a1.85,1.85,0,0,0,1.2-1c.65-.9,1.24-.75,1.56.33C70.42,499.75,70.2,500.64,69.74,501.33Z"/><path class="cls-2" d="M71.87,500.3l.4.54C71.93,500.81,71.8,500.63,71.87,500.3Z"/><path class="cls-2" d="M161.21,311.06a1.21,1.21,0,0,1,.91-.39c.3.32.36.65-.1.84S161.35,311.46,161.21,311.06Z"/><path class="cls-2" d="M61.41,530.57l-.2,1.26a7.4,7.4,0,0,0-3.68,0c-.48.12-1,0-1.11-.53s.41-.83.86-.9C58.66,530.16,60.09,529.23,61.41,530.57Z"/><circle class="cls-2" cx="118.28" cy="382.8" r="4.25"/><path class="cls-2" d="M65.87,302.2a4.26,4.26,0,1,1,4.25,4.25,4.25,4.25,0,0,1-4.25-4.25"/><circle class="cls-2" cx="58.12" cy="531.16" r="4.25"/><circle class="cls-2" cx="79.72" cy="584.44" r="4.25"/><circle class="cls-2" cx="133.96" cy="264.28" r="4.25"/><circle class="cls-2" cx="105.16" cy="203.8" r="4.25"/><circle class="cls-2" cx="136.84" cy="169.72" r="4.25"/><circle class="cls-2" cx="91.36" cy="134.08" r="4.25"/><circle class="cls-2" cx="72.04" cy="174.04" r="4.25"/><circle class="cls-2" cx="118.12" cy="91.96" r="4.25"/><circle class="cls-2" cx="111.88" cy="120.76" r="4.25"/><circle class="cls-2" cx="133.96" cy="106.84" r="4.25"/><circle class="cls-2" cx="115.24" cy="54.52" r="4.25"/><circle class="cls-2" cx="119.56" cy="40.6" r="4.25"/><circle class="cls-2" cx="217.96" cy="76.6" r="4.25"/><circle class="cls-2" cx="215.08" cy="108.28" r="4.25"/><circle class="cls-2" cx="205.96" cy="102.04" r="4.25"/><circle class="cls-2" cx="259.24" cy="98.2" r="4.25"/><circle class="cls-2" cx="182.44" cy="171.64" r="4.25"/><circle class="cls-2" cx="190.12" cy="181.24" r="4.25"/><circle class="cls-2" cx="211.72" cy="232.84" r="4.25"/><circle class="cls-2" cx="220.84" cy="238.36" r="4.25"/><path class="cls-3" d="M106.12,249.76a57.22,57.22,0,0,0,10.2,10.08,28.5,28.5,0,0,0,6.4,3.55l.25.09c6.58,2.2,9.49,1.28,9.49,1.28"/><path class="cls-3" d="M206,102s-11.23,2-26.79,12.38c-18.63,12.47-36.81,29.74-36.81,29.74"/><path class="cls-3" d="M259,99.16s-24.71,17.59-55,28.92c-26.57,9.94-59.18,13.79-59.18,13.79"/><path class="cls-3" d="M181.24,171.16s.7-2.76-.07-1.25c-.45.9-4.48,3.74-10.37,6.53-5.68,2.68-13.8,5.4-13.8,5.4"/><path class="cls-3" d="M189.16,181.6s-19.94.07-34.77.38h-.61a164.66,164.66,0,0,0-20.14,1.78c-11.09,1.66-23.56,4.67-23.56,4.67"/><path class="cls-3" d="M134.08,107.8A143.52,143.52,0,0,1,119,132.28a295.39,295.39,0,0,1-20.88,23.4"/><path class="cls-3" d="M116.8,91.6s-8.85,9.27-14.28,27.47c-4.1,13.74-5.16,37.69-5.16,37.69"/><path class="cls-4" d="M72.75,201.64c-.06-.33-.1-.6-.14-.81"/><path class="cls-4" d="M72.52,200.32s0,.18.09.51"/><path class="cls-3" d="M80.35,253.42c5.22,39.66,11.31,95.81,12.33,148.14C94.58,498.3,80,582.61,80,582.61"/><path class="cls-4" d="M72.29,199.25l-.25.38"/><path class="cls-3" d="M111.88,120.76a221.62,221.62,0,0,1-14.52,36C92.68,166,86.81,176,81.9,184.06"/><path class="cls-4" d="M72.29,199.25l.59-.9"/><path class="cls-3" d="M92.44,205.13a37.23,37.23,0,0,0,12.72-1.33"/><path class="cls-4" d="M72.52,200.32l.65.23"/><path class="cls-4" d="M72.32,199.37l0-.12"/><path class="cls-4" d="M72.52,200.32s-.08-.35-.2-.95"/><path class="cls-3" d="M70.51,187.29c-.07-.82-.12-1.64-.15-2.45a42.39,42.39,0,0,1,1.2-11.1"/><path class="cls-4" d="M72,199.63v.05"/><path class="cls-3" d="M63.79,274.56a112.51,112.51,0,0,0,6.33,27.64"/><path class="cls-4" d="M71.94,200.06c0-.19.07-.31.09-.37"/><path class="cls-4" d="M72,199.69h0"/><path class="cls-4" d="M71,204.1c.45-2,.78-3.39.94-4"/><path class="cls-4" d="M73.93,202.3l-.1-.22"/><path class="cls-3" d="M118.12,381.16s.31-40.85-8.16-74.64c-4.57-18.26-10.45-36.72-16.19-53.07"/><path class="cls-4" d="M73,200.2l.15.35"/><path class="cls-4" d="M73.17,200.55l.37.86"/><path class="cls-4" d="M73.54,201.41l.29.67"/><path class="cls-4" d="M72.56,199.14l0-.07"/><path class="cls-4" d="M72.56,199.14c.06.14.21.5.46,1.06"/><path class="cls-4" d="M73.83,202.08l.43.59"/><path class="cls-4" d="M73.19,201.21l.64.87"/><path class="cls-3" d="M101.52,242.76c7.31,11.61,14.84,24.4,21,36.76a244.78,244.78,0,0,1,21.72,63.8"/><path class="cls-4" d="M72.52,200.32l.67.89"/><path class="cls-4" d="M73.54,201.41l-.35-.2"/><path class="cls-4" d="M73.12,201.17l.07,0"/><path class="cls-3" d="M211.72,232.84s-17.14,9.62-49.71,4.59a84.91,84.91,0,0,1-8.85-1.83c-19.62-5.22-41.26-14.77-57.09-22.49"/><path class="cls-4" d="M71.94,200.06l-.08-.1"/><path class="cls-4" d="M73,201.3l-.41-.47"/><path class="cls-4" d="M73,201.3l.91,1"/><path class="cls-4" d="M72.61,200.83l-.67-.77"/><path class="cls-4" d="M73.93,202.3l.33.37"/><path class="cls-3" d="M97.66,223.46a135.09,135.09,0,0,0,15.18,9.62,168.23,168.23,0,0,0,45,16.53,87.69,87.69,0,0,0,10.26,1.47c30.17,2.48,50.77-12,50.77-12"/><path class="cls-4" d="M71,204.1c.78-1.18,1.39-2,1.75-2.46"/><path class="cls-4" d="M73,201.3l-.27.34"/><path class="cls-4" d="M73,201.3l.1-.13"/><path class="cls-3" d="M51.33,264.86c-7.57,49.68-12.45,118.83-12,165,.1,11.6.52,21.91,1.17,31.1,4.58,64.26,18.84,68.12,18.84,68.12"/><path class="cls-3" d="M91.87,134.5s-3.56,20.75-7.47,33.78c-1.62,5.43-3.33,10.34-4.92,14.56"/><path class="cls-4" d="M72.52,199.07s.13-.25.36-.72"/><path class="cls-4" d="M72.52,200.32l.5-.12"/><path class="cls-3" d="M136.65,169.78a71.92,71.92,0,0,1-22.73,16.86A175.66,175.66,0,0,1,92,195"/><path class="cls-3" d="M217.24,76.48s-32.4,2.23-64.56,29.64c-27.36,23.31-55.25,59.56-69.46,79.13"/><path class="cls-4" d="M73.6,198.88,74.92,197"/><path class="cls-4" d="M72.56,199.14c.47-.44,1.27-1.19,2.36-2.19"/><path class="cls-4" d="M72.32,199.37a2.76,2.76,0,0,1,.24-.23"/><path class="cls-4" d="M72.32,199.37l-.28.26"/><path class="cls-3" d="M215.8,109.24S179.13,121,144.23,142.91c-21.56,13.55-42.54,30.61-56.28,42.46"/><path class="cls-4" d="M72.52,200.32s-.18-.22-.49-.64"/><path class="cls-5" d="M80.35,253.42c-3.58-27.24-6.76-46.69-7.6-51.78"/><path class="cls-5" d="M72.88,198.35c1.51-2.32,4.93-7.6,9-14.29"/><path class="cls-5" d="M92.44,205.13,90.88,205c-7-.75-15.36-3.61-17.71-4.45"/><path class="cls-5" d="M70.51,187.29a99.84,99.84,0,0,0,1.78,12"/><path class="cls-5" d="M71,204.1c-2.06,9.17-6.57,30.87-7.67,49.47-.25,4.24-.3,8.35-.17,12.27.11,3,.33,6,.63,8.72"/><path class="cls-5" d="M73.93,202.3c3.18,7.43,11.36,27,19.84,51.15"/><path class="cls-5" d="M101.52,242.76C89.71,224,78.46,208.41,74.26,202.67"/><path class="cls-5" d="M73.54,201.41c1.94,1.09,10.57,5.87,22.53,11.7"/><path class="cls-5" d="M97.66,223.46a162.45,162.45,0,0,1-23.4-20.79"/><path class="cls-5" d="M71,204.1c-4.23,6.4-13.81,23.8-19,56.64-.21,1.35-.42,2.74-.64,4.12"/><path class="cls-5" d="M79.48,182.84c-3,8-5.67,13.61-6.6,15.51"/><path class="cls-5" d="M73,200.2c2-.46,9.75-2.33,19-5.24"/><path class="cls-5" d="M83.22,185.25c-3.89,5.36-6.75,9.46-8.3,11.7"/><path class="cls-5" d="M88,185.37c-5.82,5-10.33,9.09-13,11.58"/><path class="cls-5" d="M71.75,199.3a58,58,0,0,1-8.25-18"/><path class="cls-3" d="M63.5,181.29c-3.21-11.37-4.83-27.74.65-48.84,3.17-12.16,8.95-26,15.57-39,2-3.91,4-7.81,6.1-11.58,15-27.31,32.06-41.34,32.06-41.34"/><path class="cls-4" d="M72,199.68l-.28-.38"/><path class="cls-4" d="M72.52,200.32s-.18-.22-.49-.63"/><path class="cls-3" d="M63,179.28c-1.36-7.17.8-19.78,2.84-31.16a125.3,125.3,0,0,1,3.52-14.47c3.24-10.66,10.07-25,17.44-37.88a309.08,309.08,0,0,1,28.48-41.25"/><path class="cls-4" d="M71.75,199.3l.28.39"/><circle class="cls-2" cx="144.52" cy="342.16" r="4.25"/><circle class="cls-6" cx="72.52" cy="200.32" r="4.25"/></g></g></svg>